<?xml version="1.0" standalone="no"?>
<!DOCTYPE svg PUBLIC "-//W3C//DTD SVG 1.1//EN" "http://www.w3.org/Graphics/SVG/1.1/DTD/svg11.dtd" >
<svg xmlns="http://www.w3.org/2000/svg" xmlns:xlink="http://www.w3.org/1999/xlink" version="1.1">
<metadata>
Created by FontForge 20190801 at Fri Mar  3 12:32:56 2017
 By Jimmy Wärting
Copyright \(c\) 2016 by Jakob Runge and Lisa Fischbach, under exclusive license to TypeMates. All rights reserved.
</metadata>
<defs>
<font id="CeraRoundPro-Medium" horiz-adv-x="560" >
  <font-face 
    font-family="Cera Round Pro Medium"
    font-weight="500"
    font-stretch="normal"
    units-per-em="1000"
    panose-1="0 0 6 0 0 0 0 0 0 0"
    ascent="808"
    descent="-192"
    x-height="491"
    cap-height="671"
    bbox="-152.664 -241 1336 1022.09"
    underline-thickness="76"
    underline-position="-100"
    stemh="89"
    stemv="105"
    unicode-range="U+0020-FB02"
  />
<missing-glyph horiz-adv-x="710" 
d="M574 660c30 0 53 -23 53 -53v-554c0 -30 -23 -53 -53 -53h-438c-30 0 -53 23 -53 53v554c0 30 23 53 53 53h438zM552 64v528h-396z" />
    <glyph glyph-name="fi" unicode="fi" horiz-adv-x="594" 
d="M320 752c19 -7 31 -23 31 -45c0 -25 -19 -42 -47 -42c-7 0 -14 1 -24 1c-52 0 -81 -30 -81 -85v-90h79c27 0 47 -20 47 -46s-20 -45 -47 -45h-79v-357c0 -32 -22 -54 -52 -54c-31 0 -53 23 -53 54v357h-34c-26 0 -46 19 -46 45s20 46 46 46h34v99c0 108 63 171 169 171
c23 0 41 -3 57 -9zM466 606c-39 0 -70 30 -70 68s31 68 70 68c38 0 70 -30 70 -68s-32 -68 -70 -68zM466 502c30 0 52 -23 52 -54v-405c0 -31 -23 -54 -53 -54s-52 23 -52 54v405c0 31 22 54 53 54z" />
    <glyph glyph-name="fl" unicode="fl" horiz-adv-x="594" 
d="M320 752c19 -7 31 -23 31 -45c0 -25 -19 -42 -47 -42c-7 0 -14 1 -24 1c-52 0 -81 -30 -81 -85v-90h79c27 0 47 -20 47 -46s-20 -45 -47 -45h-79v-357c0 -32 -22 -54 -52 -54c-31 0 -53 23 -53 54v357h-34c-26 0 -46 19 -46 45s20 46 46 46h34v99c0 108 63 171 169 171
c23 0 41 -3 57 -9zM466 761c30 0 52 -23 52 -54v-664c0 -31 -22 -54 -52 -54s-53 23 -53 54v664c0 31 22 54 53 54z" />
    <glyph glyph-name=".notdef" horiz-adv-x="710" 
d="M574 660c30 0 53 -23 53 -53v-554c0 -30 -23 -53 -53 -53h-438c-30 0 -53 23 -53 53v554c0 30 23 53 53 53h438zM552 64v528h-396z" />
    <glyph glyph-name="A" unicode="A" horiz-adv-x="663" 
d="M621 70c5 -12 8 -22 8 -30c0 -28 -23 -51 -52 -51c-24 0 -40 13 -50 37l-41 93h-311l-39 -93c-9 -24 -26 -37 -50 -37c-29 0 -52 23 -52 51c0 8 2 18 8 30l239 565c10 24 27 36 50 36c24 0 41 -12 51 -36zM331 516l-119 -307h236z" />
    <glyph glyph-name="Aacute" unicode="&#xc1;" horiz-adv-x="663" 
d="M346 723c-38 2 -53 42 -39 69l58 112c12 22 33 29 51 28c39 -2 64 -48 39 -84l-67 -102c-12 -17 -29 -23 -42 -23zM621 70c5 -12 8 -22 8 -30c0 -28 -23 -51 -52 -51c-24 0 -40 13 -50 37l-41 93h-311l-39 -93c-9 -24 -26 -37 -50 -37c-29 0 -52 23 -52 51c0 8 2 18 8 30
l239 565c10 24 27 36 50 36c24 0 41 -12 51 -36zM331 516l-119 -307h236z" />
    <glyph glyph-name="Abreve" unicode="&#x102;" horiz-adv-x="663" 
d="M331 729c-83 0 -159 62 -159 133c0 24 18 43 42 43c19 0 32 -11 41 -35c12 -39 40 -61 76 -61c38 0 66 23 77 61c8 23 21 35 40 35c25 0 42 -19 42 -43c0 -70 -75 -133 -159 -133zM621 70c5 -12 8 -22 8 -30c0 -28 -23 -51 -52 -51c-24 0 -40 13 -50 37l-41 93h-311
l-39 -93c-9 -24 -26 -37 -50 -37c-29 0 -52 23 -52 51c0 8 2 18 8 30l239 565c10 24 27 36 50 36c24 0 41 -12 51 -36zM331 516l-119 -307h236z" />
    <glyph glyph-name="Acircumflex" unicode="&#xc2;" horiz-adv-x="663" 
d="M206 721c-22 0 -39 17 -39 39c0 13 6 21 20 35l109 108c10 10 21 15 34 15s24 -5 34 -15l109 -108c14 -14 20 -22 20 -35c0 -22 -17 -39 -39 -39c-10 0 -20 4 -31 13l-93 87l-93 -87c-11 -9 -21 -13 -31 -13zM621 70c5 -12 8 -22 8 -30c0 -28 -23 -51 -52 -51
c-24 0 -40 13 -50 37l-41 93h-311l-39 -93c-9 -24 -26 -37 -50 -37c-29 0 -52 23 -52 51c0 8 2 18 8 30l239 565c10 24 27 36 50 36c24 0 41 -12 51 -36zM331 516l-119 -307h236z" />
    <glyph glyph-name="Adieresis" unicode="&#xc4;" horiz-adv-x="663" 
d="M208 747c-35 0 -68 30 -68 65c0 37 33 65 68 65c37 0 67 -28 67 -65c0 -35 -30 -65 -67 -65zM452 746c-34 0 -67 30 -67 65c0 37 33 66 67 66c38 0 68 -29 68 -66c0 -35 -30 -65 -68 -65zM621 70c5 -12 8 -22 8 -30c0 -28 -23 -51 -52 -51c-24 0 -40 13 -50 37l-41 93
h-311l-39 -93c-9 -24 -26 -37 -50 -37c-29 0 -52 23 -52 51c0 8 2 18 8 30l239 565c10 24 27 36 50 36c24 0 41 -12 51 -36zM331 516l-119 -307h236z" />
    <glyph glyph-name="Agrave" unicode="&#xc0;" horiz-adv-x="663" 
d="M274 746l-67 102c-25 36 0 82 39 84c18 1 39 -6 51 -28l58 -112c14 -27 -1 -67 -39 -69c-13 0 -30 6 -42 23zM621 70c5 -12 8 -22 8 -30c0 -28 -23 -51 -52 -51c-24 0 -40 13 -50 37l-41 93h-311l-39 -93c-9 -24 -26 -37 -50 -37c-29 0 -52 23 -52 51c0 8 2 18 8 30
l239 565c10 24 27 36 50 36c24 0 41 -12 51 -36zM331 516l-119 -307h236z" />
    <glyph glyph-name="Amacron" unicode="&#x100;" horiz-adv-x="663" 
d="M215 763c-25 0 -44 19 -44 43s19 42 44 42h233c24 0 43 -18 43 -42s-19 -43 -43 -43h-233zM621 70c5 -12 8 -22 8 -30c0 -28 -23 -51 -52 -51c-24 0 -40 13 -50 37l-41 93h-311l-39 -93c-9 -24 -26 -37 -50 -37c-29 0 -52 23 -52 51c0 8 2 18 8 30l239 565
c10 24 27 36 50 36c24 0 41 -12 51 -36zM331 516l-119 -307h236z" />
    <glyph glyph-name="Aogonek" unicode="&#x104;" horiz-adv-x="663" 
d="M610 -110c20 0 34 -14 34 -36c0 -19 -11 -32 -32 -38c-14 -5 -36 -7 -57 -7c-68 0 -113 37 -113 98c0 51 32 82 83 123l-39 89h-311l-39 -93c-9 -24 -26 -37 -50 -37c-29 0 -52 23 -52 51c0 8 2 18 8 30l239 565c10 24 27 36 50 36c24 0 41 -12 51 -36l239 -565
c5 -12 8 -22 8 -30c0 -6 -1 -13 -3 -18c-1 -3 -3 -6 -5 -9c-3 -6 -8 -11 -14 -15c-1 0 -2 -1 -3 -2c-28 -21 -63 -48 -63 -76c0 -17 14 -31 44 -31c10 0 19 1 25 1zM331 516l-119 -307h236z" />
    <glyph glyph-name="Aring" unicode="&#xc5;" horiz-adv-x="663" 
d="M330 687c-67 0 -118 50 -118 115s52 115 118 115c68 0 119 -50 119 -115c0 -66 -51 -115 -119 -115zM331 848c-26 0 -46 -19 -46 -46c0 -26 20 -46 46 -46s45 20 45 46s-19 46 -45 46zM621 70c5 -12 8 -22 8 -30c0 -28 -23 -51 -52 -51c-24 0 -40 13 -50 37l-41 93h-311
l-39 -93c-9 -24 -26 -37 -50 -37c-29 0 -52 23 -52 51c0 8 2 18 8 30l239 565c10 24 27 36 50 36c24 0 41 -12 51 -36zM331 516l-119 -307h236z" />
    <glyph glyph-name="Atilde" unicode="&#xc3;" horiz-adv-x="663" 
d="M193 729c-26 0 -44 19 -44 47c0 66 43 114 101 114c23 0 48 -7 72 -22l33 -20c17 -10 29 -18 43 -18c18 0 27 10 30 28c3 22 19 36 41 36c26 0 44 -19 44 -46c0 -67 -43 -115 -102 -115c-22 0 -48 8 -72 22l-32 20c-18 10 -30 18 -44 18c-17 0 -27 -9 -29 -28
c-4 -22 -19 -36 -41 -36zM621 70c5 -12 8 -22 8 -30c0 -28 -23 -51 -52 -51c-24 0 -40 13 -50 37l-41 93h-311l-39 -93c-9 -24 -26 -37 -50 -37c-29 0 -52 23 -52 51c0 8 2 18 8 30l239 565c10 24 27 36 50 36c24 0 41 -12 51 -36zM331 516l-119 -307h236z" />
    <glyph glyph-name="AE" unicode="&#xc6;" horiz-adv-x="837" 
d="M754 95c28 0 49 -20 49 -47s-22 -48 -49 -48h-248c-26 0 -48 18 -52 43l-11 67h-262l-46 -88c-11 -22 -28 -33 -47 -33c-30 0 -52 21 -52 49c0 9 2 18 6 26l290 560c12 24 31 36 57 36h353c28 0 49 -21 49 -48s-22 -47 -49 -47h-269l28 -169h162c27 0 47 -20 47 -46
s-20 -46 -47 -46h-147l35 -209h203zM379 505l-151 -304h199z" />
    <glyph glyph-name="AEacute" unicode="&#x1fc;" horiz-adv-x="837" 
d="M434 723c-38 2 -53 42 -39 69l58 112c12 22 33 29 51 28c39 -2 64 -48 39 -84l-67 -102c-12 -17 -29 -23 -42 -23zM754 95c28 0 49 -20 49 -47s-22 -48 -49 -48h-248c-26 0 -48 18 -52 43l-11 67h-262l-46 -88c-11 -22 -28 -33 -47 -33c-30 0 -52 21 -52 49
c0 9 2 18 6 26l290 560c12 24 31 36 57 36h353c28 0 49 -21 49 -48s-22 -47 -49 -47h-269l28 -169h162c27 0 47 -20 47 -46s-20 -46 -47 -46h-147l35 -209h203zM379 505l-151 -304h199z" />
    <glyph glyph-name="B" unicode="B" horiz-adv-x="618" 
d="M457 360c77 -25 123 -86 123 -168c0 -114 -87 -192 -214 -192h-228c-32 0 -55 23 -55 55v550c0 32 23 55 55 55h176c118 0 198 -71 198 -176c0 -51 -20 -94 -55 -124zM304 567h-117v-178h117c63 0 101 33 101 90c0 56 -37 88 -101 88zM357 93c72 0 115 38 115 102
s-43 103 -115 103h-170v-205h170z" />
    <glyph glyph-name="C" unicode="C" horiz-adv-x="717" 
d="M390 -11c-195 0 -347 149 -347 341s152 341 347 341c102 0 197 -43 257 -115c12 -16 17 -28 17 -42c0 -26 -22 -48 -49 -48c-16 0 -30 7 -42 21c-48 58 -109 87 -182 87c-137 0 -238 -104 -238 -244s101 -244 238 -244c72 0 133 30 181 87c12 14 26 21 43 21
c27 0 49 -22 49 -48c0 -13 -5 -25 -18 -42c-58 -72 -153 -115 -256 -115z" />
    <glyph glyph-name="Cacute" unicode="&#x106;" horiz-adv-x="717" 
d="M405 726c-38 2 -53 42 -39 69l58 112c12 22 33 29 51 28c39 -2 64 -48 39 -84l-67 -102c-12 -17 -29 -23 -42 -23zM390 -11c-195 0 -347 149 -347 341s152 341 347 341c102 0 197 -43 257 -115c12 -16 17 -28 17 -42c0 -26 -22 -48 -49 -48c-16 0 -30 7 -42 21
c-48 58 -109 87 -182 87c-137 0 -238 -104 -238 -244s101 -244 238 -244c72 0 133 30 181 87c12 14 26 21 43 21c27 0 49 -22 49 -48c0 -13 -5 -25 -18 -42c-58 -72 -153 -115 -256 -115z" />
    <glyph glyph-name="Ccaron" unicode="&#x10c;" horiz-adv-x="717" 
d="M356 739l-109 108c-14 14 -20 22 -20 35c0 22 17 39 39 39c10 0 20 -4 31 -13l93 -87l93 87c11 9 21 13 31 13c22 0 39 -17 39 -39c0 -13 -6 -21 -20 -35l-109 -108c-10 -10 -21 -15 -34 -15s-24 5 -34 15zM615 194c27 0 49 -22 49 -48c0 -13 -5 -25 -18 -42
c-58 -72 -153 -115 -256 -115c-195 0 -347 149 -347 341s152 341 347 341c102 0 197 -43 257 -115c12 -16 17 -28 17 -42c0 -26 -22 -48 -49 -48c-16 0 -30 7 -42 21c-48 58 -109 87 -182 87c-137 0 -238 -104 -238 -244s101 -244 238 -244c72 0 133 30 181 87
c12 14 26 21 43 21z" />
    <glyph glyph-name="Ccedilla" unicode="&#xc7;" horiz-adv-x="717" 
d="M615 194c27 0 49 -22 49 -48c0 -13 -5 -25 -18 -42c-43 -54 -108 -92 -180 -107c12 -22 20 -46 20 -67c0 -73 -58 -121 -145 -121c-25 0 -43 1 -59 8c-18 7 -28 18 -28 36c0 21 17 38 38 38c13 0 20 -3 39 -3c34 0 64 16 64 48c0 23 -9 39 -19 53
c-188 7 -333 154 -333 341c0 192 152 341 347 341c102 0 197 -43 257 -115c12 -16 17 -28 17 -42c0 -26 -22 -48 -49 -48c-16 0 -30 7 -42 21c-48 58 -109 87 -182 87c-137 0 -238 -104 -238 -244s101 -244 238 -244c72 0 133 30 181 87c12 14 26 21 43 21z" />
    <glyph glyph-name="Ccircumflex" unicode="&#x108;" horiz-adv-x="717" 
d="M265 724c-22 0 -39 17 -39 39c0 13 6 21 20 35l109 108c10 10 21 15 34 15s24 -5 34 -15l109 -108c14 -14 20 -22 20 -35c0 -22 -17 -39 -39 -39c-10 0 -20 4 -31 13l-93 87l-93 -87c-11 -9 -21 -13 -31 -13zM615 194c27 0 49 -22 49 -48c0 -13 -5 -25 -18 -42
c-58 -72 -153 -115 -256 -115c-195 0 -347 149 -347 341s152 341 347 341c102 0 197 -43 257 -115c12 -16 17 -28 17 -42c0 -26 -22 -48 -49 -48c-16 0 -30 7 -42 21c-48 58 -109 87 -182 87c-137 0 -238 -104 -238 -244s101 -244 238 -244c72 0 133 30 181 87
c12 14 26 21 43 21z" />
    <glyph glyph-name="Cdotaccent" unicode="&#x10a;" horiz-adv-x="717" 
d="M390 883c38 0 70 -30 70 -68s-32 -68 -70 -68c-39 0 -70 30 -70 68s31 68 70 68zM390 -11c-195 0 -347 149 -347 341s152 341 347 341c102 0 197 -43 257 -115c12 -16 17 -28 17 -42c0 -26 -22 -48 -49 -48c-16 0 -30 7 -42 21c-48 58 -109 87 -182 87
c-137 0 -238 -104 -238 -244s101 -244 238 -244c72 0 133 30 181 87c12 14 26 21 43 21c27 0 49 -22 49 -48c0 -13 -5 -25 -18 -42c-58 -72 -153 -115 -256 -115z" />
    <glyph glyph-name="D" unicode="D" horiz-adv-x="692" 
d="M289 660c216 0 360 -131 360 -329c0 -197 -147 -331 -360 -331h-151c-32 0 -55 23 -55 55v550c0 32 23 55 55 55h151zM288 564h-99v-469h99c151 0 251 94 251 236c0 143 -97 233 -251 233z" />
    <glyph glyph-name="Eth" unicode="&#xd0;" horiz-adv-x="692" 
d="M289 660c216 0 360 -131 360 -329c0 -197 -147 -331 -360 -331h-151c-32 0 -55 23 -55 55v210h-46c-27 0 -48 20 -48 45s21 45 48 45h46v250c0 32 23 55 55 55h151zM288 95c151 0 251 94 251 236c0 143 -97 233 -251 233h-99v-209h77c27 0 48 -20 48 -45s-21 -45 -48 -45
h-77v-170h99z" />
    <glyph glyph-name="Dcaron" unicode="&#x10e;" horiz-adv-x="692" 
d="M257 736l-109 108c-14 14 -20 22 -20 35c0 22 17 39 39 39c10 0 20 -4 31 -13l93 -87l93 87c11 9 21 13 31 13c22 0 39 -17 39 -39c0 -13 -6 -21 -20 -35l-109 -108c-10 -10 -21 -15 -34 -15s-24 5 -34 15zM289 660c216 0 360 -131 360 -329c0 -197 -147 -331 -360 -331
h-151c-32 0 -55 23 -55 55v550c0 32 23 55 55 55h151zM288 95c151 0 251 94 251 236c0 143 -97 233 -251 233h-99v-469h99z" />
    <glyph glyph-name="Dcroat" unicode="&#x110;" horiz-adv-x="692" 
d="M289 660c216 0 360 -131 360 -329c0 -197 -147 -331 -360 -331h-151c-32 0 -55 23 -55 55v210h-46c-27 0 -48 20 -48 45s21 45 48 45h46v250c0 32 23 55 55 55h151zM288 95c151 0 251 94 251 236c0 143 -97 233 -251 233h-99v-209h77c27 0 48 -20 48 -45s-21 -45 -48 -45
h-77v-170h99z" />
    <glyph glyph-name="E" unicode="E" horiz-adv-x="569" 
d="M134 0c-29 0 -51 22 -51 51v558c0 29 22 51 51 51h339c28 0 49 -21 49 -48s-21 -47 -49 -47h-284v-169h205c27 0 47 -20 47 -46s-20 -46 -47 -46h-205v-209h296c28 0 49 -20 49 -47s-21 -48 -49 -48h-351z" />
    <glyph glyph-name="Eacute" unicode="&#xc9;" horiz-adv-x="569" 
d="M314 723c-38 2 -53 42 -39 69l58 112c12 22 33 29 51 28c39 -2 64 -48 39 -84l-67 -102c-12 -17 -29 -23 -42 -23zM134 0c-29 0 -51 22 -51 51v558c0 29 22 51 51 51h339c28 0 49 -21 49 -48s-21 -47 -49 -47h-284v-169h205c27 0 47 -20 47 -46s-20 -46 -47 -46h-205
v-209h296c28 0 49 -20 49 -47s-21 -48 -49 -48h-351z" />
    <glyph glyph-name="Ebreve" unicode="&#x114;" horiz-adv-x="569" 
d="M299 729c-83 0 -159 62 -159 133c0 24 18 43 42 43c19 0 32 -11 41 -35c12 -39 40 -61 76 -61c38 0 66 23 77 61c8 23 21 35 40 35c25 0 42 -19 42 -43c0 -70 -75 -133 -159 -133zM134 0c-29 0 -51 22 -51 51v558c0 29 22 51 51 51h339c28 0 49 -21 49 -48
s-21 -47 -49 -47h-284v-169h205c27 0 47 -20 47 -46s-20 -46 -47 -46h-205v-209h296c28 0 49 -20 49 -47s-21 -48 -49 -48h-351z" />
    <glyph glyph-name="Ecaron" unicode="&#x11a;" horiz-adv-x="569" 
d="M265 736l-109 108c-14 14 -20 22 -20 35c0 22 17 39 39 39c10 0 20 -4 31 -13l93 -87l93 87c11 9 21 13 31 13c22 0 39 -17 39 -39c0 -13 -6 -21 -20 -35l-109 -108c-10 -10 -21 -15 -34 -15s-24 5 -34 15zM485 95c28 0 49 -20 49 -47s-21 -48 -49 -48h-351
c-29 0 -51 22 -51 51v558c0 29 22 51 51 51h339c28 0 49 -21 49 -48s-21 -47 -49 -47h-284v-169h205c27 0 47 -20 47 -46s-20 -46 -47 -46h-205v-209h296z" />
    <glyph glyph-name="Ecircumflex" unicode="&#xca;" horiz-adv-x="569" 
d="M174 721c-22 0 -39 17 -39 39c0 13 6 21 20 35l109 108c10 10 21 15 34 15s24 -5 34 -15l109 -108c14 -14 20 -22 20 -35c0 -22 -17 -39 -39 -39c-10 0 -20 4 -31 13l-93 87l-93 -87c-11 -9 -21 -13 -31 -13zM485 95c28 0 49 -20 49 -47s-21 -48 -49 -48h-351
c-29 0 -51 22 -51 51v558c0 29 22 51 51 51h339c28 0 49 -21 49 -48s-21 -47 -49 -47h-284v-169h205c27 0 47 -20 47 -46s-20 -46 -47 -46h-205v-209h296z" />
    <glyph glyph-name="Edieresis" unicode="&#xcb;" horiz-adv-x="569" 
d="M176 747c-35 0 -68 30 -68 65c0 37 33 65 68 65c37 0 67 -28 67 -65c0 -35 -30 -65 -67 -65zM420 746c-34 0 -67 30 -67 65c0 37 33 66 67 66c38 0 68 -29 68 -66c0 -35 -30 -65 -68 -65zM134 0c-29 0 -51 22 -51 51v558c0 29 22 51 51 51h339c28 0 49 -21 49 -48
s-21 -47 -49 -47h-284v-169h205c27 0 47 -20 47 -46s-20 -46 -47 -46h-205v-209h296c28 0 49 -20 49 -47s-21 -48 -49 -48h-351z" />
    <glyph glyph-name="Edotaccent" unicode="&#x116;" horiz-adv-x="569" 
d="M299 880c38 0 70 -30 70 -68s-32 -68 -70 -68c-39 0 -70 30 -70 68s31 68 70 68zM134 0c-29 0 -51 22 -51 51v558c0 29 22 51 51 51h339c28 0 49 -21 49 -48s-21 -47 -49 -47h-284v-169h205c27 0 47 -20 47 -46s-20 -46 -47 -46h-205v-209h296c28 0 49 -20 49 -47
s-21 -48 -49 -48h-351z" />
    <glyph glyph-name="Egrave" unicode="&#xc8;" horiz-adv-x="569" 
d="M284 723c-13 0 -30 6 -42 23l-67 102c-25 36 0 82 39 84c18 1 39 -6 51 -28l58 -112c14 -27 -1 -67 -39 -69zM134 0c-29 0 -51 22 -51 51v558c0 29 22 51 51 51h339c28 0 49 -21 49 -48s-21 -47 -49 -47h-284v-169h205c27 0 47 -20 47 -46s-20 -46 -47 -46h-205v-209h296
c28 0 49 -20 49 -47s-21 -48 -49 -48h-351z" />
    <glyph glyph-name="Emacron" unicode="&#x112;" horiz-adv-x="569" 
d="M416 848c24 0 43 -18 43 -42s-19 -43 -43 -43h-233c-25 0 -44 19 -44 43s19 42 44 42h233zM134 0c-29 0 -51 22 -51 51v558c0 29 22 51 51 51h339c28 0 49 -21 49 -48s-21 -47 -49 -47h-284v-169h205c27 0 47 -20 47 -46s-20 -46 -47 -46h-205v-209h296
c28 0 49 -20 49 -47s-21 -48 -49 -48h-351z" />
    <glyph glyph-name="Eogonek" unicode="&#x118;" horiz-adv-x="569" 
d="M500 -110c19 0 34 -15 34 -35c0 -19 -11 -33 -32 -39c-14 -5 -37 -7 -57 -7c-68 0 -113 37 -113 93c0 33 21 68 54 98h-252c-29 0 -51 22 -51 51v558c0 29 22 51 51 51h339c28 0 49 -21 49 -48s-21 -47 -49 -47h-284v-169h205c27 0 47 -20 47 -46s-20 -46 -47 -46h-205
v-209h296c28 0 49 -20 49 -47c0 -8 -2 -15 -5 -21c-2 -6 -6 -11 -12 -16l-42 -33c-35 -28 -44 -41 -44 -58c0 -19 17 -31 44 -31c8 0 19 1 25 1z" />
    <glyph glyph-name="F" unicode="F" horiz-adv-x="529" 
d="M136 -11c-31 0 -53 23 -53 54v562c0 32 23 55 55 55h325c28 0 49 -21 49 -48s-21 -47 -49 -47h-274v-197h219c28 0 49 -21 49 -48s-21 -48 -49 -48h-219v-229c0 -31 -22 -54 -53 -54z" />
    <glyph glyph-name="G" unicode="G" horiz-adv-x="746" 
d="M391 -11c-196 0 -348 148 -348 341s152 341 348 341c97 0 193 -42 248 -108c17 -18 25 -33 25 -49c0 -25 -21 -48 -49 -48c-17 0 -29 6 -46 25c-53 57 -107 83 -179 83c-138 0 -237 -102 -237 -243c0 -144 101 -247 243 -247c82 0 155 35 197 95v76h-157
c-30 0 -52 21 -52 47s22 47 52 47h209c31 0 54 -23 54 -55v-96c0 -25 -5 -45 -18 -65c-61 -88 -174 -144 -290 -144z" />
    <glyph glyph-name="Gbreve" unicode="&#x11e;" horiz-adv-x="746" 
d="M391 729c-83 0 -159 62 -159 133c0 24 18 43 42 43c19 0 32 -11 41 -35c12 -39 40 -61 76 -61c38 0 66 23 77 61c8 23 21 35 40 35c25 0 42 -19 42 -43c0 -70 -75 -133 -159 -133zM391 -11c-196 0 -348 148 -348 341s152 341 348 341c97 0 193 -42 248 -108
c17 -18 25 -33 25 -49c0 -25 -21 -48 -49 -48c-17 0 -29 6 -46 25c-53 57 -107 83 -179 83c-138 0 -237 -102 -237 -243c0 -144 101 -247 243 -247c82 0 155 35 197 95v76h-157c-30 0 -52 21 -52 47s22 47 52 47h209c31 0 54 -23 54 -55v-96c0 -25 -5 -45 -18 -65
c-61 -88 -174 -144 -290 -144z" />
    <glyph glyph-name="Gcircumflex" unicode="&#x11c;" horiz-adv-x="746" 
d="M266 721c-22 0 -39 17 -39 39c0 13 6 21 20 35l109 108c10 10 21 15 34 15s24 -5 34 -15l109 -108c14 -14 20 -22 20 -35c0 -22 -17 -39 -39 -39c-10 0 -20 4 -31 13l-93 87l-93 -87c-11 -9 -21 -13 -31 -13zM645 349c31 0 54 -23 54 -55v-96c0 -25 -5 -45 -18 -65
c-61 -88 -174 -144 -290 -144c-196 0 -348 148 -348 341s152 341 348 341c97 0 193 -42 248 -108c17 -18 25 -33 25 -49c0 -25 -21 -48 -49 -48c-17 0 -29 6 -46 25c-53 57 -107 83 -179 83c-138 0 -237 -102 -237 -243c0 -144 101 -247 243 -247c82 0 155 35 197 95v76
h-157c-30 0 -52 21 -52 47s22 47 52 47h209z" />
    <glyph glyph-name="Gcommaaccent" unicode="&#x122;" horiz-adv-x="746" 
d="M391 -11c-196 0 -348 148 -348 341s152 341 348 341c97 0 193 -42 248 -108c17 -18 25 -33 25 -49c0 -25 -21 -48 -49 -48c-17 0 -29 6 -46 25c-53 57 -107 83 -179 83c-138 0 -237 -102 -237 -243c0 -144 101 -247 243 -247c82 0 155 35 197 95v76h-157
c-30 0 -52 21 -52 47s22 47 52 47h209c31 0 54 -23 54 -55v-96c0 -25 -5 -45 -18 -65c-61 -88 -174 -144 -290 -144zM365 -237c-24 0 -46 21 -46 44s13 42 13 96c0 29 24 53 53 53s53 -24 53 -53c0 -42 -15 -86 -28 -107c-13 -23 -29 -33 -45 -33z" />
    <glyph glyph-name="Gdotaccent" unicode="&#x120;" horiz-adv-x="746" 
d="M391 880c38 0 70 -30 70 -68s-32 -68 -70 -68c-39 0 -70 30 -70 68s31 68 70 68zM391 -11c-196 0 -348 148 -348 341s152 341 348 341c97 0 193 -42 248 -108c17 -18 25 -33 25 -49c0 -25 -21 -48 -49 -48c-17 0 -29 6 -46 25c-53 57 -107 83 -179 83
c-138 0 -237 -102 -237 -243c0 -144 101 -247 243 -247c82 0 155 35 197 95v76h-157c-30 0 -52 21 -52 47s22 47 52 47h209c31 0 54 -23 54 -55v-96c0 -25 -5 -45 -18 -65c-61 -88 -174 -144 -290 -144z" />
    <glyph glyph-name="H" unicode="H" horiz-adv-x="710" 
d="M136 -11c-30 0 -53 23 -53 54v574c0 31 22 54 53 54s53 -23 53 -54v-220h332v220c0 31 22 54 53 54s53 -23 53 -54v-574c0 -31 -23 -54 -53 -54s-53 23 -53 54v259h-332v-259c0 -31 -23 -54 -53 -54z" />
    <glyph glyph-name="Hbar" unicode="&#x126;" horiz-adv-x="725" 
d="M143 -11c-30 0 -53 23 -53 54v405h-56c-26 0 -45 20 -45 45s19 44 45 44h56v80c0 31 23 54 53 54c31 0 53 -23 53 -54v-80h332v80c0 31 23 54 53 54c31 0 53 -23 53 -54v-80h56c27 0 46 -19 46 -44s-19 -45 -46 -45h-56v-405c0 -31 -22 -54 -53 -54c-30 0 -53 23 -53 54
v191h-332v-191c0 -31 -22 -54 -53 -54zM196 327h332v121h-332v-121z" />
    <glyph glyph-name="Hcircumflex" unicode="&#x124;" horiz-adv-x="710" 
d="M230 721c-22 0 -39 17 -39 39c0 13 6 21 20 35l109 108c10 10 21 15 34 15s24 -5 34 -15l109 -108c14 -14 20 -22 20 -35c0 -22 -17 -39 -39 -39c-10 0 -20 4 -31 13l-93 87l-93 -87c-11 -9 -21 -13 -31 -13zM574 671c31 0 53 -23 53 -54v-574c0 -31 -23 -54 -53 -54
s-53 23 -53 54v259h-332v-259c0 -31 -23 -54 -53 -54s-53 23 -53 54v574c0 31 22 54 53 54s53 -23 53 -54v-220h332v220c0 31 22 54 53 54z" />
    <glyph glyph-name="I" unicode="I" horiz-adv-x="272" 
d="M136 -11c-31 0 -53 23 -53 54v574c0 31 22 54 53 54s53 -23 53 -54v-574c0 -31 -22 -54 -53 -54z" />
    <glyph glyph-name="IJ" unicode="&#x132;" horiz-adv-x="653" 
d="M136 -11c-31 0 -53 23 -53 54v574c0 31 22 54 53 54s53 -23 53 -54v-574c0 -31 -22 -54 -53 -54zM381 -11c-27 0 -47 2 -64 8c-20 7 -34 26 -34 47c0 27 22 48 51 48c20 0 35 -5 58 -5c45 0 72 31 72 81v449c0 31 22 54 53 54s53 -23 53 -54v-453
c0 -114 -66 -175 -189 -175z" />
    <glyph glyph-name="Iacute" unicode="&#xcd;" horiz-adv-x="272" 
d="M152 723c-38 2 -53 42 -39 69l58 112c12 22 33 29 51 28c39 -2 64 -48 39 -84l-67 -102c-12 -17 -29 -23 -42 -23zM136 -11c-31 0 -53 23 -53 54v574c0 31 22 54 53 54s53 -23 53 -54v-574c0 -31 -22 -54 -53 -54z" />
    <glyph glyph-name="Ibreve" unicode="&#x12c;" horiz-adv-x="272" 
d="M137 729c-83 0 -159 62 -159 133c0 24 18 43 42 43c19 0 32 -11 41 -35c12 -39 40 -61 76 -61c38 0 66 23 77 61c8 23 21 35 40 35c25 0 42 -19 42 -43c0 -70 -75 -133 -159 -133zM136 -11c-31 0 -53 23 -53 54v574c0 31 22 54 53 54s53 -23 53 -54v-574
c0 -31 -22 -54 -53 -54z" />
    <glyph glyph-name="Icircumflex" unicode="&#xce;" horiz-adv-x="272" 
d="M279 795c14 -14 20 -22 20 -35c0 -22 -17 -39 -39 -39c-10 0 -20 4 -31 13l-93 87l-93 -87c-11 -9 -21 -13 -31 -13c-22 0 -39 17 -39 39c0 13 6 21 20 35l109 108c10 10 21 15 34 15s24 -5 34 -15zM136 671c31 0 53 -23 53 -54v-574c0 -31 -22 -54 -53 -54
s-53 23 -53 54v574c0 31 22 54 53 54z" />
    <glyph glyph-name="Idieresis" unicode="&#xcf;" horiz-adv-x="272" 
d="M14 747c-35 0 -68 30 -68 65c0 37 33 65 68 65c37 0 67 -28 67 -65c0 -35 -30 -65 -67 -65zM258 746c-34 0 -67 30 -67 65c0 37 33 66 67 66c38 0 68 -29 68 -66c0 -35 -30 -65 -68 -65zM136 -11c-31 0 -53 23 -53 54v574c0 31 22 54 53 54s53 -23 53 -54v-574
c0 -31 -22 -54 -53 -54z" />
    <glyph glyph-name="Idotaccent" unicode="&#x130;" horiz-adv-x="272" 
d="M137 880c38 0 70 -30 70 -68s-32 -68 -70 -68c-39 0 -70 30 -70 68s31 68 70 68zM136 -11c-31 0 -53 23 -53 54v574c0 31 22 54 53 54s53 -23 53 -54v-574c0 -31 -22 -54 -53 -54z" />
    <glyph glyph-name="Igrave" unicode="&#xcc;" horiz-adv-x="272" 
d="M122 723c-13 0 -30 6 -42 23l-67 102c-25 36 0 82 39 84c18 1 39 -6 51 -28l58 -112c14 -27 -1 -67 -39 -69zM136 -11c-31 0 -53 23 -53 54v574c0 31 22 54 53 54s53 -23 53 -54v-574c0 -31 -22 -54 -53 -54z" />
    <glyph glyph-name="Imacron" unicode="&#x12a;" horiz-adv-x="272" 
d="M254 848c24 0 43 -18 43 -42s-19 -43 -43 -43h-233c-25 0 -44 19 -44 43s19 42 44 42h233zM136 -11c-31 0 -53 23 -53 54v574c0 31 22 54 53 54s53 -23 53 -54v-574c0 -31 -22 -54 -53 -54z" />
    <glyph glyph-name="Iogonek" unicode="&#x12e;" horiz-adv-x="272" 
d="M171 -110c20 0 34 -14 34 -36c0 -19 -11 -32 -32 -38c-14 -5 -36 -7 -57 -7c-68 0 -113 37 -113 98c0 51 31 81 82 122c-1 4 -2 9 -2 14v574c0 31 22 54 53 54s53 -23 53 -54v-574v-4v-3c0 -17 -9 -29 -24 -40c-28 -21 -63 -48 -63 -76c0 -17 14 -31 44 -31
c10 0 19 1 25 1z" />
    <glyph glyph-name="Itilde" unicode="&#x128;" horiz-adv-x="272" 
d="M-1 729c-26 0 -44 19 -44 47c0 66 43 114 101 114c23 0 48 -7 72 -22l33 -20c17 -10 29 -18 43 -18c18 0 27 10 30 28c3 22 19 36 41 36c26 0 44 -19 44 -46c0 -67 -43 -115 -102 -115c-22 0 -48 8 -72 22l-32 20c-18 10 -30 18 -44 18c-17 0 -27 -9 -29 -28
c-4 -22 -19 -36 -41 -36zM136 -11c-31 0 -53 23 -53 54v574c0 31 22 54 53 54s53 -23 53 -54v-574c0 -31 -22 -54 -53 -54z" />
    <glyph glyph-name="J" unicode="J" horiz-adv-x="381" 
d="M109 -11c-27 0 -47 2 -64 8c-20 7 -34 26 -34 47c0 27 22 48 51 48c20 0 35 -5 58 -5c45 0 72 31 72 81v449c0 31 22 54 53 54s53 -23 53 -54v-453c0 -114 -66 -175 -189 -175z" />
    <glyph glyph-name="Jcircumflex" unicode="&#x134;" horiz-adv-x="381" 
d="M374 795c14 -14 20 -22 20 -35c0 -22 -17 -39 -39 -39c-10 0 -20 4 -31 13l-93 87l-93 -87c-11 -9 -21 -13 -31 -13c-22 0 -39 17 -39 39c0 13 6 21 20 35l109 108c10 10 21 15 34 15s24 -5 34 -15zM245 671c31 0 53 -23 53 -54v-453c0 -114 -66 -175 -189 -175
c-27 0 -47 2 -64 8c-20 7 -34 26 -34 47c0 27 22 48 51 48c20 0 35 -5 58 -5c45 0 72 31 72 81v449c0 31 22 54 53 54z" />
    <glyph glyph-name="K" unicode="K" horiz-adv-x="651" 
d="M136 671c30 0 53 -23 53 -54v-574c0 -31 -23 -54 -53 -54s-53 23 -53 54v574c0 31 22 54 53 54zM587 73c12 -12 17 -22 17 -35c0 -27 -23 -49 -49 -49c-16 0 -30 7 -43 21l-283 306c-10 11 -16 23 -16 36c0 12 6 24 16 35l263 265c13 13 24 19 39 19c27 0 48 -21 48 -48
c0 -14 -5 -25 -18 -39l-231 -232z" />
    <glyph glyph-name="Kcommaaccent" unicode="&#x136;" horiz-adv-x="651" 
d="M136 671c30 0 53 -23 53 -54v-574c0 -31 -23 -54 -53 -54s-53 23 -53 54v574c0 31 22 54 53 54zM587 73c12 -12 17 -22 17 -35c0 -27 -23 -49 -49 -49c-16 0 -30 7 -43 21l-283 306c-10 11 -16 23 -16 36c0 12 6 24 16 35l263 265c13 13 24 19 39 19c27 0 48 -21 48 -48
c0 -14 -5 -25 -18 -39l-231 -232zM316 -44c29 0 53 -24 53 -53c0 -42 -15 -86 -28 -107c-13 -23 -29 -33 -45 -33c-24 0 -46 21 -46 44s13 42 13 96c0 29 24 53 53 53z" />
    <glyph glyph-name="L" unicode="L" horiz-adv-x="515" 
d="M138 0c-32 0 -55 23 -55 55v562c0 30 22 54 53 54s53 -23 53 -54v-522h259c28 0 48 -20 48 -47s-20 -48 -48 -48h-310z" />
    <glyph glyph-name="Lacute" unicode="&#x139;" horiz-adv-x="515" 
d="M151 723c-38 2 -53 42 -39 69l58 112c12 22 33 29 51 28c39 -2 64 -48 39 -84l-67 -102c-12 -17 -29 -23 -42 -23zM138 0c-32 0 -55 23 -55 55v562c0 30 22 54 53 54s53 -23 53 -54v-522h259c28 0 48 -20 48 -47s-20 -48 -48 -48h-310z" />
    <glyph glyph-name="Lcaron" unicode="&#x13d;" horiz-adv-x="515" 
d="M412 504c-27 0 -51 24 -46 58l19 129c3 26 25 49 54 49c31 0 63 -28 50 -72l-32 -129c-4 -13 -16 -35 -45 -35zM138 0c-32 0 -55 23 -55 55v562c0 30 22 54 53 54s53 -23 53 -54v-522h259c28 0 48 -20 48 -47s-20 -48 -48 -48h-310z" />
    <glyph glyph-name="Lcommaaccent" unicode="&#x13b;" horiz-adv-x="515" 
d="M138 0c-32 0 -55 23 -55 55v562c0 30 22 54 53 54s53 -23 53 -54v-522h259c28 0 48 -20 48 -47s-20 -48 -48 -48h-310zM258 -237c-24 0 -46 21 -46 44s13 42 13 96c0 29 24 53 53 53s53 -24 53 -53c0 -42 -15 -86 -28 -107c-13 -23 -29 -33 -45 -33z" />
    <glyph glyph-name="Ldot" unicode="&#x13f;" horiz-adv-x="515" 
d="M138 0c-32 0 -55 23 -55 55v562c0 30 22 54 53 54s53 -23 53 -54v-522h259c28 0 48 -20 48 -47s-20 -48 -48 -48h-310zM395 296c-44 0 -79 34 -79 77s35 78 79 78c43 0 77 -35 77 -78s-34 -77 -77 -77z" />
    <glyph glyph-name="Lslash" unicode="&#x141;" horiz-adv-x="515" 
d="M448 95c28 0 48 -20 48 -47s-20 -48 -48 -48h-310c-32 0 -55 23 -55 55v174l-13 -6c-32 -14 -68 5 -68 38c0 21 11 36 34 46l47 21v289c0 30 22 54 53 54s53 -23 53 -54v-248l148 68c33 14 68 -5 68 -38c0 -21 -11 -36 -34 -46l-182 -82v-176h259z" />
    <glyph glyph-name="M" unicode="M" horiz-adv-x="792" 
d="M658 671c29 0 51 -23 51 -54v-574c0 -31 -23 -54 -53 -54s-53 23 -53 54v402l-154 -242c-16 -25 -31 -35 -53 -35s-38 10 -53 35l-154 242v-402c0 -31 -23 -54 -53 -54s-53 23 -53 54v574c0 31 22 54 51 54c23 0 38 -10 58 -43l204 -320l204 320c20 33 35 43 58 43z" />
    <glyph glyph-name="N" unicode="N" horiz-adv-x="710" 
d="M574 671c30 0 53 -23 53 -54v-576c0 -29 -22 -52 -52 -52c-22 0 -36 12 -50 30l-336 443v-419c0 -31 -23 -54 -53 -54s-53 23 -53 54v576c0 29 23 52 52 52c24 0 36 -12 53 -35l334 -437l-1 418c0 31 23 54 53 54z" />
    <glyph glyph-name="Nacute" unicode="&#x143;" horiz-adv-x="710" 
d="M370 723c-38 2 -53 42 -39 69l58 112c12 22 33 29 51 28c39 -2 64 -48 39 -84l-67 -102c-12 -17 -29 -23 -42 -23zM574 671c30 0 53 -23 53 -54v-576c0 -29 -22 -52 -52 -52c-22 0 -36 12 -50 30l-336 443v-419c0 -31 -23 -54 -53 -54s-53 23 -53 54v576
c0 29 23 52 52 52c24 0 36 -12 53 -35l334 -437l-1 418c0 31 23 54 53 54z" />
    <glyph glyph-name="Ncaron" unicode="&#x147;" horiz-adv-x="710" 
d="M321 736l-109 108c-14 14 -20 22 -20 35c0 22 17 39 39 39c10 0 20 -4 31 -13l93 -87l93 87c11 9 21 13 31 13c22 0 39 -17 39 -39c0 -13 -6 -21 -20 -35l-109 -108c-10 -10 -21 -15 -34 -15s-24 5 -34 15zM574 671c30 0 53 -23 53 -54v-576c0 -29 -22 -52 -52 -52
c-22 0 -36 12 -50 30l-336 443v-419c0 -31 -23 -54 -53 -54s-53 23 -53 54v576c0 29 23 52 52 52c24 0 36 -12 53 -35l334 -437l-1 418c0 31 23 54 53 54z" />
    <glyph glyph-name="Ncommaaccent" unicode="&#x145;" horiz-adv-x="710" 
d="M574 671c30 0 53 -23 53 -54v-576c0 -29 -22 -52 -52 -52c-22 0 -36 12 -50 30l-336 443v-419c0 -31 -23 -54 -53 -54s-53 23 -53 54v576c0 29 23 52 52 52c24 0 36 -12 53 -35l334 -437l-1 418c0 31 23 54 53 54zM353 -44c29 0 53 -24 53 -53c0 -42 -15 -86 -28 -107
c-13 -23 -29 -33 -45 -33c-24 0 -46 21 -46 44s13 42 13 96c0 29 24 53 53 53z" />
    <glyph glyph-name="Eng" unicode="&#x14a;" horiz-adv-x="710" 
d="M574 671c30 0 53 -23 53 -54v-637c0 -111 -61 -171 -174 -171c-25 0 -40 2 -52 7c-18 8 -29 24 -29 43c0 28 21 49 50 49h14c58 0 85 25 85 79v37l-332 438v-419c0 -31 -23 -54 -53 -54s-53 23 -53 54v576c0 29 23 52 52 52c24 0 36 -12 53 -35l334 -437l-1 418
c0 31 23 54 53 54z" />
    <glyph glyph-name="Ntilde" unicode="&#xd1;" horiz-adv-x="710" 
d="M217 729c-26 0 -44 19 -44 47c0 66 43 114 101 114c23 0 48 -7 72 -22l33 -20c17 -10 29 -18 43 -18c18 0 27 10 30 28c3 22 19 36 41 36c26 0 44 -19 44 -46c0 -67 -43 -115 -102 -115c-22 0 -48 8 -72 22l-32 20c-18 10 -30 18 -44 18c-17 0 -27 -9 -29 -28
c-4 -22 -19 -36 -41 -36zM574 671c30 0 53 -23 53 -54v-576c0 -29 -22 -52 -52 -52c-22 0 -36 12 -50 30l-336 443v-419c0 -31 -23 -54 -53 -54s-53 23 -53 54v576c0 29 23 52 52 52c24 0 36 -12 53 -35l334 -437l-1 418c0 31 23 54 53 54z" />
    <glyph glyph-name="O" unicode="O" horiz-adv-x="780" 
d="M389 671c194 0 347 -151 347 -341c0 -191 -153 -341 -347 -341s-346 150 -346 341s152 341 346 341zM390 574c-137 0 -237 -103 -237 -243c0 -142 100 -245 237 -245c136 0 237 104 237 245c0 139 -101 243 -237 243z" />
    <glyph glyph-name="Oacute" unicode="&#xd3;" horiz-adv-x="780" 
d="M405 723c-38 2 -53 42 -39 69l58 112c12 22 33 29 51 28c39 -2 64 -48 39 -84l-67 -102c-12 -17 -29 -23 -42 -23zM389 671c194 0 347 -151 347 -341c0 -191 -153 -341 -347 -341s-346 150 -346 341s152 341 346 341zM390 574c-137 0 -237 -103 -237 -243
c0 -142 100 -245 237 -245c136 0 237 104 237 245c0 139 -101 243 -237 243z" />
    <glyph glyph-name="Obreve" unicode="&#x14e;" horiz-adv-x="780" 
d="M390 729c-83 0 -159 62 -159 133c0 24 18 43 42 43c19 0 32 -11 41 -35c12 -39 40 -61 76 -61c38 0 66 23 77 61c8 23 21 35 40 35c25 0 42 -19 42 -43c0 -70 -75 -133 -159 -133zM389 671c194 0 347 -151 347 -341c0 -191 -153 -341 -347 -341s-346 150 -346 341
s152 341 346 341zM390 574c-137 0 -237 -103 -237 -243c0 -142 100 -245 237 -245c136 0 237 104 237 245c0 139 -101 243 -237 243z" />
    <glyph glyph-name="Ocircumflex" unicode="&#xd4;" horiz-adv-x="780" 
d="M265 721c-22 0 -39 17 -39 39c0 13 6 21 20 35l109 108c10 10 21 15 34 15s24 -5 34 -15l109 -108c14 -14 20 -22 20 -35c0 -22 -17 -39 -39 -39c-10 0 -20 4 -31 13l-93 87l-93 -87c-11 -9 -21 -13 -31 -13zM389 671c194 0 347 -151 347 -341
c0 -191 -153 -341 -347 -341s-346 150 -346 341s152 341 346 341zM390 86c136 0 237 104 237 245c0 139 -101 243 -237 243c-137 0 -237 -103 -237 -243c0 -142 100 -245 237 -245z" />
    <glyph glyph-name="Odieresis" unicode="&#xd6;" horiz-adv-x="780" 
d="M267 747c-35 0 -68 30 -68 65c0 37 33 65 68 65c37 0 67 -28 67 -65c0 -35 -30 -65 -67 -65zM511 746c-34 0 -67 30 -67 65c0 37 33 66 67 66c38 0 68 -29 68 -66c0 -35 -30 -65 -68 -65zM389 671c194 0 347 -151 347 -341c0 -191 -153 -341 -347 -341s-346 150 -346 341
s152 341 346 341zM390 574c-137 0 -237 -103 -237 -243c0 -142 100 -245 237 -245c136 0 237 104 237 245c0 139 -101 243 -237 243z" />
    <glyph glyph-name="Ograve" unicode="&#xd2;" horiz-adv-x="780" 
d="M375 723c-13 0 -30 6 -42 23l-67 102c-25 36 0 82 39 84c18 1 39 -6 51 -28l58 -112c14 -27 -1 -67 -39 -69zM389 671c194 0 347 -151 347 -341c0 -191 -153 -341 -347 -341s-346 150 -346 341s152 341 346 341zM390 574c-137 0 -237 -103 -237 -243
c0 -142 100 -245 237 -245c136 0 237 104 237 245c0 139 -101 243 -237 243z" />
    <glyph glyph-name="Ohungarumlaut" unicode="&#x150;" horiz-adv-x="780" 
d="M300 723c-38 2 -53 42 -39 69l58 112c12 22 33 29 51 28c39 -2 64 -48 39 -84l-67 -102c-12 -17 -29 -23 -42 -23zM498 723c-38 2 -53 42 -39 69l58 112c12 22 33 29 51 28c39 -2 64 -48 39 -84l-67 -102c-12 -17 -29 -23 -42 -23zM389 671c194 0 347 -151 347 -341
c0 -191 -153 -341 -347 -341s-346 150 -346 341s152 341 346 341zM390 574c-137 0 -237 -103 -237 -243c0 -142 100 -245 237 -245c136 0 237 104 237 245c0 139 -101 243 -237 243z" />
    <glyph glyph-name="Omacron" unicode="&#x14c;" horiz-adv-x="780" 
d="M507 848c24 0 43 -18 43 -42s-19 -43 -43 -43h-233c-25 0 -44 19 -44 43s19 42 44 42h233zM389 671c194 0 347 -151 347 -341c0 -191 -153 -341 -347 -341s-346 150 -346 341s152 341 346 341zM390 574c-137 0 -237 -103 -237 -243c0 -142 100 -245 237 -245
c136 0 237 104 237 245c0 139 -101 243 -237 243z" />
    <glyph glyph-name="Oslash" unicode="&#xd8;" horiz-adv-x="781" 
d="M664 540c46 -57 73 -130 73 -210c0 -191 -153 -341 -347 -341c-79 0 -151 25 -209 67l-51 -51c-11 -11 -23 -16 -36 -16c-24 0 -44 20 -44 44c0 13 5 25 16 36l50 50c-45 58 -72 131 -72 211c0 191 152 341 346 341c79 0 151 -25 209 -68l52 52c11 11 24 16 36 16
c24 0 44 -20 44 -44c0 -12 -5 -25 -15 -35zM149 331c0 -53 14 -101 39 -140l343 344c-39 27 -87 43 -140 43c-139 0 -242 -105 -242 -247zM391 82c138 0 241 106 241 249c0 52 -14 99 -39 138l-343 -344c39 -27 87 -43 141 -43z" />
    <glyph glyph-name="Oslashacute" unicode="&#x1fe;" horiz-adv-x="781" 
d="M406 723c-38 2 -53 42 -39 69l58 112c12 22 33 29 51 28c39 -2 64 -48 39 -84l-67 -102c-12 -17 -29 -23 -42 -23zM664 540c46 -57 73 -130 73 -210c0 -191 -153 -341 -347 -341c-79 0 -151 25 -209 67l-51 -51c-11 -11 -23 -16 -36 -16c-24 0 -44 20 -44 44
c0 13 5 25 16 36l50 50c-45 58 -72 131 -72 211c0 191 152 341 346 341c79 0 151 -25 209 -68l52 52c11 11 24 16 36 16c24 0 44 -20 44 -44c0 -12 -5 -25 -15 -35zM149 331c0 -53 14 -101 39 -140l343 344c-39 27 -87 43 -140 43c-139 0 -242 -105 -242 -247zM391 82
c138 0 241 106 241 249c0 52 -14 99 -39 138l-343 -344c39 -27 87 -43 141 -43z" />
    <glyph glyph-name="Otilde" unicode="&#xd5;" horiz-adv-x="780" 
d="M252 729c-26 0 -44 19 -44 47c0 66 43 114 101 114c23 0 48 -7 72 -22l33 -20c17 -10 29 -18 43 -18c18 0 27 10 30 28c3 22 19 36 41 36c26 0 44 -19 44 -46c0 -67 -43 -115 -102 -115c-22 0 -48 8 -72 22l-32 20c-18 10 -30 18 -44 18c-17 0 -27 -9 -29 -28
c-4 -22 -19 -36 -41 -36zM389 671c194 0 347 -151 347 -341c0 -191 -153 -341 -347 -341s-346 150 -346 341s152 341 346 341zM390 574c-137 0 -237 -103 -237 -243c0 -142 100 -245 237 -245c136 0 237 104 237 245c0 139 -101 243 -237 243z" />
    <glyph glyph-name="OE" unicode="&#x152;" horiz-adv-x="1113" 
d="M1029 95c28 0 49 -20 49 -47s-21 -48 -49 -48h-351c-29 0 -51 22 -51 51v46c-53 -68 -140 -108 -240 -108c-193 0 -344 148 -344 341s151 341 345 341c99 0 186 -40 239 -107v45c0 29 22 51 51 51h339c28 0 49 -21 49 -48s-21 -47 -49 -47h-284v-169h205
c27 0 47 -20 47 -46s-20 -46 -47 -46h-205v-209h296zM388 86c137 0 239 103 239 244c0 140 -102 244 -239 244c-136 0 -235 -103 -235 -244s100 -244 235 -244z" />
    <glyph glyph-name="P" unicode="P" horiz-adv-x="583" 
d="M136 -11c-30 0 -53 23 -53 54v562c0 32 23 55 55 55h185c134 0 224 -81 224 -202c0 -120 -91 -203 -224 -203h-134v-212c0 -31 -23 -54 -53 -54zM189 349h133c72 0 116 41 116 108s-44 109 -116 109h-133v-217z" />
    <glyph glyph-name="Thorn" unicode="&#xde;" horiz-adv-x="583" 
d="M136 671c30 0 53 -23 53 -54v-67h134c134 0 224 -82 224 -205c0 -122 -90 -207 -224 -207h-134v-95c0 -31 -23 -54 -53 -54s-53 23 -53 54v574c0 31 22 54 53 54zM322 456h-133v-224h133c72 0 116 43 116 112s-44 112 -116 112z" />
    <glyph glyph-name="Q" unicode="Q" horiz-adv-x="780" 
d="M1009 -119c29 0 46 -16 46 -42c0 -20 -12 -35 -36 -41c-22 -7 -51 -10 -83 -10c-176 0 -325 77 -426 222c-38 -14 -78 -21 -121 -21c-194 0 -346 150 -346 341s152 341 346 341s347 -151 347 -341c0 -114 -54 -213 -139 -274c93 -121 206 -177 356 -177c22 0 43 2 56 2z
M153 331c0 -141 100 -245 237 -245c136 0 237 104 237 244s-101 244 -238 244c-136 0 -236 -103 -236 -243z" />
    <glyph glyph-name="R" unicode="R" horiz-adv-x="631" 
d="M576 77c11 -14 16 -27 16 -40c0 -27 -22 -48 -49 -48c-18 0 -34 9 -47 27l-173 239h-134v-212c0 -31 -23 -54 -53 -54s-53 23 -53 54v563c0 31 23 54 54 54h186c134 0 224 -81 224 -202c0 -84 -44 -150 -116 -182zM189 566v-217h132c73 0 117 42 117 108
s-45 109 -117 109h-132z" />
    <glyph glyph-name="Racute" unicode="&#x154;" horiz-adv-x="631" 
d="M283 723c-38 2 -53 42 -39 69l58 112c12 22 33 29 51 28c39 -2 64 -48 39 -84l-67 -102c-12 -17 -29 -23 -42 -23zM576 77c11 -14 16 -27 16 -40c0 -27 -22 -48 -49 -48c-18 0 -34 9 -47 27l-173 239h-134v-212c0 -31 -23 -54 -53 -54s-53 23 -53 54v563
c0 31 23 54 54 54h186c134 0 224 -81 224 -202c0 -84 -44 -150 -116 -182zM189 566v-217h132c73 0 117 42 117 108s-45 109 -117 109h-132z" />
    <glyph glyph-name="Rcaron" unicode="&#x158;" horiz-adv-x="631" 
d="M234 736l-109 108c-14 14 -20 22 -20 35c0 22 17 39 39 39c10 0 20 -4 31 -13l93 -87l93 87c11 9 21 13 31 13c22 0 39 -17 39 -39c0 -13 -6 -21 -20 -35l-109 -108c-10 -10 -21 -15 -34 -15s-24 5 -34 15zM576 77c11 -14 16 -27 16 -40c0 -27 -22 -48 -49 -48
c-18 0 -34 9 -47 27l-173 239h-134v-212c0 -31 -23 -54 -53 -54s-53 23 -53 54v563c0 31 23 54 54 54h186c134 0 224 -81 224 -202c0 -84 -44 -150 -116 -182zM189 566v-217h132c73 0 117 42 117 108s-45 109 -117 109h-132z" />
    <glyph glyph-name="Rcommaaccent" unicode="&#x156;" horiz-adv-x="631" 
d="M576 77c11 -14 16 -27 16 -40c0 -27 -22 -48 -49 -48c-18 0 -34 9 -47 27l-173 239h-134v-212c0 -31 -23 -54 -53 -54s-53 23 -53 54v563c0 31 23 54 54 54h186c134 0 224 -81 224 -202c0 -84 -44 -150 -116 -182zM189 566v-217h132c73 0 117 42 117 108
s-45 109 -117 109h-132zM307 -44c29 0 53 -24 53 -53c0 -42 -15 -86 -28 -107c-13 -23 -29 -33 -45 -33c-24 0 -46 21 -46 44s13 42 13 96c0 29 24 53 53 53z" />
    <glyph glyph-name="S" unicode="S" horiz-adv-x="559" 
d="M285 -11c-82 0 -168 39 -219 101c-10 11 -16 24 -16 37c0 28 23 48 49 48c12 0 23 -4 32 -14c36 -43 88 -77 153 -77c70 0 114 37 114 92c0 43 -24 65 -97 99l-73 34c-105 49 -154 104 -154 183c0 104 89 179 208 179c86 1 146 -36 184 -78c12 -13 16 -26 16 -38
c0 -25 -24 -47 -49 -47c-11 0 -22 5 -32 14c-32 32 -71 54 -119 54c-60 0 -100 -31 -100 -80c0 -41 20 -60 92 -94l74 -34c110 -51 158 -104 158 -188c0 -115 -93 -191 -221 -191z" />
    <glyph glyph-name="Sacute" unicode="&#x15a;" horiz-adv-x="559" 
d="M296 723c-38 2 -53 42 -39 69l58 112c12 22 33 29 51 28c39 -2 64 -48 39 -84l-67 -102c-12 -17 -29 -23 -42 -23zM285 -11c-82 0 -168 39 -219 101c-10 11 -16 24 -16 37c0 28 23 48 49 48c12 0 23 -4 32 -14c36 -43 88 -77 153 -77c70 0 114 37 114 92
c0 43 -24 65 -97 99l-73 34c-105 49 -154 104 -154 183c0 104 89 179 208 179c86 1 146 -36 184 -78c12 -13 16 -26 16 -38c0 -25 -24 -47 -49 -47c-11 0 -22 5 -32 14c-32 32 -71 54 -119 54c-60 0 -100 -31 -100 -80c0 -41 20 -60 92 -94l74 -34
c110 -51 158 -104 158 -188c0 -115 -93 -191 -221 -191z" />
    <glyph glyph-name="Scaron" unicode="&#x160;" horiz-adv-x="559" 
d="M247 736l-109 108c-14 14 -20 22 -20 35c0 22 17 39 39 39c10 0 20 -4 31 -13l93 -87l93 87c11 9 21 13 31 13c22 0 39 -17 39 -39c0 -13 -6 -21 -20 -35l-109 -108c-10 -10 -21 -15 -34 -15s-24 5 -34 15zM348 368c110 -51 158 -104 158 -188c0 -115 -93 -191 -221 -191
c-82 0 -168 39 -219 101c-10 11 -16 24 -16 37c0 28 23 48 49 48c12 0 23 -4 32 -14c36 -43 88 -77 153 -77c70 0 114 37 114 92c0 43 -24 65 -97 99l-73 34c-105 49 -154 104 -154 183c0 104 89 179 208 179c86 1 146 -36 184 -78c12 -13 16 -26 16 -38
c0 -25 -24 -47 -49 -47c-11 0 -22 5 -32 14c-32 32 -71 54 -119 54c-60 0 -100 -31 -100 -80c0 -41 20 -60 92 -94z" />
    <glyph glyph-name="Scedilla" unicode="&#x15e;" horiz-adv-x="559" 
d="M506 180c0 -92 -60 -159 -150 -182c13 -22 21 -46 21 -68c0 -73 -58 -121 -145 -121c-25 0 -43 1 -59 8c-18 7 -28 18 -28 36c0 21 17 38 38 38c13 0 20 -3 39 -3c34 0 64 16 64 48c0 23 -9 39 -20 54c-76 5 -153 43 -200 100c-10 11 -16 24 -16 37c0 28 23 48 49 48
c12 0 23 -4 32 -14c36 -43 88 -77 153 -77c70 0 114 37 114 92c0 43 -24 65 -97 99l-73 34c-105 49 -154 104 -154 183c0 104 89 179 208 179c86 1 146 -36 184 -78c12 -13 16 -26 16 -38c0 -25 -24 -47 -49 -47c-11 0 -22 5 -32 14c-32 32 -71 54 -119 54
c-60 0 -100 -31 -100 -80c0 -41 20 -60 92 -94l74 -34c110 -51 158 -104 158 -188z" />
    <glyph glyph-name="Scircumflex" unicode="&#x15c;" horiz-adv-x="559" 
d="M156 721c-22 0 -39 17 -39 39c0 13 6 21 20 35l109 108c10 10 21 15 34 15s24 -5 34 -15l109 -108c14 -14 20 -22 20 -35c0 -22 -17 -39 -39 -39c-10 0 -20 4 -31 13l-93 87l-93 -87c-11 -9 -21 -13 -31 -13zM348 368c110 -51 158 -104 158 -188
c0 -115 -93 -191 -221 -191c-82 0 -168 39 -219 101c-10 11 -16 24 -16 37c0 28 23 48 49 48c12 0 23 -4 32 -14c36 -43 88 -77 153 -77c70 0 114 37 114 92c0 43 -24 65 -97 99l-73 34c-105 49 -154 104 -154 183c0 104 89 179 208 179c86 1 146 -36 184 -78
c12 -13 16 -26 16 -38c0 -25 -24 -47 -49 -47c-11 0 -22 5 -32 14c-32 32 -71 54 -119 54c-60 0 -100 -31 -100 -80c0 -41 20 -60 92 -94z" />
    <glyph glyph-name="Scommaaccent" unicode="&#x218;" horiz-adv-x="559" 
d="M285 -11c-82 0 -168 39 -219 101c-10 11 -16 24 -16 37c0 28 23 48 49 48c12 0 23 -4 32 -14c36 -43 88 -77 153 -77c70 0 114 37 114 92c0 43 -24 65 -97 99l-73 34c-105 49 -154 104 -154 183c0 104 89 179 208 179c86 1 146 -36 184 -78c12 -13 16 -26 16 -38
c0 -25 -24 -47 -49 -47c-11 0 -22 5 -32 14c-32 32 -71 54 -119 54c-60 0 -100 -31 -100 -80c0 -41 20 -60 92 -94l74 -34c110 -51 158 -104 158 -188c0 -115 -93 -191 -221 -191zM267 -237c-24 0 -46 21 -46 44s13 42 13 96c0 29 24 53 53 53s53 -24 53 -53
c0 -42 -15 -86 -28 -107c-13 -23 -29 -33 -45 -33z" />
    <glyph glyph-name="uni1E9E" unicode="&#x1e9e;" horiz-adv-x="720" 
d="M496 416c104 -18 180 -104 180 -212c0 -123 -96 -215 -222 -215c-50 0 -95 14 -133 37c-31 20 -46 38 -46 59c0 27 20 47 47 47c18 0 27 -8 38 -16c28 -20 57 -30 89 -30c69 0 118 50 118 120c0 76 -57 122 -153 122c-28 0 -51 21 -51 49c0 11 5 21 14 32l116 156h-304
v-522c0 -31 -23 -54 -53 -54s-53 23 -53 54v562c0 32 23 55 55 55h446c26 0 47 -21 47 -47c0 -13 -5 -24 -18 -40z" />
    <glyph glyph-name="uni018F" unicode="&#x18f;" horiz-adv-x="732" 
d="M351 671c189 0 337 -149 337 -339c0 -192 -151 -343 -341 -343c-175 0 -304 126 -304 297c0 6 0 16 2 28c2 29 22 51 49 51h484c-14 122 -106 209 -227 209c-72 0 -139 -31 -184 -85c-16 -19 -28 -26 -45 -26c-27 0 -47 20 -47 47c0 12 5 23 18 38c65 80 156 123 258 123
zM350 86c113 0 201 76 224 186h-427c1 -108 84 -186 203 -186z" />
    <glyph glyph-name="T" unicode="T" horiz-adv-x="583" 
d="M291 -11c-30 0 -53 23 -53 54v522h-178c-28 0 -49 20 -49 47s21 48 49 48h463c28 0 49 -21 49 -48s-21 -47 -49 -47h-179v-522c0 -31 -23 -54 -53 -54z" />
    <glyph glyph-name="Tbar" unicode="&#x166;" horiz-adv-x="583" 
d="M291 -11c-30 0 -53 23 -53 54v201h-146c-26 0 -45 20 -45 45s19 44 45 44h146v232h-178c-28 0 -49 20 -49 47s21 48 49 48h463c28 0 49 -21 49 -48s-21 -47 -49 -47h-179v-232h147c26 0 45 -19 45 -44s-19 -45 -45 -45h-147v-201c0 -31 -23 -54 -53 -54z" />
    <glyph glyph-name="Tcaron" unicode="&#x164;" horiz-adv-x="583" 
d="M258 736l-109 108c-14 14 -20 22 -20 35c0 22 17 39 39 39c10 0 20 -4 31 -13l93 -87l93 87c11 9 21 13 31 13c22 0 39 -17 39 -39c0 -13 -6 -21 -20 -35l-109 -108c-10 -10 -21 -15 -34 -15s-24 5 -34 15zM523 660c28 0 49 -21 49 -48s-21 -47 -49 -47h-179v-522
c0 -31 -23 -54 -53 -54s-53 23 -53 54v522h-178c-28 0 -49 20 -49 47s21 48 49 48h463z" />
    <glyph glyph-name="uni0162" unicode="&#x162;" horiz-adv-x="583" 
d="M523 660c28 0 49 -21 49 -48s-21 -47 -49 -47h-179v-511c37 -23 72 -79 72 -124c0 -73 -58 -121 -145 -121c-25 0 -43 1 -59 8c-18 7 -28 18 -28 36c0 21 17 38 38 38c13 0 20 -3 39 -3c34 0 64 16 64 48c0 24 -10 40 -20 55c-5 -1 -9 -2 -14 -2c-30 0 -53 23 -53 54v522
h-178c-28 0 -49 20 -49 47s21 48 49 48h463z" />
    <glyph glyph-name="U" unicode="U" horiz-adv-x="694" 
d="M348 -11c-165 0 -272 110 -272 278v350c0 31 23 54 53 54c31 0 53 -23 53 -54v-357c0 -107 64 -174 166 -174c101 0 164 67 164 174v357c0 31 22 54 53 54c30 0 53 -23 53 -54v-350c0 -168 -108 -278 -270 -278z" />
    <glyph glyph-name="Uacute" unicode="&#xda;" horiz-adv-x="694" 
d="M362 723c-38 2 -53 42 -39 69l58 112c12 22 33 29 51 28c39 -2 64 -48 39 -84l-67 -102c-12 -17 -29 -23 -42 -23zM348 -11c-165 0 -272 110 -272 278v350c0 31 23 54 53 54c31 0 53 -23 53 -54v-357c0 -107 64 -174 166 -174c101 0 164 67 164 174v357c0 31 22 54 53 54
c30 0 53 -23 53 -54v-350c0 -168 -108 -278 -270 -278z" />
    <glyph glyph-name="Ubreve" unicode="&#x16c;" horiz-adv-x="694" 
d="M347 729c-83 0 -159 62 -159 133c0 24 18 43 42 43c19 0 32 -11 41 -35c12 -39 40 -61 76 -61c38 0 66 23 77 61c8 23 21 35 40 35c25 0 42 -19 42 -43c0 -70 -75 -133 -159 -133zM348 -11c-165 0 -272 110 -272 278v350c0 31 23 54 53 54c31 0 53 -23 53 -54v-357
c0 -107 64 -174 166 -174c101 0 164 67 164 174v357c0 31 22 54 53 54c30 0 53 -23 53 -54v-350c0 -168 -108 -278 -270 -278z" />
    <glyph glyph-name="Ucircumflex" unicode="&#xdb;" horiz-adv-x="694" 
d="M222 721c-22 0 -39 17 -39 39c0 13 6 21 20 35l109 108c10 10 21 15 34 15s24 -5 34 -15l109 -108c14 -14 20 -22 20 -35c0 -22 -17 -39 -39 -39c-10 0 -20 4 -31 13l-93 87l-93 -87c-11 -9 -21 -13 -31 -13zM565 671c30 0 53 -23 53 -54v-350
c0 -168 -108 -278 -270 -278c-165 0 -272 110 -272 278v350c0 31 23 54 53 54c31 0 53 -23 53 -54v-357c0 -107 64 -174 166 -174c101 0 164 67 164 174v357c0 31 22 54 53 54z" />
    <glyph glyph-name="Udieresis" unicode="&#xdc;" horiz-adv-x="694" 
d="M224 747c-35 0 -68 30 -68 65c0 37 33 65 68 65c37 0 67 -28 67 -65c0 -35 -30 -65 -67 -65zM468 746c-34 0 -67 30 -67 65c0 37 33 66 67 66c38 0 68 -29 68 -66c0 -35 -30 -65 -68 -65zM348 -11c-165 0 -272 110 -272 278v350c0 31 23 54 53 54c31 0 53 -23 53 -54
v-357c0 -107 64 -174 166 -174c101 0 164 67 164 174v357c0 31 22 54 53 54c30 0 53 -23 53 -54v-350c0 -168 -108 -278 -270 -278z" />
    <glyph glyph-name="Ugrave" unicode="&#xd9;" horiz-adv-x="694" 
d="M332 723c-13 0 -30 6 -42 23l-67 102c-25 36 0 82 39 84c18 1 39 -6 51 -28l58 -112c14 -27 -1 -67 -39 -69zM348 -11c-165 0 -272 110 -272 278v350c0 31 23 54 53 54c31 0 53 -23 53 -54v-357c0 -107 64 -174 166 -174c101 0 164 67 164 174v357c0 31 22 54 53 54
c30 0 53 -23 53 -54v-350c0 -168 -108 -278 -270 -278z" />
    <glyph glyph-name="Uhungarumlaut" unicode="&#x170;" horiz-adv-x="694" 
d="M257 723c-38 2 -53 42 -39 69l58 112c12 22 33 29 51 28c39 -2 64 -48 39 -84l-67 -102c-12 -17 -29 -23 -42 -23zM455 723c-38 2 -53 42 -39 69l58 112c12 22 33 29 51 28c39 -2 64 -48 39 -84l-67 -102c-12 -17 -29 -23 -42 -23zM348 -11c-165 0 -272 110 -272 278v350
c0 31 23 54 53 54c31 0 53 -23 53 -54v-357c0 -107 64 -174 166 -174c101 0 164 67 164 174v357c0 31 22 54 53 54c30 0 53 -23 53 -54v-350c0 -168 -108 -278 -270 -278z" />
    <glyph glyph-name="Umacron" unicode="&#x16a;" horiz-adv-x="694" 
d="M464 848c24 0 43 -18 43 -42s-19 -43 -43 -43h-233c-25 0 -44 19 -44 43s19 42 44 42h233zM348 -11c-165 0 -272 110 -272 278v350c0 31 23 54 53 54c31 0 53 -23 53 -54v-357c0 -107 64 -174 166 -174c101 0 164 67 164 174v357c0 31 22 54 53 54c30 0 53 -23 53 -54
v-350c0 -168 -108 -278 -270 -278z" />
    <glyph glyph-name="Uogonek" unicode="&#x172;" horiz-adv-x="694" 
d="M432 -191c-68 0 -114 36 -114 91c0 30 24 66 60 93c-13 -3 -26 -4 -36 -4c-158 0 -266 112 -266 278v350c0 31 23 54 53 54c31 0 53 -23 53 -54v-357c0 -107 64 -174 166 -174c101 0 164 67 164 174v357c0 31 22 54 53 54c30 0 53 -23 53 -54v-350
c0 -88 -32 -166 -91 -218l-35 -31c-39 -35 -70 -63 -71 -97c-1 -22 14 -33 41 -33c8 0 19 2 25 2c19 0 33 -15 33 -35c0 -19 -10 -32 -29 -38c-15 -5 -37 -8 -59 -8z" />
    <glyph glyph-name="Uring" unicode="&#x16e;" horiz-adv-x="694" 
d="M346 917c68 0 119 -50 119 -115c0 -66 -51 -115 -119 -115c-67 0 -118 50 -118 115s52 115 118 115zM347 848c-26 0 -46 -19 -46 -46c0 -26 20 -46 46 -46s45 20 45 46s-19 46 -45 46zM348 -11c-165 0 -272 110 -272 278v350c0 31 23 54 53 54c31 0 53 -23 53 -54v-357
c0 -107 64 -174 166 -174c101 0 164 67 164 174v357c0 31 22 54 53 54c30 0 53 -23 53 -54v-350c0 -168 -108 -278 -270 -278z" />
    <glyph glyph-name="Utilde" unicode="&#x168;" horiz-adv-x="694" 
d="M209 729c-26 0 -44 19 -44 47c0 66 43 114 101 114c23 0 48 -7 72 -22l33 -20c17 -10 29 -18 43 -18c18 0 27 10 30 28c3 22 19 36 41 36c26 0 44 -19 44 -46c0 -67 -43 -115 -102 -115c-22 0 -48 8 -72 22l-32 20c-18 10 -30 18 -44 18c-17 0 -27 -9 -29 -28
c-4 -22 -19 -36 -41 -36zM348 -11c-165 0 -272 110 -272 278v350c0 31 23 54 53 54c31 0 53 -23 53 -54v-357c0 -107 64 -174 166 -174c101 0 164 67 164 174v357c0 31 22 54 53 54c30 0 53 -23 53 -54v-350c0 -168 -108 -278 -270 -278z" />
    <glyph glyph-name="V" unicode="V" horiz-adv-x="663" 
d="M577 671c29 0 52 -23 52 -51c0 -9 -3 -19 -8 -30l-239 -565c-10 -24 -27 -36 -51 -36c-23 0 -40 12 -50 36l-239 565c-6 11 -8 21 -8 30c0 28 23 51 52 51c24 0 41 -13 50 -37l196 -479l195 479c10 24 26 37 50 37z" />
    <glyph glyph-name="W" unicode="W" horiz-adv-x="1051" 
d="M952 671c30 0 53 -23 53 -52c0 -8 -2 -17 -7 -30l-208 -565c-8 -22 -26 -35 -49 -35c-24 0 -42 13 -50 35l-165 465l-165 -465c-8 -22 -26 -35 -50 -35c-23 0 -41 13 -50 35l-208 565c-5 13 -6 22 -6 30c0 29 22 52 53 52c23 0 42 -13 49 -34l164 -460l162 456
c8 24 27 38 51 38s43 -14 51 -38l162 -456l163 459c8 21 26 35 50 35z" />
    <glyph glyph-name="Wacute" unicode="&#x1e82;" horiz-adv-x="1051" 
d="M541 723c-38 2 -53 42 -39 69l58 112c12 22 33 29 51 28c39 -2 64 -48 39 -84l-67 -102c-12 -17 -29 -23 -42 -23zM952 671c30 0 53 -23 53 -52c0 -8 -2 -17 -7 -30l-208 -565c-8 -22 -26 -35 -49 -35c-24 0 -42 13 -50 35l-165 465l-165 -465c-8 -22 -26 -35 -50 -35
c-23 0 -41 13 -50 35l-208 565c-5 13 -6 22 -6 30c0 29 22 52 53 52c23 0 42 -13 49 -34l164 -460l162 456c8 24 27 38 51 38s43 -14 51 -38l162 -456l163 459c8 21 26 35 50 35z" />
    <glyph glyph-name="Wcircumflex" unicode="&#x174;" horiz-adv-x="1051" 
d="M401 721c-22 0 -39 17 -39 39c0 13 6 21 20 35l109 108c10 10 21 15 34 15s24 -5 34 -15l109 -108c14 -14 20 -22 20 -35c0 -22 -17 -39 -39 -39c-10 0 -20 4 -31 13l-93 87l-93 -87c-11 -9 -21 -13 -31 -13zM952 671c30 0 53 -23 53 -52c0 -8 -2 -17 -7 -30l-208 -565
c-8 -22 -26 -35 -49 -35c-24 0 -42 13 -50 35l-165 465l-165 -465c-8 -22 -26 -35 -50 -35c-23 0 -41 13 -50 35l-208 565c-5 13 -6 22 -6 30c0 29 22 52 53 52c23 0 42 -13 49 -34l164 -460l162 456c8 24 27 38 51 38s43 -14 51 -38l162 -456l163 459c8 21 26 35 50 35z
" />
    <glyph glyph-name="Wdieresis" unicode="&#x1e84;" horiz-adv-x="1051" 
d="M403 747c-35 0 -68 30 -68 65c0 37 33 65 68 65c37 0 67 -28 67 -65c0 -35 -30 -65 -67 -65zM647 746c-34 0 -67 30 -67 65c0 37 33 66 67 66c38 0 68 -29 68 -66c0 -35 -30 -65 -68 -65zM952 671c30 0 53 -23 53 -52c0 -8 -2 -17 -7 -30l-208 -565
c-8 -22 -26 -35 -49 -35c-24 0 -42 13 -50 35l-165 465l-165 -465c-8 -22 -26 -35 -50 -35c-23 0 -41 13 -50 35l-208 565c-5 13 -6 22 -6 30c0 29 22 52 53 52c23 0 42 -13 49 -34l164 -460l162 456c8 24 27 38 51 38s43 -14 51 -38l162 -456l163 459c8 21 26 35 50 35z
" />
    <glyph glyph-name="Wgrave" unicode="&#x1e80;" horiz-adv-x="1051" 
d="M469 746l-67 102c-25 36 0 82 39 84c18 1 39 -6 51 -28l58 -112c14 -27 -1 -67 -39 -69c-13 0 -30 6 -42 23zM952 671c30 0 53 -23 53 -52c0 -8 -2 -17 -7 -30l-208 -565c-8 -22 -26 -35 -49 -35c-24 0 -42 13 -50 35l-165 465l-165 -465c-8 -22 -26 -35 -50 -35
c-23 0 -41 13 -50 35l-208 565c-5 13 -6 22 -6 30c0 29 22 52 53 52c23 0 42 -13 49 -34l164 -460l162 456c8 24 27 38 51 38s43 -14 51 -38l162 -456l163 459c8 21 26 35 50 35z" />
    <glyph glyph-name="X" unicode="X" horiz-adv-x="606" 
d="M551 77c10 -15 14 -26 14 -37c0 -28 -23 -51 -52 -51c-17 0 -32 8 -42 22l-168 238l-168 -238c-9 -14 -24 -22 -42 -22c-29 0 -52 23 -52 51c0 12 4 24 15 38l185 260l-170 244c-10 14 -15 27 -15 39c0 28 23 50 52 50c18 0 32 -7 43 -22l152 -223l155 223
c10 14 25 22 43 22c29 0 51 -22 51 -50c0 -13 -4 -25 -15 -40l-171 -243z" />
    <glyph glyph-name="Y" unicode="Y" horiz-adv-x="621" 
d="M578 620c0 -12 -3 -23 -12 -37l-203 -330v-210c0 -31 -23 -54 -53 -54s-53 23 -53 54v212l-202 328c-9 15 -12 27 -12 38c0 29 23 50 52 50c24 0 38 -9 51 -31l164 -278l165 278c13 21 28 31 51 31c30 0 52 -22 52 -51z" />
    <glyph glyph-name="Yacute" unicode="&#xdd;" horiz-adv-x="621" 
d="M323 723c-38 2 -53 42 -39 69l58 112c12 22 33 29 51 28c39 -2 64 -48 39 -84l-67 -102c-12 -17 -29 -23 -42 -23zM578 620c0 -12 -3 -23 -12 -37l-203 -330v-210c0 -31 -23 -54 -53 -54s-53 23 -53 54v212l-202 328c-9 15 -12 27 -12 38c0 29 23 50 52 50
c24 0 38 -9 51 -31l164 -278l165 278c13 21 28 31 51 31c30 0 52 -22 52 -51z" />
    <glyph glyph-name="Ycircumflex" unicode="&#x176;" horiz-adv-x="621" 
d="M183 721c-22 0 -39 17 -39 39c0 13 6 21 20 35l109 108c10 10 21 15 34 15s24 -5 34 -15l109 -108c14 -14 20 -22 20 -35c0 -22 -17 -39 -39 -39c-10 0 -20 4 -31 13l-93 87l-93 -87c-11 -9 -21 -13 -31 -13zM578 620c0 -12 -3 -23 -12 -37l-203 -330v-210
c0 -31 -23 -54 -53 -54s-53 23 -53 54v212l-202 328c-9 15 -12 27 -12 38c0 29 23 50 52 50c24 0 38 -9 51 -31l164 -278l165 278c13 21 28 31 51 31c30 0 52 -22 52 -51z" />
    <glyph glyph-name="Ydieresis" unicode="&#x178;" horiz-adv-x="621" 
d="M185 747c-35 0 -68 30 -68 65c0 37 33 65 68 65c37 0 67 -28 67 -65c0 -35 -30 -65 -67 -65zM429 746c-34 0 -67 30 -67 65c0 37 33 66 67 66c38 0 68 -29 68 -66c0 -35 -30 -65 -68 -65zM578 620c0 -12 -3 -23 -12 -37l-203 -330v-210c0 -31 -23 -54 -53 -54
s-53 23 -53 54v212l-202 328c-9 15 -12 27 -12 38c0 29 23 50 52 50c24 0 38 -9 51 -31l164 -278l165 278c13 21 28 31 51 31c30 0 52 -22 52 -51z" />
    <glyph glyph-name="Ygrave" unicode="&#x1ef2;" horiz-adv-x="621" 
d="M251 746l-67 102c-25 36 0 82 39 84c18 1 39 -6 51 -28l58 -112c14 -27 -1 -67 -39 -69c-13 0 -30 6 -42 23zM578 620c0 -12 -3 -23 -12 -37l-203 -330v-210c0 -31 -23 -54 -53 -54s-53 23 -53 54v212l-202 328c-9 15 -12 27 -12 38c0 29 23 50 52 50c24 0 38 -9 51 -31
l164 -278l165 278c13 21 28 31 51 31c30 0 52 -22 52 -51z" />
    <glyph glyph-name="Z" unicode="Z" horiz-adv-x="588" 
d="M514 95c28 0 49 -20 49 -47s-21 -48 -49 -48h-438c-28 0 -50 21 -50 48c0 10 5 20 16 35l369 482h-298c-28 0 -49 20 -49 47s21 48 49 48h395c27 0 49 -21 49 -48c0 -10 -5 -21 -15 -34l-369 -483h341z" />
    <glyph glyph-name="Zacute" unicode="&#x179;" horiz-adv-x="588" 
d="M315 723c-38 2 -53 42 -39 69l58 112c12 22 33 29 51 28c39 -2 64 -48 39 -84l-67 -102c-12 -17 -29 -23 -42 -23zM514 95c28 0 49 -20 49 -47s-21 -48 -49 -48h-438c-28 0 -50 21 -50 48c0 10 5 20 16 35l369 482h-298c-28 0 -49 20 -49 47s21 48 49 48h395
c27 0 49 -21 49 -48c0 -10 -5 -21 -15 -34l-369 -483h341z" />
    <glyph glyph-name="Zcaron" unicode="&#x17d;" horiz-adv-x="588" 
d="M266 736l-109 108c-14 14 -20 22 -20 35c0 22 17 39 39 39c10 0 20 -4 31 -13l93 -87l93 87c11 9 21 13 31 13c22 0 39 -17 39 -39c0 -13 -6 -21 -20 -35l-109 -108c-10 -10 -21 -15 -34 -15s-24 5 -34 15zM514 95c28 0 49 -20 49 -47s-21 -48 -49 -48h-438
c-28 0 -50 21 -50 48c0 10 5 20 16 35l369 482h-298c-28 0 -49 20 -49 47s21 48 49 48h395c27 0 49 -21 49 -48c0 -10 -5 -21 -15 -34l-369 -483h341z" />
    <glyph glyph-name="Zdotaccent" unicode="&#x17b;" horiz-adv-x="588" 
d="M300 744c-39 0 -70 30 -70 68s31 68 70 68c38 0 70 -30 70 -68s-32 -68 -70 -68zM514 95c28 0 49 -20 49 -47s-21 -48 -49 -48h-438c-28 0 -50 21 -50 48c0 10 5 20 16 35l369 482h-298c-28 0 -49 20 -49 47s21 48 49 48h395c27 0 49 -21 49 -48c0 -10 -5 -21 -15 -34
l-369 -483h341z" />
    <glyph glyph-name="uni021A" unicode="&#x21a;" horiz-adv-x="583" 
d="M291 -11c-30 0 -53 23 -53 54v522h-178c-28 0 -49 20 -49 47s21 48 49 48h463c28 0 49 -21 49 -48s-21 -47 -49 -47h-179v-522c0 -31 -23 -54 -53 -54zM269 -237c-24 0 -46 21 -46 44s13 42 13 96c0 29 24 53 53 53s53 -24 53 -53c0 -42 -15 -86 -28 -107
c-13 -23 -29 -33 -45 -33z" />
    <glyph glyph-name="Iacute_J.loclNLD" horiz-adv-x="653" 
d="M152 723c-38 2 -53 42 -39 69l58 112c12 22 33 29 51 28c39 -2 64 -48 39 -84l-67 -102c-12 -17 -29 -23 -42 -23zM519 723c-38 2 -53 42 -39 69l58 112c12 22 33 29 51 28c39 -2 64 -48 39 -84l-67 -102c-12 -17 -29 -23 -42 -23zM136 -11c-31 0 -53 23 -53 54v574
c0 31 22 54 53 54s53 -23 53 -54v-574c0 -31 -22 -54 -53 -54zM381 -11c-27 0 -47 2 -64 8c-20 7 -34 26 -34 47c0 27 22 48 51 48c20 0 35 -5 58 -5c45 0 72 31 72 81v449c0 31 22 54 53 54s53 -23 53 -54v-453c0 -114 -66 -175 -189 -175z" />
    <glyph glyph-name="Cacute.loclPLK" horiz-adv-x="717" 
d="M394 721c-29 0 -53 29 -44 64l31 110c9 33 34 42 52 42c34 0 66 -35 47 -79l-41 -104c-9 -21 -25 -33 -45 -33zM390 -11c-195 0 -347 149 -347 341s152 341 347 341c102 0 197 -43 257 -115c12 -16 17 -28 17 -42c0 -26 -22 -48 -49 -48c-16 0 -30 7 -42 21
c-48 58 -109 87 -182 87c-137 0 -238 -104 -238 -244s101 -244 238 -244c72 0 133 30 181 87c12 14 26 21 43 21c27 0 49 -22 49 -48c0 -13 -5 -25 -18 -42c-58 -72 -153 -115 -256 -115z" />
    <glyph glyph-name="Nacute.loclPLK" horiz-adv-x="710" 
d="M359 718c-29 0 -53 29 -44 64l31 110c9 33 34 42 52 42c34 0 66 -35 47 -79l-41 -104c-9 -21 -25 -33 -45 -33zM574 671c30 0 53 -23 53 -54v-576c0 -29 -22 -52 -52 -52c-22 0 -36 12 -50 30l-336 443v-419c0 -31 -23 -54 -53 -54s-53 23 -53 54v576c0 29 23 52 52 52
c24 0 36 -12 53 -35l334 -437l-1 418c0 31 23 54 53 54z" />
    <glyph glyph-name="Oacute.loclPLK" horiz-adv-x="780" 
d="M394 718c-29 0 -53 29 -44 64l31 110c9 33 34 42 52 42c34 0 66 -35 47 -79l-41 -104c-9 -21 -25 -33 -45 -33zM389 671c194 0 347 -151 347 -341c0 -191 -153 -341 -347 -341s-346 150 -346 341s152 341 346 341zM390 574c-137 0 -237 -103 -237 -243
c0 -142 100 -245 237 -245c136 0 237 104 237 245c0 139 -101 243 -237 243z" />
    <glyph glyph-name="Sacute.loclPLK" horiz-adv-x="559" 
d="M285 718c-29 0 -53 29 -44 64l31 110c9 33 34 42 52 42c34 0 66 -35 47 -79l-41 -104c-9 -21 -25 -33 -45 -33zM285 -11c-82 0 -168 39 -219 101c-10 11 -16 24 -16 37c0 28 23 48 49 48c12 0 23 -4 32 -14c36 -43 88 -77 153 -77c70 0 114 37 114 92c0 43 -24 65 -97 99
l-73 34c-105 49 -154 104 -154 183c0 104 89 179 208 179c86 1 146 -36 184 -78c12 -13 16 -26 16 -38c0 -25 -24 -47 -49 -47c-11 0 -22 5 -32 14c-32 32 -71 54 -119 54c-60 0 -100 -31 -100 -80c0 -41 20 -60 92 -94l74 -34c110 -51 158 -104 158 -188
c0 -115 -93 -191 -221 -191z" />
    <glyph glyph-name="Zacute.loclPLK" horiz-adv-x="588" 
d="M304 718c-29 0 -53 29 -44 64l31 110c9 33 34 42 52 42c34 0 66 -35 47 -79l-41 -104c-9 -21 -25 -33 -45 -33zM514 95c28 0 49 -20 49 -47s-21 -48 -49 -48h-438c-28 0 -50 21 -50 48c0 10 5 20 16 35l369 482h-298c-28 0 -49 20 -49 47s21 48 49 48h395
c27 0 49 -21 49 -48c0 -10 -5 -21 -15 -34l-369 -483h341z" />
    <glyph glyph-name="Idotaccent.loclTRK" horiz-adv-x="272" 
d="M137 880c38 0 70 -30 70 -68s-32 -68 -70 -68c-39 0 -70 30 -70 68s31 68 70 68zM136 -11c-31 0 -53 23 -53 54v574c0 31 22 54 53 54s53 -23 53 -54v-574c0 -31 -22 -54 -53 -54z" />
    <glyph glyph-name="A.ordn" horiz-adv-x="432" 
d="M404 300c4 -8 5 -14 5 -20c0 -24 -20 -43 -44 -43c-18 0 -34 10 -41 29l-18 45h-180l-18 -45c-8 -19 -23 -29 -42 -29c-24 0 -43 19 -43 43c0 6 1 12 5 20l146 338c8 19 23 30 42 30c18 0 34 -11 42 -31zM216 544l-64 -168h128z" />
    <glyph glyph-name="C.ordn" horiz-adv-x="468" 
d="M252 237c-124 0 -219 94 -219 215s96 215 219 215c68 0 131 -29 165 -75c9 -14 12 -22 12 -31c0 -22 -18 -40 -40 -40c-14 0 -25 10 -36 22c-27 30 -60 45 -101 45c-77 0 -132 -57 -132 -136c0 -80 55 -136 132 -136c39 0 72 15 101 45c11 12 22 22 36 22
c22 0 40 -18 40 -40c0 -9 -3 -17 -12 -29c-39 -49 -99 -77 -165 -77z" />
    <glyph glyph-name="D.ordn" horiz-adv-x="457" 
d="M198 660c135 0 226 -84 226 -207c0 -122 -93 -209 -226 -209h-90c-26 0 -46 20 -46 46v324c0 26 20 46 46 46h90zM198 582h-51v-261h51c83 0 138 53 138 132c0 80 -53 129 -138 129z" />
    <glyph glyph-name="E.ordn" horiz-adv-x="378" 
d="M305 660c23 0 40 -16 40 -38c0 -23 -17 -39 -40 -39h-157v-86h118c20 0 35 -15 35 -34c0 -20 -15 -34 -35 -34h-118v-108h165c23 0 40 -16 40 -39c0 -22 -17 -38 -40 -38h-206c-26 0 -45 19 -45 45v326c0 26 19 45 45 45h198z" />
    <glyph glyph-name="Egrave.ordn" horiz-adv-x="378" 
d="M206 698c-11 0 -21 5 -29 16l-44 55c-6 7 -10 16 -10 26c0 23 19 41 40 41c12 0 26 -5 34 -20l38 -62c4 -6 6 -13 6 -20c0 -19 -14 -36 -35 -36zM305 660c23 0 40 -16 40 -38c0 -23 -17 -39 -40 -39h-157v-86h118c20 0 35 -15 35 -34c0 -20 -15 -34 -35 -34h-118v-108
h165c23 0 40 -16 40 -39c0 -22 -17 -38 -40 -38h-206c-26 0 -45 19 -45 45v326c0 26 19 45 45 45h198z" />
    <glyph glyph-name="G.ordn" horiz-adv-x="487" 
d="M253 237c-125 0 -220 94 -220 215s96 215 221 215c65 0 122 -25 156 -67c10 -12 14 -22 14 -33c0 -22 -18 -40 -40 -40c-12 0 -22 7 -31 16c-27 30 -60 45 -101 45c-78 0 -132 -55 -132 -136c0 -82 56 -139 137 -139c45 0 85 19 110 52v34h-88c-19 0 -35 15 -35 35
s16 34 35 34h129c25 0 44 -19 44 -44v-43c0 -21 -6 -40 -19 -58c-36 -52 -108 -86 -180 -86z" />
    <glyph glyph-name="H.ordn" horiz-adv-x="477" 
d="M372 667c24 0 43 -18 43 -43v-344c0 -25 -19 -43 -43 -43c-25 0 -43 18 -43 43v144h-182v-144c0 -25 -17 -43 -42 -43s-43 18 -43 43v344c0 25 19 43 43 43s42 -18 42 -43v-123h182v123c0 25 18 43 43 43z" />
    <glyph glyph-name="I.ordn" horiz-adv-x="209" 
d="M104 667c24 0 43 -18 43 -43v-344c0 -25 -19 -43 -43 -43s-42 18 -42 43v344c0 25 18 43 42 43z" />
    <glyph glyph-name="L.ordn" horiz-adv-x="342" 
d="M105 667c25 0 42 -18 42 -43v-303h149c23 0 40 -16 40 -39c0 -22 -17 -38 -40 -38h-189c-26 0 -45 19 -45 45v335c0 25 18 43 43 43z" />
    <glyph glyph-name="M.ordn" horiz-adv-x="529" 
d="M425 667c24 0 42 -19 42 -43v-345c0 -24 -17 -42 -42 -42s-43 18 -43 42v209l-83 -130c-9 -13 -21 -20 -34 -20c-14 0 -27 8 -35 20l-83 130v-209c0 -24 -17 -42 -42 -42s-43 18 -43 42v346c0 24 19 42 43 42c14 0 26 -7 35 -21l124 -190l122 186c12 17 24 25 39 25z" />
    <glyph glyph-name="N.ordn" horiz-adv-x="477" 
d="M371 667c25 0 44 -18 44 -44v-343c0 -25 -19 -43 -43 -43c-15 0 -27 8 -40 25l-185 240v-222c0 -25 -17 -43 -42 -43s-43 18 -43 43v345c0 24 19 42 43 42c14 0 25 -9 40 -26l184 -234v216c0 26 18 44 42 44z" />
    <glyph glyph-name="O.ordn" horiz-adv-x="506" 
d="M252 667c124 0 221 -95 221 -215s-97 -215 -221 -215c-123 0 -219 94 -219 215s96 215 219 215zM253 588c-78 0 -133 -56 -133 -136s55 -136 133 -136c77 0 133 57 133 136s-56 136 -133 136z" />
    <glyph glyph-name="R.ordn" horiz-adv-x="419" 
d="M383 308c7 -9 11 -19 11 -28c0 -25 -20 -44 -44 -44c-13 0 -24 6 -33 17l-101 138h-69v-112c0 -24 -19 -42 -43 -42s-42 18 -42 42v334c0 27 20 47 47 47h108c89 0 149 -54 149 -134c0 -50 -24 -90 -64 -114zM147 585v-120h70c38 0 63 24 63 60s-25 60 -63 60h-70z" />
    <glyph glyph-name="S.ordn" horiz-adv-x="358" 
d="M179 237c-61 0 -114 26 -146 68c-7 8 -10 18 -10 28c0 22 18 39 40 39c11 0 21 -5 29 -12c24 -26 52 -44 88 -44c32 0 56 16 56 44c0 24 -19 39 -52 52l-44 17c-59 23 -101 61 -101 121c0 71 59 117 138 117c61 0 105 -28 128 -62c4 -6 6 -13 6 -21
c0 -22 -18 -40 -40 -40c-11 0 -19 4 -29 14c-19 20 -39 30 -65 30s-50 -10 -50 -39c0 -23 18 -36 46 -46l47 -19c66 -24 104 -62 104 -122c0 -77 -62 -125 -145 -125z" />
    <glyph glyph-name="T.ordn" horiz-adv-x="379" 
d="M331 660c23 0 40 -16 40 -38c0 -23 -17 -40 -40 -40h-98v-302c0 -25 -18 -43 -43 -43s-43 18 -43 43v302h-99c-23 0 -40 17 -40 40c0 22 17 38 40 38h283z" />
    <glyph glyph-name="U.ordn" horiz-adv-x="463" 
d="M364 667c25 0 43 -18 43 -43v-208c0 -105 -73 -179 -175 -179s-175 74 -175 179v208c0 25 18 43 43 43c24 0 42 -18 42 -43v-215c0 -55 37 -93 90 -93c52 0 89 38 89 93v215c0 25 18 43 43 43z" />
    <glyph glyph-name="Uacute.ordn" horiz-adv-x="463" 
d="M238 698c-22 0 -36 17 -36 36c0 7 3 14 6 20l38 62c9 15 23 20 35 20c21 0 40 -18 40 -41c0 -10 -4 -19 -10 -26l-44 -55c-8 -11 -18 -16 -29 -16zM232 237c-100 0 -175 72 -175 179v210c0 24 18 41 43 41c24 0 42 -17 42 -41v-217c0 -57 39 -93 90 -93s89 36 89 93v217
c0 24 19 41 43 41c25 0 43 -17 43 -41v-210c0 -107 -75 -179 -175 -179z" />
    <glyph glyph-name="Y.ordn" horiz-adv-x="405" 
d="M374 626c0 -9 -3 -18 -11 -31l-117 -202v-113c0 -25 -18 -43 -43 -43c-24 0 -42 18 -42 43v109l-120 206c-6 13 -10 22 -10 31c0 23 19 41 43 41c16 0 28 -7 37 -23l92 -160l91 160c9 16 21 23 37 23c24 0 43 -18 43 -41z" />
    <glyph glyph-name="Z.ordn" horiz-adv-x="382" 
d="M324 321c23 0 41 -16 41 -39c0 -22 -18 -38 -41 -38h-263c-23 0 -41 18 -41 41c0 9 3 19 10 28l213 269h-162c-23 0 -41 17 -41 40c0 22 18 38 41 38h237c23 0 40 -18 40 -40c0 -10 -3 -19 -10 -29l-209 -270h185z" />
    <glyph glyph-name="a" unicode="a" horiz-adv-x="536" 
d="M264 502c127 0 202 -76 202 -205v-255c0 -31 -22 -53 -52 -53s-52 23 -52 53v6c-36 -38 -88 -59 -151 -59c-102 0 -171 57 -171 142c0 86 70 140 181 140h139v32c0 67 -38 105 -105 105c-41 0 -78 -15 -109 -46c-13 -11 -24 -16 -36 -16c-25 0 -46 21 -46 44
c0 15 7 29 21 43c42 44 107 69 179 69zM233 70c71 0 127 51 127 116v9h-126c-57 0 -87 -21 -87 -60c0 -40 34 -65 86 -65z" />
    <glyph glyph-name="aacute" unicode="&#xe1;" horiz-adv-x="536" 
d="M283 564c-28 1 -47 23 -46 47c0 8 3 16 7 24l54 125c8 18 29 31 50 31c29 0 52 -24 52 -54c0 -8 -2 -17 -8 -28l-67 -118c-9 -15 -23 -28 -42 -27zM264 502c127 0 202 -76 202 -205v-255c0 -31 -22 -53 -52 -53s-52 23 -52 53v6c-36 -38 -88 -59 -151 -59
c-102 0 -171 57 -171 142c0 86 70 140 181 140h139v32c0 67 -38 105 -105 105c-41 0 -78 -15 -109 -46c-13 -11 -24 -16 -36 -16c-25 0 -46 21 -46 44c0 15 7 29 21 43c42 44 107 69 179 69zM233 70c71 0 127 51 127 116v9h-126c-57 0 -87 -21 -87 -60c0 -40 34 -65 86 -65z
" />
    <glyph glyph-name="abreve" unicode="&#x103;" horiz-adv-x="536" 
d="M265 577c-86 0 -161 69 -161 145c0 25 18 45 42 45c23 0 37 -13 42 -37c6 -41 38 -70 77 -70c40 0 71 29 78 70c5 23 20 37 41 37c24 0 43 -20 43 -45c0 -78 -73 -145 -162 -145zM264 502c127 0 202 -76 202 -205v-255c0 -31 -22 -53 -52 -53s-52 23 -52 53v6
c-36 -38 -88 -59 -151 -59c-102 0 -171 57 -171 142c0 86 70 140 181 140h139v32c0 67 -38 105 -105 105c-41 0 -78 -15 -109 -46c-13 -11 -24 -16 -36 -16c-25 0 -46 21 -46 44c0 15 7 29 21 43c42 44 107 69 179 69zM233 70c71 0 127 51 127 116v9h-126
c-57 0 -87 -21 -87 -60c0 -40 34 -65 86 -65z" />
    <glyph glyph-name="acircumflex" unicode="&#xe2;" horiz-adv-x="536" 
d="M153 566c-22 0 -42 18 -42 42c0 13 4 21 12 30l102 130c12 14 26 19 40 19s28 -5 39 -19l103 -130c7 -9 12 -17 12 -30c0 -24 -20 -42 -42 -42c-13 0 -24 6 -31 14l-81 93l-82 -93c-6 -8 -18 -14 -30 -14zM264 502c127 0 202 -76 202 -205v-255c0 -31 -22 -53 -52 -53
s-52 23 -52 53v6c-36 -38 -88 -59 -151 -59c-102 0 -171 57 -171 142c0 86 70 140 181 140h139v32c0 67 -38 105 -105 105c-41 0 -78 -15 -109 -46c-13 -11 -24 -16 -36 -16c-25 0 -46 21 -46 44c0 15 7 29 21 43c42 44 107 69 179 69zM233 70c71 0 127 51 127 116v9h-126
c-57 0 -87 -21 -87 -60c0 -40 34 -65 86 -65z" />
    <glyph glyph-name="adieresis" unicode="&#xe4;" horiz-adv-x="536" 
d="M153 609c-36 0 -68 31 -68 65c0 36 31 66 68 66c38 0 67 -28 67 -66c0 -35 -30 -65 -67 -65zM377 609c-36 0 -68 31 -68 65c0 36 31 66 68 66c38 0 68 -28 68 -66c0 -35 -31 -65 -68 -65zM264 502c127 0 202 -76 202 -205v-255c0 -31 -22 -53 -52 -53s-52 23 -52 53v6
c-36 -38 -88 -59 -151 -59c-102 0 -171 57 -171 142c0 86 70 140 181 140h139v32c0 67 -38 105 -105 105c-41 0 -78 -15 -109 -46c-13 -11 -24 -16 -36 -16c-25 0 -46 21 -46 44c0 15 7 29 21 43c42 44 107 69 179 69zM233 70c71 0 127 51 127 116v9h-126
c-57 0 -87 -21 -87 -60c0 -40 34 -65 86 -65z" />
    <glyph glyph-name="agrave" unicode="&#xe0;" horiz-adv-x="536" 
d="M205 591l-67 118c-6 11 -8 20 -8 28c0 30 23 54 52 54c21 0 42 -13 50 -31l54 -125c4 -8 7 -16 7 -24c1 -24 -18 -46 -46 -47c-19 -1 -33 12 -42 27zM264 502c127 0 202 -76 202 -205v-255c0 -31 -22 -53 -52 -53s-52 23 -52 53v6c-36 -38 -88 -59 -151 -59
c-102 0 -171 57 -171 142c0 86 70 140 181 140h139v32c0 67 -38 105 -105 105c-41 0 -78 -15 -109 -46c-13 -11 -24 -16 -36 -16c-25 0 -46 21 -46 44c0 15 7 29 21 43c42 44 107 69 179 69zM233 70c71 0 127 51 127 116v9h-126c-57 0 -87 -21 -87 -60c0 -40 34 -65 86 -65z
" />
    <glyph glyph-name="amacron" unicode="&#x101;" horiz-adv-x="536" 
d="M159 632c-25 0 -44 18 -44 42s19 42 44 42h212c26 0 44 -18 44 -42s-18 -42 -44 -42h-212zM264 502c127 0 202 -76 202 -205v-255c0 -31 -22 -53 -52 -53s-52 23 -52 53v6c-36 -38 -88 -59 -151 -59c-102 0 -171 57 -171 142c0 86 70 140 181 140h139v32
c0 67 -38 105 -105 105c-41 0 -78 -15 -109 -46c-13 -11 -24 -16 -36 -16c-25 0 -46 21 -46 44c0 15 7 29 21 43c42 44 107 69 179 69zM233 70c71 0 127 51 127 116v9h-126c-57 0 -87 -21 -87 -60c0 -40 34 -65 86 -65z" />
    <glyph glyph-name="aogonek" unicode="&#x105;" horiz-adv-x="536" 
d="M448 -110c20 0 34 -14 34 -36c0 -19 -11 -32 -32 -38c-14 -5 -36 -7 -57 -7c-68 0 -113 37 -113 98c0 51 32 82 83 123c-1 4 -1 8 -1 12v6c-36 -38 -88 -59 -151 -59c-102 0 -171 57 -171 142c0 86 70 140 181 140h139v32c0 67 -38 105 -105 105c-41 0 -78 -15 -109 -46
c-13 -11 -24 -16 -36 -16c-25 0 -46 21 -46 44c0 15 7 29 21 43c42 44 107 69 179 69c127 0 202 -76 202 -205v-255v-4v-2c0 -17 -9 -29 -24 -40c-28 -21 -63 -48 -63 -76c0 -17 14 -31 44 -31c10 0 19 1 25 1zM233 70c71 0 127 51 127 116v9h-126c-57 0 -87 -21 -87 -60
c0 -40 34 -65 86 -65z" />
    <glyph glyph-name="aring" unicode="&#xe5;" horiz-adv-x="536" 
d="M264 558c-66 0 -118 50 -118 115s51 115 118 115c68 0 119 -49 119 -115c0 -65 -51 -115 -119 -115zM265 719c-26 0 -46 -19 -46 -46c0 -26 20 -45 46 -45s45 19 45 45s-20 46 -45 46zM264 502c127 0 202 -76 202 -205v-255c0 -31 -22 -53 -52 -53s-52 23 -52 53v6
c-36 -38 -88 -59 -151 -59c-102 0 -171 57 -171 142c0 86 70 140 181 140h139v32c0 67 -38 105 -105 105c-41 0 -78 -15 -109 -46c-13 -11 -24 -16 -36 -16c-25 0 -46 21 -46 44c0 15 7 29 21 43c42 44 107 69 179 69zM233 70c71 0 127 51 127 116v9h-126
c-57 0 -87 -21 -87 -60c0 -40 34 -65 86 -65z" />
    <glyph glyph-name="atilde" unicode="&#xe3;" horiz-adv-x="536" 
d="M133 587c-26 0 -43 20 -43 48c0 68 42 114 100 114c24 0 49 -9 70 -24l26 -20c22 -16 30 -22 42 -22c17 0 25 11 28 30c4 23 20 37 41 37c26 0 43 -20 43 -48c0 -67 -41 -115 -99 -115c-25 0 -50 9 -71 25l-27 20c-21 17 -29 22 -41 22c-16 0 -26 -11 -28 -30
c-4 -23 -20 -37 -41 -37zM264 502c127 0 202 -76 202 -205v-255c0 -31 -22 -53 -52 -53s-52 23 -52 53v6c-36 -38 -88 -59 -151 -59c-102 0 -171 57 -171 142c0 86 70 140 181 140h139v32c0 67 -38 105 -105 105c-41 0 -78 -15 -109 -46c-13 -11 -24 -16 -36 -16
c-25 0 -46 21 -46 44c0 15 7 29 21 43c42 44 107 69 179 69zM233 70c71 0 127 51 127 116v9h-126c-57 0 -87 -21 -87 -60c0 -40 34 -65 86 -65z" />
    <glyph glyph-name="ae" unicode="&#xe6;" horiz-adv-x="887" 
d="M616 502c131 0 226 -96 226 -228v-9c0 -39 -22 -61 -60 -61h-313c16 -75 76 -122 159 -122c44 0 84 13 115 38c10 7 18 10 27 10c26 0 45 -19 45 -44c0 -18 -7 -30 -27 -44c-44 -35 -100 -53 -162 -53c-91 0 -167 42 -211 109c-35 -69 -107 -109 -198 -109
c-108 0 -177 57 -177 144c0 90 71 147 181 147h139v23c0 66 -38 105 -105 105c-40 0 -76 -15 -109 -46c-13 -11 -23 -16 -35 -16c-24 0 -46 21 -46 45c0 15 6 27 21 42c41 44 105 69 178 69c77 0 135 -32 165 -88c44 55 111 88 187 88zM468 280h269c4 78 -48 133 -125 133
c-75 0 -132 -54 -144 -133zM233 71c71 0 127 50 127 114v19h-126c-57 0 -87 -21 -87 -63c0 -43 33 -70 86 -70z" />
    <glyph glyph-name="aeacute" unicode="&#x1fd;" horiz-adv-x="887" 
d="M447 564c-28 1 -47 23 -46 47c0 8 3 16 7 24l54 125c8 18 29 31 50 31c29 0 52 -24 52 -54c0 -8 -2 -17 -8 -28l-67 -118c-9 -15 -23 -28 -42 -27zM616 502c131 0 226 -96 226 -228v-9c0 -39 -22 -61 -60 -61h-313c16 -75 76 -122 159 -122c44 0 84 13 115 38
c10 7 18 10 27 10c26 0 45 -19 45 -44c0 -18 -7 -30 -27 -44c-44 -35 -100 -53 -162 -53c-91 0 -167 42 -211 109c-35 -69 -107 -109 -198 -109c-108 0 -177 57 -177 144c0 90 71 147 181 147h139v23c0 66 -38 105 -105 105c-40 0 -76 -15 -109 -46c-13 -11 -23 -16 -35 -16
c-24 0 -46 21 -46 45c0 15 6 27 21 42c41 44 105 69 178 69c77 0 135 -32 165 -88c44 55 111 88 187 88zM468 280h269c4 78 -48 133 -125 133c-75 0 -132 -54 -144 -133zM233 71c71 0 127 50 127 114v19h-126c-57 0 -87 -21 -87 -63c0 -43 33 -70 86 -70z" />
    <glyph glyph-name="b" unicode="b" horiz-adv-x="631" 
d="M345 502c139 0 241 -109 241 -257s-102 -256 -240 -256c-70 0 -129 27 -166 72v-18c0 -32 -22 -54 -51 -54c-31 0 -53 23 -53 54v664c0 31 23 54 53 54s52 -22 52 -54v-277c37 45 95 72 164 72zM328 85c87 0 150 68 150 161c0 92 -63 160 -150 160
c-89 0 -148 -65 -148 -161c0 -95 60 -160 148 -160z" />
    <glyph glyph-name="c" unicode="c" horiz-adv-x="552" 
d="M305 -11c-146 0 -260 113 -260 257c0 143 114 256 260 256c86 0 160 -41 198 -100c8 -12 10 -20 10 -28c0 -27 -21 -48 -47 -48c-14 0 -26 4 -37 17c-29 36 -69 62 -123 62c-88 0 -154 -68 -154 -159c0 -93 65 -160 154 -160c54 0 93 26 123 61c12 14 23 17 37 17
c26 0 47 -21 47 -47c0 -9 -2 -17 -9 -27c-41 -61 -111 -101 -199 -101z" />
    <glyph glyph-name="cacute" unicode="&#x107;" horiz-adv-x="552" 
d="M322 564c-28 1 -47 23 -46 47c0 8 3 16 7 24l54 125c8 18 29 31 50 31c29 0 52 -24 52 -54c0 -8 -2 -17 -8 -28l-67 -118c-9 -15 -23 -28 -42 -27zM305 -11c-146 0 -260 113 -260 257c0 143 114 256 260 256c86 0 160 -41 198 -100c8 -12 10 -20 10 -28
c0 -27 -21 -48 -47 -48c-14 0 -26 4 -37 17c-29 36 -69 62 -123 62c-88 0 -154 -68 -154 -159c0 -93 65 -160 154 -160c54 0 93 26 123 61c12 14 23 17 37 17c26 0 47 -21 47 -47c0 -9 -2 -17 -9 -27c-41 -61 -111 -101 -199 -101z" />
    <glyph glyph-name="ccaron" unicode="&#x10d;" horiz-adv-x="552" 
d="M264 585l-102 130c-8 9 -12 17 -12 30c0 24 20 42 42 42c12 0 24 -6 30 -14l82 -93l81 93c7 8 18 14 31 14c22 0 42 -18 42 -42c0 -13 -5 -21 -12 -30l-103 -130c-11 -14 -25 -19 -39 -19s-28 5 -40 19zM466 164c26 0 47 -21 47 -47c0 -9 -2 -17 -9 -27
c-41 -61 -111 -101 -199 -101c-146 0 -260 113 -260 257c0 143 114 256 260 256c86 0 160 -41 198 -100c8 -12 10 -20 10 -28c0 -27 -21 -48 -47 -48c-14 0 -26 4 -37 17c-29 36 -69 62 -123 62c-88 0 -154 -68 -154 -159c0 -93 65 -160 154 -160c54 0 93 26 123 61
c12 14 23 17 37 17z" />
    <glyph glyph-name="ccedilla" unicode="&#xe7;" horiz-adv-x="552" 
d="M466 164c26 0 47 -21 47 -47c0 -9 -2 -17 -9 -27c-30 -44 -75 -77 -131 -92c13 -22 21 -46 21 -68c0 -73 -58 -121 -145 -121c-25 0 -43 1 -59 8c-18 7 -28 18 -28 36c0 21 17 38 38 38c13 0 20 -3 39 -3c34 0 64 16 64 48c0 23 -10 40 -20 54c-135 10 -238 119 -238 256
c0 143 114 256 260 256c86 0 160 -41 198 -100c8 -12 10 -20 10 -28c0 -27 -21 -48 -47 -48c-14 0 -26 4 -37 17c-29 36 -69 62 -123 62c-88 0 -154 -68 -154 -159c0 -93 65 -160 154 -160c54 0 93 26 123 61c12 14 23 17 37 17z" />
    <glyph glyph-name="ccircumflex" unicode="&#x109;" horiz-adv-x="552" 
d="M192 566c-22 0 -42 18 -42 42c0 13 4 21 12 30l102 130c12 14 26 19 40 19s28 -5 39 -19l103 -130c7 -9 12 -17 12 -30c0 -24 -20 -42 -42 -42c-13 0 -24 6 -31 14l-81 93l-82 -93c-6 -8 -18 -14 -30 -14zM466 164c26 0 47 -21 47 -47c0 -9 -2 -17 -9 -27
c-41 -61 -111 -101 -199 -101c-146 0 -260 113 -260 257c0 143 114 256 260 256c86 0 160 -41 198 -100c8 -12 10 -20 10 -28c0 -27 -21 -48 -47 -48c-14 0 -26 4 -37 17c-29 36 -69 62 -123 62c-88 0 -154 -68 -154 -159c0 -93 65 -160 154 -160c54 0 93 26 123 61
c12 14 23 17 37 17z" />
    <glyph glyph-name="cdotaccent" unicode="&#x10b;" horiz-adv-x="552" 
d="M304 742c38 0 70 -30 70 -68s-32 -68 -70 -68c-39 0 -70 30 -70 68s31 68 70 68zM305 -11c-146 0 -260 113 -260 257c0 143 114 256 260 256c86 0 160 -41 198 -100c8 -12 10 -20 10 -28c0 -27 -21 -48 -47 -48c-14 0 -26 4 -37 17c-29 36 -69 62 -123 62
c-88 0 -154 -68 -154 -159c0 -93 65 -160 154 -160c54 0 93 26 123 61c12 14 23 17 37 17c26 0 47 -21 47 -47c0 -9 -2 -17 -9 -27c-41 -61 -111 -101 -199 -101z" />
    <glyph glyph-name="d" unicode="d" horiz-adv-x="631" 
d="M502 761c30 0 53 -22 53 -54v-665c0 -31 -23 -53 -52 -53c-30 0 -52 23 -52 53v20c-36 -46 -95 -73 -166 -73c-138 0 -240 108 -240 256s102 257 240 257c69 0 127 -27 164 -71v276c0 31 23 54 53 54zM303 85c88 0 148 65 148 160s-60 161 -148 161
c-87 0 -151 -68 -151 -160c0 -93 63 -161 151 -161z" />
    <glyph glyph-name="eth" unicode="&#xf0;" horiz-adv-x="571" 
d="M413 470c87 -117 113 -173 113 -246c0 -135 -102 -235 -240 -235c-139 0 -241 98 -241 229c0 128 99 225 228 225c12 0 23 -1 34 -2l-80 111l-112 -55c-11 -5 -18 -7 -26 -7c-22 0 -41 19 -41 42c0 15 9 31 23 37l105 51l-43 60c-7 11 -11 22 -11 32c0 27 23 49 50 49
c16 0 30 -7 42 -24l54 -72l121 59c10 6 18 8 25 8c23 0 42 -19 42 -42c0 -16 -9 -31 -24 -38l-113 -55zM285 84c78 0 134 57 134 135s-56 134 -134 134c-77 0 -133 -56 -133 -135c0 -78 55 -134 133 -134z" />
    <glyph glyph-name="dcaron" unicode="&#x10f;" horiz-adv-x="773" 
d="M713 770c31 0 63 -28 50 -72l-32 -129c-4 -13 -16 -35 -45 -35c-27 0 -51 24 -46 58l19 129c3 26 25 49 54 49zM502 761c30 0 53 -22 53 -54v-665c0 -31 -23 -53 -52 -53c-30 0 -52 23 -52 53v20c-36 -46 -95 -73 -166 -73c-138 0 -240 108 -240 256s102 257 240 257
c69 0 127 -27 164 -71v276c0 31 23 54 53 54zM303 85c88 0 148 65 148 160s-60 161 -148 161c-87 0 -151 -68 -151 -160c0 -93 63 -161 151 -161z" />
    <glyph glyph-name="dcroat" unicode="&#x111;" horiz-adv-x="635" 
d="M596 653c25 0 44 -18 44 -43s-19 -43 -44 -43h-42v-524c0 -32 -22 -54 -52 -54s-52 23 -52 54v20c-37 -46 -98 -74 -169 -74c-135 0 -237 104 -237 245s101 247 237 247c70 0 131 -29 168 -75v161h-173c-25 0 -44 18 -44 43s19 43 44 43h173v54c0 31 22 54 53 54
c29 0 52 -22 52 -54v-54h42zM302 80c89 0 148 61 148 154s-59 155 -148 155c-87 0 -150 -64 -150 -155c0 -90 62 -154 150 -154z" />
    <glyph glyph-name="e" unicode="e" horiz-adv-x="570" 
d="M298 502c131 0 228 -96 228 -228v-5c0 -36 -23 -58 -60 -58h-314c14 -79 73 -129 160 -129c42 0 82 13 115 38c9 6 18 10 27 10c25 0 44 -19 44 -44c0 -18 -7 -30 -26 -44c-47 -35 -102 -53 -163 -53c-152 0 -264 109 -264 256c0 145 110 257 253 257zM295 413
c-71 0 -125 -48 -141 -120h267c-2 71 -52 120 -126 120z" />
    <glyph glyph-name="eacute" unicode="&#xe9;" horiz-adv-x="570" 
d="M315 564c-28 1 -47 23 -46 47c0 8 3 16 7 24l54 125c8 18 29 31 50 31c29 0 52 -24 52 -54c0 -8 -2 -17 -8 -28l-67 -118c-9 -15 -23 -28 -42 -27zM298 502c131 0 228 -96 228 -228v-5c0 -36 -23 -58 -60 -58h-314c14 -79 73 -129 160 -129c42 0 82 13 115 38
c9 6 18 10 27 10c25 0 44 -19 44 -44c0 -18 -7 -30 -26 -44c-47 -35 -102 -53 -163 -53c-152 0 -264 109 -264 256c0 145 110 257 253 257zM295 413c-71 0 -125 -48 -141 -120h267c-2 71 -52 120 -126 120z" />
    <glyph glyph-name="ebreve" unicode="&#x115;" horiz-adv-x="570" 
d="M297 577c-86 0 -161 69 -161 145c0 25 18 45 42 45c23 0 37 -13 42 -37c6 -41 38 -70 77 -70c40 0 71 29 78 70c5 23 20 37 41 37c24 0 43 -20 43 -45c0 -78 -73 -145 -162 -145zM298 502c131 0 228 -96 228 -228v-5c0 -36 -23 -58 -60 -58h-314c14 -79 73 -129 160 -129
c42 0 82 13 115 38c9 6 18 10 27 10c25 0 44 -19 44 -44c0 -18 -7 -30 -26 -44c-47 -35 -102 -53 -163 -53c-152 0 -264 109 -264 256c0 145 110 257 253 257zM295 413c-71 0 -125 -48 -141 -120h267c-2 71 -52 120 -126 120z" />
    <glyph glyph-name="ecaron" unicode="&#x11b;" horiz-adv-x="570" 
d="M257 585l-102 130c-8 9 -12 17 -12 30c0 24 20 42 42 42c12 0 24 -6 30 -14l82 -93l81 93c7 8 18 14 31 14c22 0 42 -18 42 -42c0 -13 -5 -21 -12 -30l-103 -130c-11 -14 -25 -19 -39 -19s-28 5 -40 19zM298 502c131 0 228 -96 228 -228v-5c0 -36 -23 -58 -60 -58h-314
c14 -79 73 -129 160 -129c42 0 82 13 115 38c9 6 18 10 27 10c25 0 44 -19 44 -44c0 -18 -7 -30 -26 -44c-47 -35 -102 -53 -163 -53c-152 0 -264 109 -264 256c0 145 110 257 253 257zM295 413c-71 0 -125 -48 -141 -120h267c-2 71 -52 120 -126 120z" />
    <glyph glyph-name="ecircumflex" unicode="&#xea;" horiz-adv-x="570" 
d="M185 566c-22 0 -42 18 -42 42c0 13 4 21 12 30l102 130c12 14 26 19 40 19s28 -5 39 -19l103 -130c7 -9 12 -17 12 -30c0 -24 -20 -42 -42 -42c-13 0 -24 6 -31 14l-81 93l-82 -93c-6 -8 -18 -14 -30 -14zM298 502c131 0 228 -96 228 -228v-5c0 -36 -23 -58 -60 -58h-314
c14 -79 73 -129 160 -129c42 0 82 13 115 38c9 6 18 10 27 10c25 0 44 -19 44 -44c0 -18 -7 -30 -26 -44c-47 -35 -102 -53 -163 -53c-152 0 -264 109 -264 256c0 145 110 257 253 257zM295 413c-71 0 -125 -48 -141 -120h267c-2 71 -52 120 -126 120z" />
    <glyph glyph-name="edieresis" unicode="&#xeb;" horiz-adv-x="570" 
d="M185 609c-36 0 -68 31 -68 65c0 36 31 66 68 66c38 0 67 -28 67 -66c0 -35 -30 -65 -67 -65zM409 609c-36 0 -68 31 -68 65c0 36 31 66 68 66c38 0 68 -28 68 -66c0 -35 -31 -65 -68 -65zM298 502c131 0 228 -96 228 -228v-5c0 -36 -23 -58 -60 -58h-314
c14 -79 73 -129 160 -129c42 0 82 13 115 38c9 6 18 10 27 10c25 0 44 -19 44 -44c0 -18 -7 -30 -26 -44c-47 -35 -102 -53 -163 -53c-152 0 -264 109 -264 256c0 145 110 257 253 257zM295 413c-71 0 -125 -48 -141 -120h267c-2 71 -52 120 -126 120z" />
    <glyph glyph-name="edotaccent" unicode="&#x117;" horiz-adv-x="570" 
d="M297 606c-39 0 -70 30 -70 68s31 68 70 68c38 0 70 -30 70 -68s-32 -68 -70 -68zM298 502c131 0 228 -96 228 -228v-5c0 -36 -23 -58 -60 -58h-314c14 -79 73 -129 160 -129c42 0 82 13 115 38c9 6 18 10 27 10c25 0 44 -19 44 -44c0 -18 -7 -30 -26 -44
c-47 -35 -102 -53 -163 -53c-152 0 -264 109 -264 256c0 145 110 257 253 257zM295 413c-71 0 -125 -48 -141 -120h267c-2 71 -52 120 -126 120z" />
    <glyph glyph-name="egrave" unicode="&#xe8;" horiz-adv-x="570" 
d="M237 591l-67 118c-6 11 -8 20 -8 28c0 30 23 54 52 54c21 0 42 -13 50 -31l54 -125c4 -8 7 -16 7 -24c1 -24 -18 -46 -46 -47c-19 -1 -33 12 -42 27zM298 502c131 0 228 -96 228 -228v-5c0 -36 -23 -58 -60 -58h-314c14 -79 73 -129 160 -129c42 0 82 13 115 38
c9 6 18 10 27 10c25 0 44 -19 44 -44c0 -18 -7 -30 -26 -44c-47 -35 -102 -53 -163 -53c-152 0 -264 109 -264 256c0 145 110 257 253 257zM295 413c-71 0 -125 -48 -141 -120h267c-2 71 -52 120 -126 120z" />
    <glyph glyph-name="emacron" unicode="&#x113;" horiz-adv-x="570" 
d="M191 632c-25 0 -44 18 -44 42s19 42 44 42h212c26 0 44 -18 44 -42s-18 -42 -44 -42h-212zM298 502c131 0 228 -96 228 -228v-5c0 -36 -23 -58 -60 -58h-314c14 -79 73 -129 160 -129c42 0 82 13 115 38c9 6 18 10 27 10c25 0 44 -19 44 -44c0 -18 -7 -30 -26 -44
c-47 -35 -102 -53 -163 -53c-152 0 -264 109 -264 256c0 145 110 257 253 257zM295 413c-71 0 -125 -48 -141 -120h267c-2 71 -52 120 -126 120z" />
    <glyph glyph-name="eogonek" unicode="&#x119;" horiz-adv-x="570" 
d="M298 502c131 0 228 -96 228 -228v-5c0 -36 -23 -58 -60 -58h-314c14 -79 73 -129 160 -129c42 0 82 13 115 38c9 6 18 10 27 10c25 0 44 -19 44 -44c0 -18 -7 -30 -26 -44c-2 -1 -3 -2 -5 -4c-1 -1 -3 -3 -5 -4l-35 -25c-39 -26 -79 -53 -79 -87c0 -21 17 -34 44 -34
c8 0 19 2 24 2c20 0 34 -15 34 -35c0 -19 -10 -33 -31 -39c-15 -5 -37 -7 -57 -7c-69 0 -114 37 -114 97c0 27 14 56 40 84c-141 9 -243 115 -243 255c0 145 110 257 253 257zM295 413c-71 0 -125 -48 -141 -120h267c-2 71 -52 120 -126 120z" />
    <glyph glyph-name="f" unicode="f" horiz-adv-x="322" 
d="M280 666c-52 0 -81 -30 -81 -85v-90h79c27 0 47 -20 47 -46s-20 -45 -47 -45h-79v-357c0 -32 -22 -54 -52 -54c-31 0 -53 23 -53 54v357h-34c-26 0 -46 19 -46 45s20 46 46 46h34v99c0 108 63 171 169 171c23 0 41 -3 57 -9c19 -7 31 -23 31 -45c0 -25 -19 -42 -47 -42
c-7 0 -14 1 -24 1z" />
    <glyph glyph-name="g" unicode="g" horiz-adv-x="634" 
d="M507 502c29 0 51 -23 51 -54v-397c0 -151 -93 -242 -246 -242c-80 0 -156 26 -213 73c-13 11 -20 24 -20 38c0 27 21 48 48 48c11 0 21 -3 30 -10c50 -37 96 -53 149 -53c93 0 147 51 147 140v35c-37 -44 -95 -70 -166 -70c-138 0 -239 103 -239 246s101 246 239 246
c72 0 131 -27 167 -73v19c0 31 23 54 53 54zM306 102c89 0 148 62 148 155c0 91 -58 151 -148 151c-87 0 -150 -63 -150 -152c0 -90 63 -154 150 -154z" />
    <glyph glyph-name="gbreve" unicode="&#x11f;" horiz-adv-x="634" 
d="M310 577c-86 0 -161 69 -161 145c0 25 18 45 42 45c23 0 37 -13 42 -37c6 -41 38 -70 77 -70c40 0 71 29 78 70c5 23 20 37 41 37c24 0 43 -20 43 -45c0 -78 -73 -145 -162 -145zM507 502c29 0 51 -23 51 -54v-397c0 -151 -93 -242 -246 -242c-80 0 -156 26 -213 73
c-13 11 -20 24 -20 38c0 27 21 48 48 48c11 0 21 -3 30 -10c50 -37 96 -53 149 -53c93 0 147 51 147 140v35c-37 -44 -95 -70 -166 -70c-138 0 -239 103 -239 246s101 246 239 246c72 0 131 -27 167 -73v19c0 31 23 54 53 54zM306 102c89 0 148 62 148 155
c0 91 -58 151 -148 151c-87 0 -150 -63 -150 -152c0 -90 63 -154 150 -154z" />
    <glyph glyph-name="gcircumflex" unicode="&#x11d;" horiz-adv-x="634" 
d="M198 566c-22 0 -42 18 -42 42c0 13 4 21 12 30l102 130c12 14 26 19 40 19s28 -5 39 -19l103 -130c7 -9 12 -17 12 -30c0 -24 -20 -42 -42 -42c-13 0 -24 6 -31 14l-81 93l-82 -93c-6 -8 -18 -14 -30 -14zM507 502c29 0 51 -23 51 -54v-397c0 -151 -93 -242 -246 -242
c-80 0 -156 26 -213 73c-13 11 -20 24 -20 38c0 27 21 48 48 48c11 0 21 -3 30 -10c50 -37 96 -53 149 -53c93 0 147 51 147 140v35c-37 -44 -95 -70 -166 -70c-138 0 -239 103 -239 246s101 246 239 246c72 0 131 -27 167 -73v19c0 31 23 54 53 54zM306 102
c89 0 148 62 148 155c0 91 -58 151 -148 151c-87 0 -150 -63 -150 -152c0 -90 63 -154 150 -154z" />
    <glyph glyph-name="gcommaaccent" unicode="&#x123;" horiz-adv-x="634" 
d="M309 562c-29 0 -52 22 -52 52c0 47 18 122 30 157c8 22 23 38 47 38c22 0 43 -17 43 -44c0 -8 -2 -19 -4 -29c-7 -44 -12 -90 -12 -122c0 -30 -25 -52 -52 -52zM507 502c29 0 51 -23 51 -54v-397c0 -151 -93 -242 -246 -242c-80 0 -156 26 -213 73c-13 11 -20 24 -20 38
c0 27 21 48 48 48c11 0 21 -3 30 -10c50 -37 96 -53 149 -53c93 0 147 51 147 140v35c-37 -44 -95 -70 -166 -70c-138 0 -239 103 -239 246s101 246 239 246c72 0 131 -27 167 -73v19c0 31 23 54 53 54zM306 102c89 0 148 62 148 155c0 91 -58 151 -148 151
c-87 0 -150 -63 -150 -152c0 -90 63 -154 150 -154z" />
    <glyph glyph-name="gdotaccent" unicode="&#x121;" horiz-adv-x="634" 
d="M310 606c-39 0 -70 30 -70 68s31 68 70 68c38 0 70 -30 70 -68s-32 -68 -70 -68zM507 502c29 0 51 -23 51 -54v-397c0 -151 -93 -242 -246 -242c-80 0 -156 26 -213 73c-13 11 -20 24 -20 38c0 27 21 48 48 48c11 0 21 -3 30 -10c50 -37 96 -53 149 -53
c93 0 147 51 147 140v35c-37 -44 -95 -70 -166 -70c-138 0 -239 103 -239 246s101 246 239 246c72 0 131 -27 167 -73v19c0 31 23 54 53 54zM306 102c89 0 148 62 148 155c0 91 -58 151 -148 151c-87 0 -150 -63 -150 -152c0 -90 63 -154 150 -154z" />
    <glyph glyph-name="h" unicode="h" horiz-adv-x="575" 
d="M323 502c110 0 182 -77 182 -195v-264c0 -32 -23 -54 -52 -54c-31 0 -53 23 -53 54v249c0 69 -43 114 -107 114c-65 0 -112 -47 -112 -114v-249c0 -32 -22 -54 -52 -54s-53 23 -53 54v664c0 31 23 54 53 54s52 -22 52 -54v-265c34 38 83 60 142 60z" />
    <glyph glyph-name="hbar" unicode="&#x127;" horiz-adv-x="581" 
d="M328 481c110 0 183 -77 183 -196v-242c0 -32 -23 -54 -53 -54s-53 23 -53 54v229c0 67 -43 112 -106 112c-66 0 -113 -46 -113 -112v-229c0 -31 -22 -54 -52 -54s-52 23 -52 54v522h-41c-26 0 -46 20 -46 45c0 26 20 45 46 45h41v52c0 32 22 54 52 54s52 -23 52 -54v-52
h157c25 0 45 -19 45 -45c0 -25 -20 -45 -45 -45h-157v-145c33 39 83 61 142 61z" />
    <glyph glyph-name="hcircumflex" unicode="&#x125;" horiz-adv-x="575" 
d="M180 911l-93 -87c-11 -9 -21 -13 -31 -13c-22 0 -39 17 -39 39c0 13 6 21 20 35l109 108c10 10 21 15 34 15s24 -5 34 -15l109 -108c14 -14 20 -22 20 -35c0 -22 -17 -39 -39 -39c-10 0 -20 4 -31 13zM323 502c110 0 182 -77 182 -195v-264c0 -32 -23 -54 -52 -54
c-31 0 -53 23 -53 54v249c0 69 -43 114 -107 114c-65 0 -112 -47 -112 -114v-249c0 -32 -22 -54 -52 -54s-53 23 -53 54v664c0 31 23 54 53 54s52 -22 52 -54v-265c34 38 83 60 142 60z" />
    <glyph glyph-name="i" unicode="i" horiz-adv-x="257" 
d="M129 742c38 0 70 -30 70 -68s-32 -68 -70 -68c-39 0 -70 30 -70 68s31 68 70 68zM128 -11c-30 0 -52 23 -52 54v405c0 31 22 54 53 54c30 0 52 -23 52 -54v-405c0 -31 -23 -54 -53 -54z" />
    <glyph glyph-name="dotlessi" unicode="&#x131;" horiz-adv-x="257" 
d="M128 -11c-30 0 -52 23 -52 54v405c0 31 22 54 53 54c30 0 52 -23 52 -54v-405c0 -31 -23 -54 -53 -54z" />
    <glyph glyph-name="iacute" unicode="&#xed;" horiz-adv-x="257" 
d="M145 568c-28 -4 -51 14 -54 38c-1 8 0 16 3 25l31 132c5 20 23 36 44 40c29 5 56 -15 61 -45c1 -7 1 -17 -3 -28l-46 -128c-6 -17 -18 -32 -36 -34zM128 -11c-30 0 -52 23 -52 54v405c0 31 22 54 53 54c30 0 52 -23 52 -54v-405c0 -31 -23 -54 -53 -54z" />
    <glyph glyph-name="ibreve" unicode="&#x12d;" horiz-adv-x="257" 
d="M129 577c-86 0 -161 69 -161 145c0 25 18 45 42 45c23 0 37 -13 42 -37c6 -41 38 -70 77 -70c40 0 71 29 78 70c5 23 20 37 41 37c24 0 43 -20 43 -45c0 -78 -73 -145 -162 -145zM128 -11c-30 0 -52 23 -52 54v405c0 31 22 54 53 54c30 0 52 -23 52 -54v-405
c0 -31 -23 -54 -53 -54z" />
    <glyph glyph-name="icircumflex" unicode="&#xee;" horiz-adv-x="257" 
d="M271 638c7 -9 12 -17 12 -30c0 -24 -20 -42 -42 -42c-13 0 -24 6 -31 14l-81 93l-82 -93c-6 -8 -18 -14 -30 -14c-22 0 -42 18 -42 42c0 13 4 21 12 30l102 130c12 14 26 19 40 19s28 -5 39 -19zM129 502c30 0 52 -23 52 -54v-405c0 -31 -23 -54 -53 -54s-52 23 -52 54
v405c0 31 22 54 53 54z" />
    <glyph glyph-name="idieresis" unicode="&#xef;" horiz-adv-x="257" 
d="M29 609c-37 0 -68 30 -68 65c0 36 30 66 68 66c37 0 67 -29 67 -66c0 -35 -30 -65 -67 -65zM229 609c-37 0 -68 31 -68 65c0 36 31 66 68 66s67 -29 67 -66c0 -35 -30 -65 -67 -65zM128 -11c-30 0 -52 23 -52 54v405c0 31 22 54 53 54c30 0 52 -23 52 -54v-405
c0 -31 -23 -54 -53 -54z" />
    <glyph glyph-name="igrave" unicode="&#xec;" horiz-adv-x="257" 
d="M114 566c-18 4 -28 20 -33 37l-34 131c-3 12 -3 21 -1 29c8 29 36 46 64 39c21 -6 38 -24 41 -43l19 -135c2 -9 3 -17 1 -25c-5 -23 -29 -40 -57 -33zM128 -11c-30 0 -52 23 -52 54v405c0 31 22 54 53 54c30 0 52 -23 52 -54v-405c0 -31 -23 -54 -53 -54z" />
    <glyph glyph-name="ij" unicode="&#x133;" horiz-adv-x="514" 
d="M129 742c38 0 70 -30 70 -68s-32 -68 -70 -68c-39 0 -70 30 -70 68s31 68 70 68zM386 742c38 0 70 -30 70 -68s-32 -68 -70 -68c-39 0 -70 30 -70 68s31 68 70 68zM128 -11c-30 0 -52 23 -52 54v405c0 31 22 54 53 54c30 0 52 -23 52 -54v-405c0 -31 -23 -54 -53 -54z
M266 -191c-19 0 -33 2 -46 6c-22 6 -38 22 -38 44c0 26 20 46 46 46c7 0 11 -1 19 -1c50 0 86 19 86 90v454c0 31 22 54 53 54c30 0 52 -23 52 -54v-468c0 -116 -69 -171 -172 -171z" />
    <glyph glyph-name="imacron" unicode="&#x12b;" horiz-adv-x="257" 
d="M211 716c25 0 43 -18 43 -42s-18 -42 -43 -42h-164c-25 0 -43 18 -43 42s18 42 43 42h164zM128 -11c-30 0 -52 23 -52 54v405c0 31 22 54 53 54c30 0 52 -23 52 -54v-405c0 -31 -23 -54 -53 -54z" />
    <glyph glyph-name="iogonek" unicode="&#x12f;" horiz-adv-x="257" 
d="M129 606c-39 0 -70 30 -70 68s31 68 70 68c38 0 70 -30 70 -68s-32 -68 -70 -68zM163 -110c20 0 34 -14 34 -36c0 -19 -11 -32 -32 -38c-14 -5 -36 -7 -57 -7c-68 0 -113 37 -113 98c0 51 32 82 82 123c0 4 -1 8 -1 13v405c0 31 22 54 53 54c30 0 52 -23 52 -54v-405v-4
v-3c0 -17 -9 -29 -24 -40c-28 -21 -63 -48 -63 -76c0 -17 14 -31 44 -31c10 0 19 1 25 1z" />
    <glyph glyph-name="itilde" unicode="&#x129;" horiz-adv-x="257" 
d="M196 587c-22 0 -42 9 -66 28l-19 17c-17 15 -27 20 -36 20c-15 0 -24 -9 -26 -29c-4 -23 -20 -37 -41 -37c-26 0 -43 19 -43 48c0 67 41 114 98 114c22 0 42 -8 66 -27l19 -17c18 -16 26 -20 36 -20c15 0 24 9 26 29c4 22 20 37 41 37c26 0 43 -20 43 -48
c0 -67 -41 -115 -98 -115zM128 -11c-30 0 -52 23 -52 54v405c0 31 22 54 53 54c30 0 52 -23 52 -54v-405c0 -31 -23 -54 -53 -54z" />
    <glyph glyph-name="j" unicode="j" horiz-adv-x="257" 
d="M129 742c38 0 70 -30 70 -68s-32 -68 -70 -68c-39 0 -70 30 -70 68s31 68 70 68zM9 -191c-19 0 -33 2 -46 6c-22 6 -38 22 -38 44c0 26 20 46 46 46c7 0 11 -1 19 -1c50 0 86 19 86 90v454c0 31 22 54 53 54c30 0 52 -23 52 -54v-468c0 -116 -69 -171 -172 -171z" />
    <glyph glyph-name="uni0237" unicode="&#x237;" horiz-adv-x="257" 
d="M9 -191c-19 0 -33 2 -46 6c-22 6 -38 22 -38 44c0 26 20 46 46 46c7 0 11 -1 19 -1c50 0 86 19 86 90v454c0 31 22 54 53 54c30 0 52 -23 52 -54v-468c0 -116 -69 -171 -172 -171z" />
    <glyph glyph-name="jcircumflex" unicode="&#x135;" horiz-adv-x="257" 
d="M271 638c7 -9 12 -17 12 -30c0 -24 -20 -42 -42 -42c-13 0 -24 6 -31 14l-81 93l-82 -93c-6 -8 -18 -14 -30 -14c-22 0 -42 18 -42 42c0 13 4 21 12 30l102 130c12 14 26 19 40 19s28 -5 39 -19zM129 502c30 0 52 -23 52 -54v-468c0 -116 -69 -171 -172 -171
c-19 0 -33 2 -46 6c-22 6 -38 22 -38 44c0 26 20 46 46 46c7 0 11 -1 19 -1c50 0 86 19 86 90v454c0 31 22 54 53 54z" />
    <glyph glyph-name="k" unicode="k" horiz-adv-x="533" 
d="M129 761c30 0 52 -22 52 -54v-664c0 -32 -22 -54 -52 -54s-53 23 -53 54v664c0 31 23 54 53 54zM492 73c10 -11 14 -22 14 -35c0 -28 -22 -49 -49 -49c-17 0 -29 6 -42 21l-193 223c-11 14 -16 26 -16 38c0 14 5 26 17 39l177 176c10 10 24 16 38 16c28 0 50 -21 50 -48
c0 -14 -7 -26 -20 -39l-147 -143z" />
    <glyph glyph-name="kcommaaccent" unicode="&#x137;" horiz-adv-x="533" 
d="M129 761c30 0 52 -22 52 -54v-664c0 -32 -22 -54 -52 -54s-53 23 -53 54v664c0 31 23 54 53 54zM492 73c10 -11 14 -22 14 -35c0 -28 -22 -49 -49 -49c-17 0 -29 6 -42 21l-193 223c-11 14 -16 26 -16 38c0 14 5 26 17 39l177 176c10 10 24 16 38 16c28 0 50 -21 50 -48
c0 -14 -7 -26 -20 -39l-147 -143zM267 -44c29 0 53 -24 53 -53c0 -42 -15 -86 -28 -107c-13 -23 -29 -33 -45 -33c-24 0 -46 21 -46 44s13 42 13 96c0 29 24 53 53 53z" />
    <glyph glyph-name="l" unicode="l" horiz-adv-x="257" 
d="M129 -11c-30 0 -53 23 -53 54v664c0 31 22 54 53 54c30 0 52 -23 52 -54v-664c0 -31 -22 -54 -52 -54z" />
    <glyph glyph-name="lacute" unicode="&#x13a;" horiz-adv-x="257" 
d="M144 813c-38 2 -53 42 -39 69l58 112c12 22 33 29 51 28c39 -2 64 -48 39 -84l-67 -102c-12 -17 -29 -23 -42 -23zM129 -11c-30 0 -53 23 -53 54v664c0 31 22 54 53 54c30 0 52 -23 52 -54v-664c0 -31 -22 -54 -52 -54z" />
    <glyph glyph-name="lcaron" unicode="&#x13e;" horiz-adv-x="400" 
d="M313 534c-27 0 -51 24 -46 58l19 129c3 26 25 49 54 49c31 0 63 -28 50 -72l-32 -129c-4 -13 -16 -35 -45 -35zM129 -11c-30 0 -53 23 -53 54v664c0 31 22 54 53 54c30 0 52 -23 52 -54v-664c0 -31 -22 -54 -52 -54z" />
    <glyph glyph-name="lcommaaccent" unicode="&#x13c;" horiz-adv-x="257" 
d="M129 -11c-30 0 -53 23 -53 54v664c0 31 22 54 53 54c30 0 52 -23 52 -54v-664c0 -31 -22 -54 -52 -54zM107 -237c-24 0 -46 21 -46 44s13 42 13 96c0 29 24 53 53 53s53 -24 53 -53c0 -42 -15 -86 -28 -107c-13 -23 -29 -33 -45 -33z" />
    <glyph glyph-name="ldot" unicode="&#x140;" horiz-adv-x="361" 
d="M129 -11c-30 0 -53 23 -53 54v664c0 31 22 54 53 54c30 0 52 -23 52 -54v-664c0 -31 -22 -54 -52 -54zM308 240c-44 0 -79 34 -79 77s35 78 79 78c43 0 77 -35 77 -78s-34 -77 -77 -77z" />
    <glyph glyph-name="lslash" unicode="&#x142;" horiz-adv-x="350" 
d="M267 436c25 0 46 -20 45 -45c0 -17 -10 -33 -27 -41l-65 -30v-277c0 -31 -22 -54 -52 -54s-53 23 -53 54v239l-18 -8c-5 -2 -12 -4 -20 -4c-25 0 -46 20 -45 45c0 17 10 33 27 41l56 26v325c0 31 22 54 53 54c30 0 52 -23 52 -54v-288l27 12c5 3 12 5 20 5z" />
    <glyph glyph-name="m" unicode="m" horiz-adv-x="883" 
d="M631 502c112 0 182 -75 182 -195v-264c0 -32 -23 -54 -53 -54s-53 23 -53 54v249c0 70 -39 114 -102 114c-62 0 -108 -46 -108 -109v-254c0 -32 -23 -54 -52 -54c-31 0 -53 23 -53 54v249c0 69 -41 114 -103 114c-64 0 -108 -46 -108 -114v-249c0 -32 -22 -54 -52 -54
s-53 23 -53 54v405c0 31 22 54 53 54c28 0 50 -22 51 -51c34 32 81 51 136 51c67 0 119 -27 149 -77c37 48 97 77 166 77z" />
    <glyph glyph-name="n" unicode="n" horiz-adv-x="575" 
d="M321 502c112 0 184 -76 184 -195v-264c0 -32 -23 -54 -52 -54c-31 0 -53 23 -53 54v250c0 68 -43 114 -107 114c-65 0 -112 -48 -112 -114v-250c0 -32 -22 -54 -52 -54s-53 23 -53 54v405c0 31 22 54 53 54c29 0 51 -23 51 -54c35 34 84 54 141 54z" />
    <glyph glyph-name="nacute" unicode="&#x144;" horiz-adv-x="575" 
d="M301 564c-28 1 -47 23 -46 47c0 8 3 16 7 24l54 125c8 18 29 31 50 31c29 0 52 -24 52 -54c0 -8 -2 -17 -8 -28l-67 -118c-9 -15 -23 -28 -42 -27zM321 502c112 0 184 -76 184 -195v-264c0 -32 -23 -54 -52 -54c-31 0 -53 23 -53 54v250c0 68 -43 114 -107 114
c-65 0 -112 -48 -112 -114v-250c0 -32 -22 -54 -52 -54s-53 23 -53 54v405c0 31 22 54 53 54c29 0 51 -23 51 -54c35 34 84 54 141 54z" />
    <glyph glyph-name="ncaron" unicode="&#x148;" horiz-adv-x="575" 
d="M243 585l-102 130c-8 9 -12 17 -12 30c0 24 20 42 42 42c12 0 24 -6 30 -14l82 -93l81 93c7 8 18 14 31 14c22 0 42 -18 42 -42c0 -13 -5 -21 -12 -30l-103 -130c-11 -14 -25 -19 -39 -19s-28 5 -40 19zM321 502c112 0 184 -76 184 -195v-264c0 -32 -23 -54 -52 -54
c-31 0 -53 23 -53 54v250c0 68 -43 114 -107 114c-65 0 -112 -48 -112 -114v-250c0 -32 -22 -54 -52 -54s-53 23 -53 54v405c0 31 22 54 53 54c29 0 51 -23 51 -54c35 34 84 54 141 54z" />
    <glyph glyph-name="ncommaaccent" unicode="&#x146;" horiz-adv-x="575" 
d="M321 502c112 0 184 -76 184 -195v-264c0 -32 -23 -54 -52 -54c-31 0 -53 23 -53 54v250c0 68 -43 114 -107 114c-65 0 -112 -48 -112 -114v-250c0 -32 -22 -54 -52 -54s-53 23 -53 54v405c0 31 22 54 53 54c29 0 51 -23 51 -54c35 34 84 54 141 54zM289 -44
c29 0 53 -24 53 -53c0 -42 -15 -86 -28 -107c-13 -23 -29 -33 -45 -33c-24 0 -46 21 -46 44s13 42 13 96c0 29 24 53 53 53z" />
    <glyph glyph-name="eng" unicode="&#x14b;" horiz-adv-x="575" 
d="M321 502c112 0 184 -76 184 -195v-327c0 -114 -73 -171 -173 -171c-18 0 -33 2 -46 5c-22 6 -37 23 -37 45c0 26 19 46 45 46c7 0 12 -1 20 -1c48 0 86 21 86 85v304c0 68 -43 114 -107 114c-65 0 -112 -48 -112 -114v-250c0 -32 -22 -54 -52 -54s-53 23 -53 54v405
c0 31 22 54 53 54c29 0 51 -23 51 -54c35 34 84 54 141 54z" />
    <glyph glyph-name="ntilde" unicode="&#xf1;" horiz-adv-x="575" 
d="M151 587c-26 0 -43 20 -43 48c0 68 42 114 100 114c24 0 49 -9 70 -24l26 -20c22 -16 30 -22 42 -22c17 0 25 11 28 30c4 23 20 37 41 37c26 0 43 -20 43 -48c0 -67 -41 -115 -99 -115c-25 0 -50 9 -71 25l-27 20c-21 17 -29 22 -41 22c-16 0 -26 -11 -28 -30
c-4 -23 -20 -37 -41 -37zM321 502c112 0 184 -76 184 -195v-264c0 -32 -23 -54 -52 -54c-31 0 -53 23 -53 54v250c0 68 -43 114 -107 114c-65 0 -112 -48 -112 -114v-250c0 -32 -22 -54 -52 -54s-53 23 -53 54v405c0 31 22 54 53 54c29 0 51 -23 51 -54c35 34 84 54 141 54z
" />
    <glyph glyph-name="o" unicode="o" horiz-adv-x="609" 
d="M304 502c146 0 261 -113 261 -256s-115 -257 -261 -257c-145 1 -259 114 -259 257c0 144 114 256 259 256zM305 406c-88 -1 -153 -69 -153 -161c0 -91 65 -159 152 -159s153 69 153 159c0 92 -66 160 -152 161z" />
    <glyph glyph-name="oacute" unicode="&#xf3;" horiz-adv-x="609" 
d="M323 564c-28 1 -47 23 -46 47c0 8 3 16 7 24l54 125c8 18 29 31 50 31c29 0 52 -24 52 -54c0 -8 -2 -17 -8 -28l-67 -118c-9 -15 -23 -28 -42 -27zM304 502c146 0 261 -113 261 -256s-115 -257 -261 -257c-145 1 -259 114 -259 257c0 144 114 256 259 256zM305 406
c-88 -1 -153 -69 -153 -161c0 -91 65 -159 152 -159s153 69 153 159c0 92 -66 160 -152 161z" />
    <glyph glyph-name="obreve" unicode="&#x14f;" horiz-adv-x="609" 
d="M305 577c-86 0 -161 69 -161 145c0 25 18 45 42 45c23 0 37 -13 42 -37c6 -41 38 -70 77 -70c40 0 71 29 78 70c5 23 20 37 41 37c24 0 43 -20 43 -45c0 -78 -73 -145 -162 -145zM304 502c146 0 261 -113 261 -256s-115 -257 -261 -257c-145 1 -259 114 -259 257
c0 144 114 256 259 256zM305 406c-88 -1 -153 -69 -153 -161c0 -91 65 -159 152 -159s153 69 153 159c0 92 -66 160 -152 161z" />
    <glyph glyph-name="ocircumflex" unicode="&#xf4;" horiz-adv-x="609" 
d="M193 566c-22 0 -42 18 -42 42c0 13 4 21 12 30l102 130c12 14 26 19 40 19s28 -5 39 -19l103 -130c7 -9 12 -17 12 -30c0 -24 -20 -42 -42 -42c-13 0 -24 6 -31 14l-81 93l-82 -93c-6 -8 -18 -14 -30 -14zM304 502c146 0 261 -113 261 -256s-115 -257 -261 -257
c-145 1 -259 114 -259 257c0 144 114 256 259 256zM304 86c87 0 153 69 153 159c0 92 -66 160 -152 161c-88 -1 -153 -69 -153 -161c0 -91 65 -159 152 -159z" />
    <glyph glyph-name="odieresis" unicode="&#xf6;" horiz-adv-x="609" 
d="M193 740c38 0 67 -28 67 -66c0 -35 -30 -65 -67 -65c-36 0 -68 31 -68 65c0 36 31 66 68 66zM417 740c38 0 68 -28 68 -66c0 -35 -31 -65 -68 -65c-36 0 -68 31 -68 65c0 36 31 66 68 66zM304 502c146 0 261 -113 261 -256s-115 -257 -261 -257c-145 1 -259 114 -259 257
c0 144 114 256 259 256zM305 406c-88 -1 -153 -69 -153 -161c0 -91 65 -159 152 -159s153 69 153 159c0 92 -66 160 -152 161z" />
    <glyph glyph-name="ograve" unicode="&#xf2;" horiz-adv-x="609" 
d="M287 564c-19 -1 -33 12 -42 27l-67 118c-6 11 -8 20 -8 28c0 30 23 54 52 54c21 0 42 -13 50 -31l54 -125c4 -8 7 -16 7 -24c1 -24 -18 -46 -46 -47zM304 502c146 0 261 -113 261 -256s-115 -257 -261 -257c-145 1 -259 114 -259 257c0 144 114 256 259 256zM305 406
c-88 -1 -153 -69 -153 -161c0 -91 65 -159 152 -159s153 69 153 159c0 92 -66 160 -152 161z" />
    <glyph glyph-name="ohungarumlaut" unicode="&#x151;" horiz-adv-x="609" 
d="M230 564c-28 1 -47 23 -46 47c0 8 3 16 7 24l54 125c8 18 29 31 50 31c29 0 52 -24 52 -54c0 -8 -2 -17 -8 -28l-67 -118c-9 -15 -23 -28 -42 -27zM406 564c-28 1 -47 23 -46 47c0 8 3 16 7 24l54 125c8 18 29 31 50 31c29 0 52 -24 52 -54c0 -8 -2 -17 -8 -28l-67 -118
c-9 -15 -23 -28 -42 -27zM304 502c146 0 261 -113 261 -256s-115 -257 -261 -257c-145 1 -259 114 -259 257c0 144 114 256 259 256zM305 406c-88 -1 -153 -69 -153 -161c0 -91 65 -159 152 -159s153 69 153 159c0 92 -66 160 -152 161z" />
    <glyph glyph-name="omacron" unicode="&#x14d;" horiz-adv-x="609" 
d="M411 716c26 0 44 -18 44 -42s-18 -42 -44 -42h-212c-25 0 -44 18 -44 42s19 42 44 42h212zM304 502c146 0 261 -113 261 -256s-115 -257 -261 -257c-145 1 -259 114 -259 257c0 144 114 256 259 256zM305 406c-88 -1 -153 -69 -153 -161c0 -91 65 -159 152 -159
s153 69 153 159c0 92 -66 160 -152 161z" />
    <glyph glyph-name="oslash" unicode="&#xf8;" horiz-adv-x="617" 
d="M559 432l-38 -38c30 -42 47 -93 47 -149c0 -142 -116 -256 -261 -256c-55 0 -105 16 -147 45l-38 -39c-12 -11 -22 -17 -36 -17c-25 0 -45 21 -45 46c0 13 5 24 17 35l37 37c-30 42 -47 93 -47 149c0 144 115 257 260 257c55 0 106 -17 148 -45l38 38c12 12 23 17 35 17
c25 0 46 -21 46 -45c0 -14 -5 -24 -16 -35zM308 411c-93 0 -160 -69 -160 -166c0 -32 7 -61 21 -85l226 227c-25 15 -54 24 -87 24zM307 78c92 0 161 71 161 167c0 32 -7 60 -20 85l-228 -227c25 -16 54 -25 87 -25z" />
    <glyph glyph-name="oslashacute" unicode="&#x1ff;" horiz-adv-x="617" 
d="M327 564c-28 1 -47 23 -46 47c0 8 3 16 7 24l54 125c8 18 29 31 50 31c29 0 52 -24 52 -54c0 -8 -2 -17 -8 -28l-67 -118c-9 -15 -23 -28 -42 -27zM559 432l-38 -38c30 -42 47 -93 47 -149c0 -142 -116 -256 -261 -256c-55 0 -105 16 -147 45l-38 -39
c-12 -11 -22 -17 -36 -17c-25 0 -45 21 -45 46c0 13 5 24 17 35l37 37c-30 42 -47 93 -47 149c0 144 115 257 260 257c55 0 106 -17 148 -45l38 38c12 12 23 17 35 17c25 0 46 -21 46 -45c0 -14 -5 -24 -16 -35zM308 411c-93 0 -160 -69 -160 -166c0 -32 7 -61 21 -85
l226 227c-25 15 -54 24 -87 24zM307 78c92 0 161 71 161 167c0 32 -7 60 -20 85l-228 -227c25 -16 54 -25 87 -25z" />
    <glyph glyph-name="otilde" unicode="&#xf5;" horiz-adv-x="609" 
d="M381 587c-25 0 -50 9 -71 25l-27 20c-21 17 -29 22 -41 22c-16 0 -26 -11 -28 -30c-4 -23 -20 -37 -41 -37c-26 0 -43 20 -43 48c0 68 42 114 100 114c24 0 49 -9 70 -24l26 -20c22 -16 30 -22 42 -22c17 0 25 11 28 30c4 23 20 37 41 37c26 0 43 -20 43 -48
c0 -67 -41 -115 -99 -115zM304 502c146 0 261 -113 261 -256s-115 -257 -261 -257c-145 1 -259 114 -259 257c0 144 114 256 259 256zM305 406c-88 -1 -153 -69 -153 -161c0 -91 65 -159 152 -159s153 69 153 159c0 92 -66 160 -152 161z" />
    <glyph glyph-name="oe" unicode="&#x153;" horiz-adv-x="962" 
d="M690 502c131 0 228 -96 228 -228v-5c0 -36 -23 -58 -60 -58h-308c12 -81 68 -129 154 -129c43 0 83 13 115 38c9 7 18 10 27 10c25 0 44 -19 44 -44c0 -18 -7 -30 -26 -44c-45 -35 -100 -53 -163 -53c-86 0 -160 40 -204 105c-41 -65 -112 -105 -196 -105
c-143 0 -256 112 -256 256s114 257 257 257c84 0 154 -40 195 -105c43 64 113 105 193 105zM687 413c-69 0 -121 -47 -136 -120h262c-2 71 -52 120 -126 120zM302 86c85 0 146 66 146 159c0 94 -61 160 -145 160c-87 0 -151 -68 -151 -160s64 -159 150 -159z" />
    <glyph glyph-name="p" unicode="p" horiz-adv-x="631" 
d="M345 502c139 0 241 -109 241 -256c0 -148 -102 -257 -241 -257c-69 0 -127 27 -164 71v-198c0 -31 -22 -54 -52 -54s-53 23 -53 54v588c0 30 22 53 53 53c29 0 51 -23 51 -53v-20c36 45 95 72 165 72zM328 85c87 0 150 68 150 160c0 93 -63 161 -150 161
c-88 0 -148 -65 -148 -160c0 -96 59 -161 148 -161z" />
    <glyph glyph-name="thorn" unicode="&#xfe;" horiz-adv-x="631" 
d="M345 502c139 0 241 -109 241 -256c0 -148 -102 -257 -241 -257c-69 0 -127 27 -164 71v-198c0 -31 -22 -54 -52 -54s-53 23 -53 54v845c0 31 22 54 53 54c30 0 52 -22 52 -54v-276c36 44 95 71 164 71zM328 85c87 0 150 68 150 160c0 93 -63 161 -150 161
c-88 0 -148 -65 -148 -160c0 -96 59 -161 148 -161z" />
    <glyph glyph-name="q" unicode="q" horiz-adv-x="631" 
d="M503 502c29 0 52 -23 52 -54v-586c0 -31 -23 -54 -53 -54s-53 23 -53 54v197c-37 -43 -95 -70 -164 -70c-138 0 -240 109 -240 257c0 147 102 256 240 256c71 0 130 -28 166 -73v19c0 31 22 54 52 54zM303 85c88 0 148 66 148 161s-60 160 -148 160
c-87 0 -151 -68 -151 -161c0 -92 64 -160 151 -160z" />
    <glyph glyph-name="r" unicode="r" horiz-adv-x="375" 
d="M317 496c29 0 50 -20 50 -48c0 -29 -21 -49 -51 -51c-80 -2 -135 -56 -135 -135v-219c0 -32 -22 -54 -52 -54s-53 23 -53 54v405c0 31 22 54 53 54c29 0 51 -23 51 -54v-15c33 39 82 63 137 63z" />
    <glyph glyph-name="racute" unicode="&#x155;" horiz-adv-x="375" 
d="M200 564c-28 1 -47 23 -46 47c0 8 3 16 7 24l54 125c8 18 29 31 50 31c29 0 52 -24 52 -54c0 -8 -2 -17 -8 -28l-67 -118c-9 -15 -23 -28 -42 -27zM317 496c29 0 50 -20 50 -48c0 -29 -21 -49 -51 -51c-80 -2 -135 -56 -135 -135v-219c0 -32 -22 -54 -52 -54
s-53 23 -53 54v405c0 31 22 54 53 54c29 0 51 -23 51 -54v-15c33 39 82 63 137 63z" />
    <glyph glyph-name="rcaron" unicode="&#x159;" horiz-adv-x="375" 
d="M182 566c-14 0 -28 5 -40 19l-102 130c-8 9 -12 17 -12 30c0 24 20 42 42 42c12 0 24 -6 30 -14l82 -93l81 93c7 8 18 14 31 14c22 0 42 -18 42 -42c0 -13 -5 -21 -12 -30l-103 -130c-11 -14 -25 -19 -39 -19zM317 496c29 0 50 -20 50 -48c0 -29 -21 -49 -51 -51
c-80 -2 -135 -56 -135 -135v-219c0 -32 -22 -54 -52 -54s-53 23 -53 54v405c0 31 22 54 53 54c29 0 51 -23 51 -54v-15c33 39 82 63 137 63z" />
    <glyph glyph-name="rcommaaccent" unicode="&#x157;" horiz-adv-x="375" 
d="M317 496c29 0 50 -20 50 -48c0 -29 -21 -49 -51 -51c-80 -2 -135 -56 -135 -135v-219c0 -32 -22 -54 -52 -54s-53 23 -53 54v405c0 31 22 54 53 54c29 0 51 -23 51 -54v-15c33 39 82 63 137 63zM126 -44c29 0 53 -24 53 -53c0 -42 -15 -86 -28 -107
c-13 -23 -29 -33 -45 -33c-24 0 -46 21 -46 44s13 42 13 96c0 29 24 53 53 53z" />
    <glyph glyph-name="s" unicode="s" horiz-adv-x="455" 
d="M228 -11c-76 0 -138 31 -180 76c-10 9 -15 20 -15 34c0 25 21 46 47 46c11 0 22 -4 33 -14c31 -29 68 -51 115 -51c43 0 79 18 79 55c0 32 -29 45 -69 61l-50 21c-79 33 -128 69 -128 143c0 91 76 142 173 142c63 0 118 -23 156 -60c11 -10 16 -22 16 -35
c0 -25 -20 -45 -44 -45c-11 0 -20 5 -33 15c-26 20 -60 34 -97 34c-39 0 -67 -15 -67 -47c0 -27 20 -40 65 -58l47 -19c89 -37 134 -76 134 -148c0 -99 -84 -150 -182 -150z" />
    <glyph glyph-name="sacute" unicode="&#x15b;" horiz-adv-x="455" 
d="M249 564c-28 1 -47 23 -46 47c0 8 3 16 7 24l54 125c8 18 29 31 50 31c29 0 52 -24 52 -54c0 -8 -2 -17 -8 -28l-67 -118c-9 -15 -23 -28 -42 -27zM228 -11c-76 0 -138 31 -180 76c-10 9 -15 20 -15 34c0 25 21 46 47 46c11 0 22 -4 33 -14c31 -29 68 -51 115 -51
c43 0 79 18 79 55c0 32 -29 45 -69 61l-50 21c-79 33 -128 69 -128 143c0 91 76 142 173 142c63 0 118 -23 156 -60c11 -10 16 -22 16 -35c0 -25 -20 -45 -44 -45c-11 0 -20 5 -33 15c-26 20 -60 34 -97 34c-39 0 -67 -15 -67 -47c0 -27 20 -40 65 -58l47 -19
c89 -37 134 -76 134 -148c0 -99 -84 -150 -182 -150z" />
    <glyph glyph-name="scaron" unicode="&#x161;" horiz-adv-x="455" 
d="M191 585l-102 130c-8 9 -12 17 -12 30c0 24 20 42 42 42c12 0 24 -6 30 -14l82 -93l81 93c7 8 18 14 31 14c22 0 42 -18 42 -42c0 -13 -5 -21 -12 -30l-103 -130c-11 -14 -25 -19 -39 -19s-28 5 -40 19zM276 287c89 -37 134 -76 134 -148c0 -99 -84 -150 -182 -150
c-76 0 -138 31 -180 76c-10 9 -15 20 -15 34c0 25 21 46 47 46c11 0 22 -4 33 -14c31 -29 68 -51 115 -51c43 0 79 18 79 55c0 32 -29 45 -69 61l-50 21c-79 33 -128 69 -128 143c0 91 76 142 173 142c63 0 118 -23 156 -60c11 -10 16 -22 16 -35c0 -25 -20 -45 -44 -45
c-11 0 -20 5 -33 15c-26 20 -60 34 -97 34c-39 0 -67 -15 -67 -47c0 -27 20 -40 65 -58z" />
    <glyph glyph-name="scedilla" unicode="&#x15f;" horiz-adv-x="455" 
d="M410 139c0 -72 -44 -118 -105 -138c13 -23 22 -48 22 -71c0 -73 -58 -121 -145 -121c-25 0 -43 1 -59 8c-18 7 -28 18 -28 36c0 21 17 38 38 38c13 0 20 -3 39 -3c34 0 64 16 64 48c0 23 -9 39 -19 53c-71 3 -129 33 -169 76c-10 9 -15 20 -15 34c0 25 21 46 47 46
c11 0 22 -4 33 -14c31 -29 68 -51 115 -51c43 0 79 18 79 55c0 32 -29 45 -69 61l-50 21c-79 33 -128 69 -128 143c0 91 76 142 173 142c63 0 118 -23 156 -60c11 -10 16 -22 16 -35c0 -25 -20 -45 -44 -45c-11 0 -20 5 -33 15c-26 20 -60 34 -97 34c-39 0 -67 -15 -67 -47
c0 -27 20 -40 65 -58l47 -19c89 -37 134 -76 134 -148z" />
    <glyph glyph-name="scircumflex" unicode="&#x15d;" horiz-adv-x="455" 
d="M119 566c-22 0 -42 18 -42 42c0 13 4 21 12 30l102 130c12 14 26 19 40 19s28 -5 39 -19l103 -130c7 -9 12 -17 12 -30c0 -24 -20 -42 -42 -42c-13 0 -24 6 -31 14l-81 93l-82 -93c-6 -8 -18 -14 -30 -14zM276 287c89 -37 134 -76 134 -148c0 -99 -84 -150 -182 -150
c-76 0 -138 31 -180 76c-10 9 -15 20 -15 34c0 25 21 46 47 46c11 0 22 -4 33 -14c31 -29 68 -51 115 -51c43 0 79 18 79 55c0 32 -29 45 -69 61l-50 21c-79 33 -128 69 -128 143c0 91 76 142 173 142c63 0 118 -23 156 -60c11 -10 16 -22 16 -35c0 -25 -20 -45 -44 -45
c-11 0 -20 5 -33 15c-26 20 -60 34 -97 34c-39 0 -67 -15 -67 -47c0 -27 20 -40 65 -58z" />
    <glyph glyph-name="scommaaccent" unicode="&#x219;" horiz-adv-x="455" 
d="M228 -11c-76 0 -138 31 -180 76c-10 9 -15 20 -15 34c0 25 21 46 47 46c11 0 22 -4 33 -14c31 -29 68 -51 115 -51c43 0 79 18 79 55c0 32 -29 45 -69 61l-50 21c-79 33 -128 69 -128 143c0 91 76 142 173 142c63 0 118 -23 156 -60c11 -10 16 -22 16 -35
c0 -25 -20 -45 -44 -45c-11 0 -20 5 -33 15c-26 20 -60 34 -97 34c-39 0 -67 -15 -67 -47c0 -27 20 -40 65 -58l47 -19c89 -37 134 -76 134 -148c0 -99 -84 -150 -182 -150zM217 -237c-24 0 -46 21 -46 44s13 42 13 96c0 29 24 53 53 53s53 -24 53 -53
c0 -42 -15 -86 -28 -107c-13 -23 -29 -33 -45 -33z" />
    <glyph glyph-name="germandbls" unicode="&#xdf;" horiz-adv-x="630" 
d="M425 -12c-59 0 -112 18 -151 50c-12 9 -20 23 -20 38c0 24 21 45 46 45c8 0 16 -3 28 -10c32 -20 65 -31 100 -31c45 0 71 19 71 52c0 28 -14 40 -82 82c-77 45 -105 78 -105 123c0 22 7 47 18 76l38 102c10 27 15 50 15 69c0 51 -34 81 -87 81c-72 0 -116 -52 -116 -139
v-483c0 -31 -22 -54 -52 -54s-52 23 -52 54v488c0 144 85 230 223 230c116 0 190 -60 190 -154c0 -27 -5 -54 -15 -80l-43 -120c-8 -19 -12 -35 -12 -48c0 -27 11 -39 81 -81c76 -46 104 -85 104 -143c0 -88 -72 -147 -179 -147z" />
    <glyph glyph-name="uni0259" unicode="&#x259;" horiz-adv-x="570" 
d="M261 502c152 0 264 -109 264 -256c0 -145 -110 -257 -253 -257c-131 0 -228 96 -228 228v5c0 36 23 58 60 58h314c-14 79 -73 129 -160 129c-42 0 -82 -13 -115 -38c-9 -6 -18 -10 -27 -10c-25 0 -44 19 -44 44c0 18 7 30 26 44c47 35 102 53 163 53zM275 78
c71 0 125 48 141 120h-267c2 -71 52 -120 126 -120z" />
    <glyph glyph-name="t" unicode="t" horiz-adv-x="398" 
d="M332 85c28 0 46 -17 46 -42c0 -22 -11 -37 -31 -44c-17 -7 -38 -10 -66 -10c-117 0 -181 60 -181 171v240h-39c-26 0 -47 19 -47 45s21 46 47 46h39v86c0 30 23 54 53 54s53 -23 53 -54v-86h105c27 0 47 -20 47 -46s-20 -45 -47 -45h-105v-231c0 -60 29 -85 96 -85
c12 0 21 1 30 1z" />
    <glyph glyph-name="tbar" unicode="&#x167;" horiz-adv-x="412" 
d="M342 85c28 0 46 -17 46 -42c0 -22 -11 -37 -31 -45c-17 -6 -39 -9 -69 -9c-117 0 -180 60 -180 171v48h-40c-25 0 -44 19 -44 43c0 25 19 44 44 44h40v108h-40c-25 0 -44 19 -44 44c0 24 19 43 44 43h40v87c0 30 22 54 53 54c29 0 52 -23 52 -54v-87h110
c25 0 44 -19 44 -43c0 -25 -19 -44 -44 -44h-110v-108h110c25 0 44 -19 44 -44c0 -24 -19 -43 -44 -43h-110v-39c0 -60 29 -85 96 -85c12 0 24 1 33 1z" />
    <glyph glyph-name="tcaron" unicode="&#x165;" horiz-adv-x="398" 
d="M367 770c31 0 63 -28 50 -72l-32 -129c-4 -13 -16 -35 -45 -35c-27 0 -51 24 -46 58l19 129c3 26 25 49 54 49zM332 85c28 0 46 -17 46 -42c0 -22 -11 -37 -31 -44c-17 -7 -38 -10 -66 -10c-117 0 -181 60 -181 171v240h-39c-26 0 -47 19 -47 45s21 46 47 46h39v86
c0 30 23 54 53 54s53 -23 53 -54v-86h105c27 0 47 -20 47 -46s-20 -45 -47 -45h-105v-231c0 -60 29 -85 96 -85c12 0 21 1 30 1z" />
    <glyph glyph-name="uni0163" unicode="&#x163;" horiz-adv-x="398" 
d="M332 85c28 0 46 -17 46 -42c0 -22 -11 -37 -31 -44c-13 -6 -29 -9 -49 -10c10 -19 16 -40 16 -59c0 -73 -58 -121 -145 -121c-25 0 -43 1 -59 8c-18 7 -28 18 -28 36c0 21 17 38 38 38c13 0 20 -3 39 -3c34 0 64 16 64 48c0 25 -11 42 -22 57c-3 4 -6 7 -8 11
c-61 24 -93 77 -93 156v240h-39c-26 0 -47 19 -47 45s21 46 47 46h39v86c0 30 23 54 53 54s53 -23 53 -54v-86h105c27 0 47 -20 47 -46s-20 -45 -47 -45h-105v-231c0 -60 29 -85 96 -85c12 0 21 1 30 1z" />
    <glyph glyph-name="u" unicode="u" horiz-adv-x="570" 
d="M286 -11c-127 0 -215 89 -215 217v242c0 31 22 54 52 54s52 -23 52 -54v-250c0 -65 46 -112 111 -112c63 0 108 47 108 112v250c0 31 22 54 53 54c30 0 52 -23 52 -54v-242c0 -128 -88 -217 -213 -217z" />
    <glyph glyph-name="uacute" unicode="&#xfa;" horiz-adv-x="570" 
d="M303 564c-28 1 -47 23 -46 47c0 8 3 16 7 24l54 125c8 18 29 31 50 31c29 0 52 -24 52 -54c0 -8 -2 -17 -8 -28l-67 -118c-9 -15 -23 -28 -42 -27zM286 -11c-127 0 -215 89 -215 217v242c0 31 22 54 52 54s52 -23 52 -54v-250c0 -65 46 -112 111 -112
c63 0 108 47 108 112v250c0 31 22 54 53 54c30 0 52 -23 52 -54v-242c0 -128 -88 -217 -213 -217z" />
    <glyph glyph-name="ubreve" unicode="&#x16d;" horiz-adv-x="570" 
d="M285 577c-86 0 -161 69 -161 145c0 25 18 45 42 45c23 0 37 -13 42 -37c6 -41 38 -70 77 -70c40 0 71 29 78 70c5 23 20 37 41 37c24 0 43 -20 43 -45c0 -78 -73 -145 -162 -145zM286 -11c-127 0 -215 89 -215 217v242c0 31 22 54 52 54s52 -23 52 -54v-250
c0 -65 46 -112 111 -112c63 0 108 47 108 112v250c0 31 22 54 53 54c30 0 52 -23 52 -54v-242c0 -128 -88 -217 -213 -217z" />
    <glyph glyph-name="uni01D4" unicode="&#x1d4;" horiz-adv-x="570" 
d="M245 585l-102 130c-8 9 -12 17 -12 30c0 24 20 42 42 42c12 0 24 -6 30 -14l82 -93l81 93c7 8 18 14 31 14c22 0 42 -18 42 -42c0 -13 -5 -21 -12 -30l-103 -130c-11 -14 -25 -19 -39 -19s-28 5 -40 19zM447 502c30 0 52 -23 52 -54v-242c0 -128 -88 -217 -213 -217
c-127 0 -215 89 -215 217v242c0 31 22 54 52 54s52 -23 52 -54v-250c0 -65 46 -112 111 -112c63 0 108 47 108 112v250c0 31 22 54 53 54z" />
    <glyph glyph-name="ucircumflex" unicode="&#xfb;" horiz-adv-x="570" 
d="M173 566c-22 0 -42 18 -42 42c0 13 4 21 12 30l102 130c12 14 26 19 40 19s28 -5 39 -19l103 -130c7 -9 12 -17 12 -30c0 -24 -20 -42 -42 -42c-13 0 -24 6 -31 14l-81 93l-82 -93c-6 -8 -18 -14 -30 -14zM447 502c30 0 52 -23 52 -54v-242c0 -128 -88 -217 -213 -217
c-127 0 -215 89 -215 217v242c0 31 22 54 52 54s52 -23 52 -54v-250c0 -65 46 -112 111 -112c63 0 108 47 108 112v250c0 31 22 54 53 54z" />
    <glyph glyph-name="udieresis" unicode="&#xfc;" horiz-adv-x="570" 
d="M173 740c38 0 67 -28 67 -66c0 -35 -30 -65 -67 -65c-36 0 -68 31 -68 65c0 36 31 66 68 66zM397 740c38 0 68 -28 68 -66c0 -35 -31 -65 -68 -65c-36 0 -68 31 -68 65c0 36 31 66 68 66zM286 -11c-127 0 -215 89 -215 217v242c0 31 22 54 52 54s52 -23 52 -54v-250
c0 -65 46 -112 111 -112c63 0 108 47 108 112v250c0 31 22 54 53 54c30 0 52 -23 52 -54v-242c0 -128 -88 -217 -213 -217z" />
    <glyph glyph-name="ugrave" unicode="&#xf9;" horiz-adv-x="570" 
d="M267 564c-19 -1 -33 12 -42 27l-67 118c-6 11 -8 20 -8 28c0 30 23 54 52 54c21 0 42 -13 50 -31l54 -125c4 -8 7 -16 7 -24c1 -24 -18 -46 -46 -47zM286 -11c-127 0 -215 89 -215 217v242c0 31 22 54 52 54s52 -23 52 -54v-250c0 -65 46 -112 111 -112
c63 0 108 47 108 112v250c0 31 22 54 53 54c30 0 52 -23 52 -54v-242c0 -128 -88 -217 -213 -217z" />
    <glyph glyph-name="uhungarumlaut" unicode="&#x171;" horiz-adv-x="570" 
d="M210 564c-28 1 -47 23 -46 47c0 8 3 16 7 24l54 125c8 18 29 31 50 31c29 0 52 -24 52 -54c0 -8 -2 -17 -8 -28l-67 -118c-9 -15 -23 -28 -42 -27zM386 564c-28 1 -47 23 -46 47c0 8 3 16 7 24l54 125c8 18 29 31 50 31c29 0 52 -24 52 -54c0 -8 -2 -17 -8 -28l-67 -118
c-9 -15 -23 -28 -42 -27zM286 -11c-127 0 -215 89 -215 217v242c0 31 22 54 52 54s52 -23 52 -54v-250c0 -65 46 -112 111 -112c63 0 108 47 108 112v250c0 31 22 54 53 54c30 0 52 -23 52 -54v-242c0 -128 -88 -217 -213 -217z" />
    <glyph glyph-name="umacron" unicode="&#x16b;" horiz-adv-x="570" 
d="M391 716c26 0 44 -18 44 -42s-18 -42 -44 -42h-212c-25 0 -44 18 -44 42s19 42 44 42h212zM286 -11c-127 0 -215 89 -215 217v242c0 31 22 54 52 54s52 -23 52 -54v-250c0 -65 46 -112 111 -112c63 0 108 47 108 112v250c0 31 22 54 53 54c30 0 52 -23 52 -54v-242
c0 -128 -88 -217 -213 -217z" />
    <glyph glyph-name="uni021B" unicode="&#x21b;" horiz-adv-x="398" 
d="M332 85c28 0 46 -17 46 -42c0 -22 -11 -37 -31 -44c-17 -7 -38 -10 -66 -10c-117 0 -181 60 -181 171v240h-39c-26 0 -47 19 -47 45s21 46 47 46h39v86c0 30 23 54 53 54s53 -23 53 -54v-86h105c27 0 47 -20 47 -46s-20 -45 -47 -45h-105v-231c0 -60 29 -85 96 -85
c12 0 21 1 30 1zM224 -44c29 0 53 -24 53 -53c0 -42 -15 -86 -28 -107c-13 -23 -29 -33 -45 -33c-24 0 -46 21 -46 44s13 42 13 96c0 29 24 53 53 53z" />
    <glyph glyph-name="uogonek" unicode="&#x173;" horiz-adv-x="570" 
d="M447 502c30 0 52 -23 52 -54v-242c0 -73 -29 -133 -76 -172l-54 -49c-33 -29 -43 -48 -43 -65c0 -21 18 -32 44 -32c8 0 19 2 25 2c19 0 34 -15 34 -35c0 -19 -11 -33 -32 -39c-14 -5 -36 -7 -56 -7c-69 0 -114 37 -114 93c0 30 12 56 43 87c-118 8 -199 94 -199 217v242
c0 31 22 54 52 54s52 -23 52 -54v-250c0 -65 46 -112 111 -112c63 0 108 47 108 112v250c0 31 22 54 53 54z" />
    <glyph glyph-name="uring" unicode="&#x16f;" horiz-adv-x="570" 
d="M284 788c68 0 119 -49 119 -115c0 -65 -51 -115 -119 -115c-66 0 -118 50 -118 115s51 115 118 115zM285 719c-26 0 -46 -19 -46 -46c0 -26 20 -45 46 -45s45 19 45 45s-20 46 -45 46zM286 -11c-127 0 -215 89 -215 217v242c0 31 22 54 52 54s52 -23 52 -54v-250
c0 -65 46 -112 111 -112c63 0 108 47 108 112v250c0 31 22 54 53 54c30 0 52 -23 52 -54v-242c0 -128 -88 -217 -213 -217z" />
    <glyph glyph-name="utilde" unicode="&#x169;" horiz-adv-x="570" 
d="M361 587c-25 0 -50 9 -71 25l-27 20c-21 17 -29 22 -41 22c-16 0 -26 -11 -28 -30c-4 -23 -20 -37 -41 -37c-26 0 -43 20 -43 48c0 68 42 114 100 114c24 0 49 -9 70 -24l26 -20c22 -16 30 -22 42 -22c17 0 25 11 28 30c4 23 20 37 41 37c26 0 43 -20 43 -48
c0 -67 -41 -115 -99 -115zM286 -11c-127 0 -215 89 -215 217v242c0 31 22 54 52 54s52 -23 52 -54v-250c0 -65 46 -112 111 -112c63 0 108 47 108 112v250c0 31 22 54 53 54c30 0 52 -23 52 -54v-242c0 -128 -88 -217 -213 -217z" />
    <glyph glyph-name="v" unicode="v" horiz-adv-x="549" 
d="M474 502c28 0 51 -24 51 -51c0 -9 -2 -17 -6 -27l-196 -403c-10 -20 -28 -32 -48 -32c-21 0 -39 12 -49 32l-195 403c-5 10 -7 18 -7 27c0 27 23 51 51 51c21 0 38 -11 48 -31l152 -320l151 320c10 20 27 31 48 31z" />
    <glyph glyph-name="w" unicode="w" horiz-adv-x="853" 
d="M779 502c28 0 52 -23 52 -51c0 -8 -2 -16 -5 -24l-178 -406c-9 -20 -26 -32 -48 -32c-20 0 -38 12 -47 31l-126 306l-127 -306c-10 -19 -27 -31 -48 -31s-38 12 -47 32l-178 406c-3 8 -5 16 -5 24c0 28 23 51 51 51c21 0 39 -12 47 -31l136 -310l120 303
c10 24 28 38 50 38c23 0 41 -14 50 -38l121 -303l136 310c8 19 26 31 46 31z" />
    <glyph glyph-name="wacute" unicode="&#x1e83;" horiz-adv-x="853" 
d="M443 564c-28 1 -47 23 -46 47c0 8 3 16 7 24l54 125c8 18 29 31 50 31c29 0 52 -24 52 -54c0 -8 -2 -17 -8 -28l-67 -118c-9 -15 -23 -28 -42 -27zM779 502c28 0 52 -23 52 -51c0 -8 -2 -16 -5 -24l-178 -406c-9 -20 -26 -32 -48 -32c-20 0 -38 12 -47 31l-126 306
l-127 -306c-10 -19 -27 -31 -48 -31s-38 12 -47 32l-178 406c-3 8 -5 16 -5 24c0 28 23 51 51 51c21 0 39 -12 47 -31l136 -310l120 303c10 24 28 38 50 38c23 0 41 -14 50 -38l121 -303l136 310c8 19 26 31 46 31z" />
    <glyph glyph-name="wcircumflex" unicode="&#x175;" horiz-adv-x="853" 
d="M313 566c-22 0 -42 18 -42 42c0 13 4 21 12 30l102 130c12 14 26 19 40 19s28 -5 39 -19l103 -130c7 -9 12 -17 12 -30c0 -24 -20 -42 -42 -42c-13 0 -24 6 -31 14l-81 93l-82 -93c-6 -8 -18 -14 -30 -14zM779 502c28 0 52 -23 52 -51c0 -8 -2 -16 -5 -24l-178 -406
c-9 -20 -26 -32 -48 -32c-20 0 -38 12 -47 31l-126 306l-127 -306c-10 -19 -27 -31 -48 -31s-38 12 -47 32l-178 406c-3 8 -5 16 -5 24c0 28 23 51 51 51c21 0 39 -12 47 -31l136 -310l120 303c10 24 28 38 50 38c23 0 41 -14 50 -38l121 -303l136 310c8 19 26 31 46 31z
" />
    <glyph glyph-name="wdieresis" unicode="&#x1e85;" horiz-adv-x="853" 
d="M313 609c-36 0 -68 31 -68 65c0 36 31 66 68 66c38 0 67 -28 67 -66c0 -35 -30 -65 -67 -65zM537 609c-36 0 -68 31 -68 65c0 36 31 66 68 66c38 0 68 -28 68 -66c0 -35 -31 -65 -68 -65zM779 502c28 0 52 -23 52 -51c0 -8 -2 -16 -5 -24l-178 -406
c-9 -20 -26 -32 -48 -32c-20 0 -38 12 -47 31l-126 306l-127 -306c-10 -19 -27 -31 -48 -31s-38 12 -47 32l-178 406c-3 8 -5 16 -5 24c0 28 23 51 51 51c21 0 39 -12 47 -31l136 -310l120 303c10 24 28 38 50 38c23 0 41 -14 50 -38l121 -303l136 310c8 19 26 31 46 31z
" />
    <glyph glyph-name="wgrave" unicode="&#x1e81;" horiz-adv-x="853" 
d="M365 591l-67 118c-6 11 -8 20 -8 28c0 30 23 54 52 54c21 0 42 -13 50 -31l54 -125c4 -8 7 -16 7 -24c1 -24 -18 -46 -46 -47c-19 -1 -33 12 -42 27zM779 502c28 0 52 -23 52 -51c0 -8 -2 -16 -5 -24l-178 -406c-9 -20 -26 -32 -48 -32c-20 0 -38 12 -47 31l-126 306
l-127 -306c-10 -19 -27 -31 -48 -31s-38 12 -47 32l-178 406c-3 8 -5 16 -5 24c0 28 23 51 51 51c21 0 39 -12 47 -31l136 -310l120 303c10 24 28 38 50 38c23 0 41 -14 50 -38l121 -303l136 310c8 19 26 31 46 31z" />
    <glyph glyph-name="x" unicode="x" horiz-adv-x="514" 
d="M458 77c10 -13 14 -25 14 -38c0 -28 -22 -50 -51 -50c-18 0 -33 9 -44 24l-120 158l-121 -158c-11 -14 -26 -24 -43 -24c-29 0 -52 22 -52 50c0 13 5 25 15 38l135 175l-121 159c-14 17 -18 28 -18 40c0 28 23 51 52 51c17 0 32 -9 43 -24l110 -147l112 147
c12 15 26 24 44 24c28 0 51 -23 51 -51c0 -12 -5 -24 -17 -40l-125 -160z" />
    <glyph glyph-name="y" unicode="y" horiz-adv-x="549" 
d="M474 502c28 0 51 -24 51 -51c0 -8 -1 -16 -5 -24l-226 -473c-49 -102 -105 -145 -191 -145c-17 0 -34 2 -47 6c-20 6 -32 24 -32 44c0 25 22 46 48 46c8 0 14 -1 20 -1c46 0 78 21 102 72l22 47l-182 403c-3 8 -6 15 -6 25c0 27 24 51 52 51c21 0 40 -12 48 -31l147 -330
l151 330c8 18 27 31 48 31z" />
    <glyph glyph-name="yacute" unicode="&#xfd;" horiz-adv-x="549" 
d="M290 564c-28 1 -47 23 -46 47c0 8 3 16 7 24l54 125c8 18 29 31 50 31c29 0 52 -24 52 -54c0 -8 -2 -17 -8 -28l-67 -118c-9 -15 -23 -28 -42 -27zM474 502c28 0 51 -24 51 -51c0 -8 -1 -16 -5 -24l-226 -473c-49 -102 -105 -145 -191 -145c-17 0 -34 2 -47 6
c-20 6 -32 24 -32 44c0 25 22 46 48 46c8 0 14 -1 20 -1c46 0 78 21 102 72l22 47l-182 403c-3 8 -6 15 -6 25c0 27 24 51 52 51c21 0 40 -12 48 -31l147 -330l151 330c8 18 27 31 48 31z" />
    <glyph glyph-name="ycircumflex" unicode="&#x177;" horiz-adv-x="549" 
d="M160 566c-22 0 -42 18 -42 42c0 13 4 21 12 30l102 130c12 14 26 19 40 19s28 -5 39 -19l103 -130c7 -9 12 -17 12 -30c0 -24 -20 -42 -42 -42c-13 0 -24 6 -31 14l-81 93l-82 -93c-6 -8 -18 -14 -30 -14zM474 502c28 0 51 -24 51 -51c0 -8 -1 -16 -5 -24l-226 -473
c-49 -102 -105 -145 -191 -145c-17 0 -34 2 -47 6c-20 6 -32 24 -32 44c0 25 22 46 48 46c8 0 14 -1 20 -1c46 0 78 21 102 72l22 47l-182 403c-3 8 -6 15 -6 25c0 27 24 51 52 51c21 0 40 -12 48 -31l147 -330l151 330c8 18 27 31 48 31z" />
    <glyph glyph-name="ydieresis" unicode="&#xff;" horiz-adv-x="549" 
d="M160 609c-36 0 -68 31 -68 65c0 36 31 66 68 66c38 0 67 -28 67 -66c0 -35 -30 -65 -67 -65zM384 609c-36 0 -68 31 -68 65c0 36 31 66 68 66c38 0 68 -28 68 -66c0 -35 -31 -65 -68 -65zM474 502c28 0 51 -24 51 -51c0 -8 -1 -16 -5 -24l-226 -473
c-49 -102 -105 -145 -191 -145c-17 0 -34 2 -47 6c-20 6 -32 24 -32 44c0 25 22 46 48 46c8 0 14 -1 20 -1c46 0 78 21 102 72l22 47l-182 403c-3 8 -6 15 -6 25c0 27 24 51 52 51c21 0 40 -12 48 -31l147 -330l151 330c8 18 27 31 48 31z" />
    <glyph glyph-name="ygrave" unicode="&#x1ef3;" horiz-adv-x="549" 
d="M212 591l-67 118c-6 11 -8 20 -8 28c0 30 23 54 52 54c21 0 42 -13 50 -31l54 -125c4 -8 7 -16 7 -24c1 -24 -18 -46 -46 -47c-19 -1 -33 12 -42 27zM474 502c28 0 51 -24 51 -51c0 -8 -1 -16 -5 -24l-226 -473c-49 -102 -105 -145 -191 -145c-17 0 -34 2 -47 6
c-20 6 -32 24 -32 44c0 25 22 46 48 46c8 0 14 -1 20 -1c46 0 78 21 102 72l22 47l-182 403c-3 8 -6 15 -6 25c0 27 24 51 52 51c21 0 40 -12 48 -31l147 -330l151 330c8 18 27 31 48 31z" />
    <glyph glyph-name="z" unicode="z" horiz-adv-x="461" 
d="M399 91c26 0 46 -19 46 -46c0 -25 -20 -45 -46 -45h-330c-25 0 -46 20 -46 45c0 14 5 24 20 42l251 313h-208c-26 0 -46 19 -46 45s20 46 46 46h305c26 0 46 -20 46 -45c0 -16 -7 -27 -17 -39l-253 -316h232z" />
    <glyph glyph-name="zacute" unicode="&#x17a;" horiz-adv-x="461" 
d="M256 564c-28 1 -47 23 -46 47c0 8 3 16 7 24l54 125c8 18 29 31 50 31c29 0 52 -24 52 -54c0 -8 -2 -17 -8 -28l-67 -118c-9 -15 -23 -28 -42 -27zM399 91c26 0 46 -19 46 -46c0 -25 -20 -45 -46 -45h-330c-25 0 -46 20 -46 45c0 14 5 24 20 42l251 313h-208
c-26 0 -46 19 -46 45s20 46 46 46h305c26 0 46 -20 46 -45c0 -16 -7 -27 -17 -39l-253 -316h232z" />
    <glyph glyph-name="zcaron" unicode="&#x17e;" horiz-adv-x="461" 
d="M198 585l-102 130c-8 9 -12 17 -12 30c0 24 20 42 42 42c12 0 24 -6 30 -14l82 -93l81 93c7 8 18 14 31 14c22 0 42 -18 42 -42c0 -13 -5 -21 -12 -30l-103 -130c-11 -14 -25 -19 -39 -19s-28 5 -40 19zM399 91c26 0 46 -19 46 -46c0 -25 -20 -45 -46 -45h-330
c-25 0 -46 20 -46 45c0 14 5 24 20 42l251 313h-208c-26 0 -46 19 -46 45s20 46 46 46h305c26 0 46 -20 46 -45c0 -16 -7 -27 -17 -39l-253 -316h232z" />
    <glyph glyph-name="zdotaccent" unicode="&#x17c;" horiz-adv-x="461" 
d="M238 606c-39 0 -70 30 -70 68s31 68 70 68c38 0 70 -30 70 -68s-32 -68 -70 -68zM399 91c26 0 46 -19 46 -46c0 -25 -20 -45 -46 -45h-330c-25 0 -46 20 -46 45c0 14 5 24 20 42l251 313h-208c-26 0 -46 19 -46 45s20 46 46 46h305c26 0 46 -20 46 -45
c0 -16 -7 -27 -17 -39l-253 -316h232z" />
    <glyph glyph-name="iacute_j.loclNLD" horiz-adv-x="514" 
d="M145 568c-28 -4 -51 14 -54 38c-1 8 0 16 3 25l31 132c5 20 23 36 44 40c29 5 56 -15 61 -45c1 -7 1 -17 -3 -28l-46 -128c-6 -17 -18 -32 -36 -34zM402 568c-28 -4 -51 14 -54 38c-1 8 0 16 3 25l31 132c5 20 23 36 44 40c29 5 56 -15 61 -45c1 -7 1 -17 -3 -28
l-46 -128c-6 -17 -18 -32 -36 -34zM128 -11c-30 0 -52 23 -52 54v405c0 31 22 54 53 54c30 0 52 -23 52 -54v-405c0 -31 -23 -54 -53 -54zM266 -191c-19 0 -33 2 -46 6c-22 6 -38 22 -38 44c0 26 20 46 46 46c7 0 11 -1 19 -1c50 0 86 19 86 90v454c0 31 22 54 53 54
c30 0 52 -23 52 -54v-468c0 -116 -69 -171 -172 -171z" />
    <glyph glyph-name="cacute.loclPLK" horiz-adv-x="552" 
d="M322 566c-28 -7 -52 10 -57 33c-2 8 -1 16 1 25l19 135c3 19 20 37 41 43c28 7 56 -10 64 -39c2 -8 2 -17 -1 -29l-34 -131c-5 -17 -15 -33 -33 -37zM305 -11c-146 0 -260 113 -260 257c0 143 114 256 260 256c86 0 160 -41 198 -100c8 -12 10 -20 10 -28
c0 -27 -21 -48 -47 -48c-14 0 -26 4 -37 17c-29 36 -69 62 -123 62c-88 0 -154 -68 -154 -159c0 -93 65 -160 154 -160c54 0 93 26 123 61c12 14 23 17 37 17c26 0 47 -21 47 -47c0 -9 -2 -17 -9 -27c-41 -61 -111 -101 -199 -101z" />
    <glyph glyph-name="nacute.loclPLK" horiz-adv-x="575" 
d="M301 566c-28 -7 -52 10 -57 33c-2 8 -1 16 1 25l19 135c3 19 20 37 41 43c28 7 56 -10 64 -39c2 -8 2 -17 -1 -29l-34 -131c-5 -17 -15 -33 -33 -37zM321 502c112 0 184 -76 184 -195v-264c0 -32 -23 -54 -52 -54c-31 0 -53 23 -53 54v250c0 68 -43 114 -107 114
c-65 0 -112 -48 -112 -114v-250c0 -32 -22 -54 -52 -54s-53 23 -53 54v405c0 31 22 54 53 54c29 0 51 -23 51 -54c35 34 84 54 141 54z" />
    <glyph glyph-name="oacute.loclPLK" horiz-adv-x="609" 
d="M323 566c-28 -7 -52 10 -57 33c-2 8 -1 16 1 25l19 135c3 19 20 37 41 43c28 7 56 -10 64 -39c2 -8 2 -17 -1 -29l-34 -131c-5 -17 -15 -33 -33 -37zM304 502c146 0 261 -113 261 -256s-115 -257 -261 -257c-145 1 -259 114 -259 257c0 144 114 256 259 256zM305 406
c-88 -1 -153 -69 -153 -161c0 -91 65 -159 152 -159s153 69 153 159c0 92 -66 160 -152 161z" />
    <glyph glyph-name="sacute.loclPLK" horiz-adv-x="455" 
d="M249 566c-28 -7 -52 10 -57 33c-2 8 -1 16 1 25l19 135c3 19 20 37 41 43c28 7 56 -10 64 -39c2 -8 2 -17 -1 -29l-34 -131c-5 -17 -15 -33 -33 -37zM228 -11c-76 0 -138 31 -180 76c-10 9 -15 20 -15 34c0 25 21 46 47 46c11 0 22 -4 33 -14c31 -29 68 -51 115 -51
c43 0 79 18 79 55c0 32 -29 45 -69 61l-50 21c-79 33 -128 69 -128 143c0 91 76 142 173 142c63 0 118 -23 156 -60c11 -10 16 -22 16 -35c0 -25 -20 -45 -44 -45c-11 0 -20 5 -33 15c-26 20 -60 34 -97 34c-39 0 -67 -15 -67 -47c0 -27 20 -40 65 -58l47 -19
c89 -37 134 -76 134 -148c0 -99 -84 -150 -182 -150z" />
    <glyph glyph-name="zacute.loclPLK" horiz-adv-x="461" 
d="M256 566c-28 -7 -52 10 -57 33c-2 8 -1 16 1 25l19 135c3 19 20 37 41 43c28 7 56 -10 64 -39c2 -8 2 -17 -1 -29l-34 -131c-5 -17 -15 -33 -33 -37zM399 91c26 0 46 -19 46 -46c0 -25 -20 -45 -46 -45h-330c-25 0 -46 20 -46 45c0 14 5 24 20 42l251 313h-208
c-26 0 -46 19 -46 45s20 46 46 46h305c26 0 46 -20 46 -45c0 -16 -7 -27 -17 -39l-253 -316h232z" />
    <glyph glyph-name="i.loclTRK.loclTRK" horiz-adv-x="257" 
d="M129 742c38 0 70 -30 70 -68s-32 -68 -70 -68c-39 0 -70 30 -70 68s31 68 70 68zM128 -11c-30 0 -52 23 -52 54v405c0 31 22 54 53 54c30 0 52 -23 52 -54v-405c0 -31 -23 -54 -53 -54z" />
    <glyph glyph-name="c.ordn" horiz-adv-x="368" 
d="M202 237c-93 0 -167 71 -167 163s74 163 167 163c47 0 91 -19 118 -53c9 -11 11 -18 11 -27c0 -21 -17 -37 -37 -37c-11 0 -20 5 -28 13c-18 17 -38 28 -64 28c-47 0 -82 -38 -82 -87s35 -87 82 -87c26 0 46 11 64 28c8 8 17 14 28 14c20 0 37 -17 37 -38
c0 -8 -2 -16 -11 -27c-27 -33 -71 -53 -118 -53z" />
    <glyph glyph-name="d.ordn" horiz-adv-x="421" 
d="M322 722c24 0 42 -18 42 -42v-402c0 -23 -17 -41 -41 -41c-23 0 -41 18 -41 40c-22 -25 -56 -40 -97 -40c-86 0 -150 69 -150 163s64 163 150 163c39 0 72 -14 94 -37v154c0 24 18 42 43 42zM202 312c46 0 78 36 78 87c0 52 -32 88 -78 88s-82 -38 -82 -87
c0 -50 36 -88 82 -88z" />
    <glyph glyph-name="e.ordn" horiz-adv-x="381" 
d="M199 563c84 0 146 -61 146 -143v-8c0 -21 -17 -38 -39 -38h-187c9 -41 40 -65 86 -65c19 0 37 5 56 15c13 6 21 12 30 12c20 0 36 -16 36 -36c0 -12 -5 -22 -16 -29c-29 -22 -67 -34 -106 -34c-97 0 -170 70 -170 163c0 92 72 163 164 163zM195 494
c-38 0 -66 -24 -75 -62h144c-2 37 -30 62 -69 62z" />
    <glyph glyph-name="egrave.ordn" horiz-adv-x="381" 
d="M157 617l-45 64c-5 7 -7 16 -7 23c0 21 17 40 40 40c16 0 29 -8 38 -25l35 -65c4 -6 6 -12 6 -19c0 -18 -15 -35 -36 -35c-10 0 -22 5 -31 17zM199 563c84 0 146 -61 146 -143v-8c0 -21 -17 -38 -39 -38h-187c9 -41 40 -65 86 -65c19 0 37 5 56 15c13 6 21 12 30 12
c20 0 36 -16 36 -36c0 -12 -5 -22 -16 -29c-29 -22 -67 -34 -106 -34c-97 0 -170 70 -170 163c0 92 72 163 164 163zM195 494c-38 0 -66 -24 -75 -62h144c-2 37 -30 62 -69 62z" />
    <glyph glyph-name="g.ordn" horiz-adv-x="421" 
d="M321 563c25 0 43 -19 43 -44v-237c0 -96 -66 -158 -167 -158c-47 0 -91 14 -126 40c-14 10 -20 20 -20 34c0 20 18 37 39 37c8 0 16 -4 26 -11c20 -15 47 -24 75 -24c55 0 88 30 88 80v15c-22 -23 -54 -36 -93 -36c-87 0 -151 64 -151 154c0 87 62 150 150 150
c39 0 71 -12 93 -33c5 19 22 33 43 33zM202 331c45 0 78 34 78 81s-32 79 -79 79c-46 0 -81 -33 -81 -77c0 -47 36 -83 82 -83z" />
    <glyph glyph-name="h.ordn" horiz-adv-x="392" 
d="M225 563c70 0 115 -50 115 -126v-157c0 -24 -18 -42 -42 -42c-25 0 -43 18 -43 42v145c0 37 -23 61 -56 61s-57 -25 -57 -61v-145c0 -24 -18 -42 -42 -42c-25 0 -43 18 -43 42v400c0 24 18 42 43 42c24 0 42 -18 42 -42v-149c21 20 50 32 83 32z" />
    <glyph glyph-name="i.ordn" horiz-adv-x="195" 
d="M97 717c30 0 54 -21 54 -51c0 -29 -24 -51 -54 -51c-29 0 -52 22 -52 51c0 30 23 51 52 51zM98 563c24 0 42 -18 42 -43v-241c0 -25 -18 -42 -42 -42s-42 17 -42 42v241c0 25 17 43 42 43z" />
    <glyph glyph-name="l.ordn" horiz-adv-x="198" 
d="M100 722c23 0 41 -18 41 -42v-401c0 -25 -18 -42 -41 -42c-25 0 -43 17 -43 42v401c0 24 18 42 43 42z" />
    <glyph glyph-name="m.ordn" horiz-adv-x="586" 
d="M417 563c72 0 116 -49 116 -126v-158c0 -24 -17 -42 -42 -42c-24 0 -42 18 -42 42v146c0 38 -21 61 -55 61s-56 -24 -56 -59v-148c0 -24 -18 -42 -42 -42c-25 0 -43 18 -43 42v146c0 38 -21 61 -55 61s-56 -23 -56 -61v-146c0 -24 -18 -42 -42 -42c-25 0 -43 18 -43 42
v241c0 25 19 43 43 43c19 0 35 -12 40 -29c21 19 49 29 81 29c41 0 73 -16 93 -45c24 28 61 45 103 45z" />
    <glyph glyph-name="n.ordn" horiz-adv-x="392" 
d="M223 563c73 0 117 -50 117 -126v-158c0 -25 -19 -42 -42 -42c-25 0 -43 17 -43 42v146c0 36 -22 61 -56 61c-33 0 -57 -25 -57 -61v-146c0 -25 -19 -42 -42 -42c-25 0 -43 17 -43 42v241c0 25 19 43 43 43c19 0 35 -12 40 -30c21 19 49 30 83 30z" />
    <glyph glyph-name="r.ordn" horiz-adv-x="257" 
d="M210 563c26 0 42 -16 42 -40c0 -22 -14 -37 -39 -39c-44 -4 -71 -37 -71 -85v-119c0 -25 -19 -43 -42 -43c-25 0 -43 18 -43 43v239c0 25 19 44 43 44c21 0 37 -14 41 -33c18 21 42 33 69 33z" />
    <glyph glyph-name="s.ordn" horiz-adv-x="311" 
d="M154 237c-44 0 -83 17 -107 39c-11 10 -16 20 -16 30c0 18 15 34 34 34c8 0 15 -3 21 -8c22 -16 44 -27 68 -27c23 0 36 10 36 26c0 14 -7 21 -30 31l-32 13c-58 23 -83 52 -83 94c0 56 45 94 112 94c38 0 72 -14 92 -30c13 -10 18 -19 19 -30c1 -20 -15 -35 -33 -35
c-9 0 -16 3 -22 8c-17 11 -35 18 -54 18c-21 0 -33 -7 -33 -22c0 -14 10 -20 29 -29l32 -14c63 -27 86 -51 86 -93c0 -63 -52 -99 -119 -99z" />
    <glyph glyph-name="y.ss01.ordn" horiz-adv-x="397" 
d="M298 563c24 0 42 -18 42 -43v-244c0 -93 -58 -152 -152 -152c-43 0 -81 12 -111 35c-14 10 -20 21 -20 34c0 21 17 38 36 38c9 0 17 -4 26 -9c20 -14 42 -22 66 -22c45 0 70 26 70 73v21c-21 -20 -49 -31 -82 -31c-70 0 -116 50 -116 126v131c0 25 19 43 43 43
s42 -18 42 -43v-119c0 -36 23 -62 56 -62s57 25 57 61v120c0 25 18 43 43 43z" />
    <glyph glyph-name="t.ordn" horiz-adv-x="265" 
d="M211 313c21 0 37 -16 37 -36c0 -13 -6 -24 -17 -31c-12 -7 -27 -9 -46 -9c-77 0 -123 37 -123 116v131h-15c-21 0 -38 16 -38 36s17 36 38 36h15v36c0 25 18 43 42 43s43 -18 43 -43v-36h54c21 0 37 -15 37 -36c0 -20 -16 -36 -37 -36h-54v-122c0 -36 18 -49 52 -49h12z
" />
    <glyph glyph-name="u.ordn" horiz-adv-x="387" 
d="M292 563c25 0 43 -18 43 -43v-139c0 -85 -58 -144 -141 -144s-141 59 -141 144v139c0 25 18 43 42 43c25 0 42 -18 42 -43v-145c0 -36 24 -61 57 -61s56 25 56 61v145c0 25 18 43 42 43z" />
    <glyph glyph-name="uacute.ordn" horiz-adv-x="387" 
d="M198 600c-21 0 -36 17 -36 35c0 7 2 13 6 19l35 65c9 17 22 25 38 25c23 0 40 -19 40 -40c0 -7 -2 -16 -7 -23l-45 -64c-9 -12 -21 -17 -31 -17zM292 563c24 0 43 -19 43 -44v-138c0 -85 -58 -144 -141 -144s-141 59 -141 144v138c0 25 18 44 42 44s42 -19 42 -44v-144
c0 -36 24 -61 57 -61s56 25 56 61v144c0 25 18 44 42 44z" />
    <glyph glyph-name="y.ordn" horiz-adv-x="360" 
d="M301 563c23 0 42 -19 42 -43c0 -7 -2 -13 -5 -20l-130 -284c-28 -62 -71 -92 -134 -92c-16 0 -28 3 -38 9c-12 7 -19 19 -19 32c0 20 17 36 39 36c6 0 10 -1 16 -1c27 0 47 14 59 42l8 19l-98 239c-3 7 -4 14 -4 20c0 24 19 43 42 43c19 0 33 -11 40 -28l67 -184l75 184
c7 17 21 28 40 28z" />
    <glyph glyph-name="z.ordn" horiz-adv-x="299" 
d="M253 316c21 0 37 -16 37 -35c0 -21 -16 -37 -37 -37h-202c-21 0 -37 16 -37 37c0 9 5 19 14 31l145 172h-113c-21 0 -38 16 -38 36s17 36 38 36h186c21 0 37 -16 37 -36c0 -11 -4 -19 -14 -32l-144 -172h128z" />
    <glyph glyph-name="a.ss01" horiz-adv-x="631" 
d="M503 502c29 0 52 -24 52 -55v-404c0 -31 -23 -54 -54 -54s-54 23 -54 54v14c-37 -42 -94 -68 -162 -68c-138 0 -240 108 -240 256s102 257 240 257c71 0 130 -28 166 -73v18c0 31 22 55 52 55zM303 85c88 0 148 65 148 160c0 96 -60 161 -148 161
c-87 0 -151 -68 -151 -161c0 -92 63 -160 151 -160z" />
    <glyph glyph-name="aacute.ss01" horiz-adv-x="631" 
d="M329 564c-28 1 -47 23 -46 47c0 8 3 16 7 24l54 125c8 18 29 31 50 31c29 0 52 -24 52 -54c0 -8 -2 -17 -8 -28l-67 -118c-9 -15 -23 -28 -42 -27zM503 502c29 0 52 -24 52 -55v-404c0 -31 -23 -54 -54 -54s-54 23 -54 54v14c-37 -42 -94 -68 -162 -68
c-138 0 -240 108 -240 256s102 257 240 257c71 0 130 -28 166 -73v18c0 31 22 55 52 55zM303 85c88 0 148 65 148 160c0 96 -60 161 -148 161c-87 0 -151 -68 -151 -161c0 -92 63 -160 151 -160z" />
    <glyph glyph-name="abreve.ss01" horiz-adv-x="631" 
d="M311 577c-86 0 -161 69 -161 145c0 25 18 45 42 45c23 0 37 -13 42 -37c6 -41 38 -70 77 -70c40 0 71 29 78 70c5 23 20 37 41 37c24 0 43 -20 43 -45c0 -78 -73 -145 -162 -145zM503 502c29 0 52 -24 52 -55v-404c0 -31 -23 -54 -54 -54s-54 23 -54 54v14
c-37 -42 -94 -68 -162 -68c-138 0 -240 108 -240 256s102 257 240 257c71 0 130 -28 166 -73v18c0 31 22 55 52 55zM303 85c88 0 148 65 148 160c0 96 -60 161 -148 161c-87 0 -151 -68 -151 -161c0 -92 63 -160 151 -160z" />
    <glyph glyph-name="acircumflex.ss01" horiz-adv-x="631" 
d="M199 566c-22 0 -42 18 -42 42c0 13 4 21 12 30l102 130c12 14 26 19 40 19s28 -5 39 -19l103 -130c7 -9 12 -17 12 -30c0 -24 -20 -42 -42 -42c-13 0 -24 6 -31 14l-81 93l-82 -93c-6 -8 -18 -14 -30 -14zM503 502c29 0 52 -24 52 -55v-404c0 -31 -23 -54 -54 -54
s-54 23 -54 54v14c-37 -42 -94 -68 -162 -68c-138 0 -240 108 -240 256s102 257 240 257c71 0 130 -28 166 -73v18c0 31 22 55 52 55zM303 85c88 0 148 65 148 160c0 96 -60 161 -148 161c-87 0 -151 -68 -151 -161c0 -92 63 -160 151 -160z" />
    <glyph glyph-name="adieresis.ss01" horiz-adv-x="631" 
d="M199 609c-36 0 -68 31 -68 65c0 36 31 66 68 66c38 0 67 -28 67 -66c0 -35 -30 -65 -67 -65zM423 609c-36 0 -68 31 -68 65c0 36 31 66 68 66c38 0 68 -28 68 -66c0 -35 -31 -65 -68 -65zM503 502c29 0 52 -24 52 -55v-404c0 -31 -23 -54 -54 -54s-54 23 -54 54v14
c-37 -42 -94 -68 -162 -68c-138 0 -240 108 -240 256s102 257 240 257c71 0 130 -28 166 -73v18c0 31 22 55 52 55zM303 85c88 0 148 65 148 160c0 96 -60 161 -148 161c-87 0 -151 -68 -151 -161c0 -92 63 -160 151 -160z" />
    <glyph glyph-name="agrave.ss01" horiz-adv-x="631" 
d="M251 591l-67 118c-6 11 -8 20 -8 28c0 30 23 54 52 54c21 0 42 -13 50 -31l54 -125c4 -8 7 -16 7 -24c1 -24 -18 -46 -46 -47c-19 -1 -33 12 -42 27zM503 502c29 0 52 -24 52 -55v-404c0 -31 -23 -54 -54 -54s-54 23 -54 54v14c-37 -42 -94 -68 -162 -68
c-138 0 -240 108 -240 256s102 257 240 257c71 0 130 -28 166 -73v18c0 31 22 55 52 55zM303 85c88 0 148 65 148 160c0 96 -60 161 -148 161c-87 0 -151 -68 -151 -161c0 -92 63 -160 151 -160z" />
    <glyph glyph-name="amacron.ss01" horiz-adv-x="631" 
d="M205 632c-25 0 -44 18 -44 42s19 42 44 42h212c26 0 44 -18 44 -42s-18 -42 -44 -42h-212zM503 502c29 0 52 -24 52 -55v-404c0 -31 -23 -54 -54 -54s-54 23 -54 54v14c-37 -42 -94 -68 -162 -68c-138 0 -240 108 -240 256s102 257 240 257c71 0 130 -28 166 -73v18
c0 31 22 55 52 55zM303 85c88 0 148 65 148 160c0 96 -60 161 -148 161c-87 0 -151 -68 -151 -161c0 -92 63 -160 151 -160z" />
    <glyph glyph-name="aogonek.ss01" horiz-adv-x="631" 
d="M537 -110c20 0 34 -14 34 -36c0 -19 -11 -32 -32 -38c-14 -5 -36 -7 -57 -7c-68 0 -113 37 -113 98c0 50 31 81 80 121c-1 4 -2 10 -2 15v14c-37 -42 -94 -68 -162 -68c-138 0 -240 108 -240 256s102 257 240 257c71 0 130 -28 166 -73v18c0 31 22 55 52 55
c29 0 52 -24 52 -55v-404v-4v-3c0 -17 -9 -29 -24 -40c-28 -21 -63 -48 -63 -76c0 -17 14 -31 44 -31c10 0 19 1 25 1zM303 85c88 0 148 65 148 160c0 96 -60 161 -148 161c-87 0 -151 -68 -151 -161c0 -92 63 -160 151 -160z" />
    <glyph glyph-name="aring.ss01" horiz-adv-x="631" 
d="M310 558c-66 0 -118 50 -118 115s51 115 118 115c68 0 119 -49 119 -115c0 -65 -51 -115 -119 -115zM311 719c-26 0 -46 -19 -46 -46c0 -26 20 -45 46 -45s45 19 45 45s-20 46 -45 46zM503 502c29 0 52 -24 52 -55v-404c0 -31 -23 -54 -54 -54s-54 23 -54 54v14
c-37 -42 -94 -68 -162 -68c-138 0 -240 108 -240 256s102 257 240 257c71 0 130 -28 166 -73v18c0 31 22 55 52 55zM303 85c88 0 148 65 148 160c0 96 -60 161 -148 161c-87 0 -151 -68 -151 -161c0 -92 63 -160 151 -160z" />
    <glyph glyph-name="atilde.ss01" horiz-adv-x="631" 
d="M179 587c-26 0 -43 20 -43 48c0 68 42 114 100 114c24 0 49 -9 70 -24l26 -20c22 -16 30 -22 42 -22c17 0 25 11 28 30c4 23 20 37 41 37c26 0 43 -20 43 -48c0 -67 -41 -115 -99 -115c-25 0 -50 9 -71 25l-27 20c-21 17 -29 22 -41 22c-16 0 -26 -11 -28 -30
c-4 -23 -20 -37 -41 -37zM503 502c29 0 52 -24 52 -55v-404c0 -31 -23 -54 -54 -54s-54 23 -54 54v14c-37 -42 -94 -68 -162 -68c-138 0 -240 108 -240 256s102 257 240 257c71 0 130 -28 166 -73v18c0 31 22 55 52 55zM303 85c88 0 148 65 148 160c0 96 -60 161 -148 161
c-87 0 -151 -68 -151 -161c0 -92 63 -160 151 -160z" />
    <glyph glyph-name="y.ss01" horiz-adv-x="585" 
d="M457 502c29 0 52 -23 52 -54v-412c0 -145 -93 -227 -224 -227c-75 0 -140 26 -188 68c-13 10 -21 22 -21 38c0 27 21 49 48 49c11 0 21 -4 34 -15c31 -26 70 -44 118 -44c71 0 128 37 128 124v41c-35 -36 -85 -57 -143 -57c-110 0 -181 77 -181 197v238c0 31 23 54 52 54
c30 0 53 -23 53 -54v-224c0 -69 42 -115 106 -115c66 0 113 46 113 113v226c0 31 22 54 53 54z" />
    <glyph glyph-name="yacute.ss01" horiz-adv-x="585" 
d="M311 564c-28 1 -47 23 -46 47c0 8 3 16 7 24l54 125c8 18 29 31 50 31c29 0 52 -24 52 -54c0 -8 -2 -17 -8 -28l-67 -118c-9 -15 -23 -28 -42 -27zM457 502c29 0 52 -23 52 -54v-412c0 -145 -93 -227 -224 -227c-75 0 -140 26 -188 68c-13 10 -21 22 -21 38
c0 27 21 49 48 49c11 0 21 -4 34 -15c31 -26 70 -44 118 -44c71 0 128 37 128 124v41c-35 -36 -85 -57 -143 -57c-110 0 -181 77 -181 197v238c0 31 23 54 52 54c30 0 53 -23 53 -54v-224c0 -69 42 -115 106 -115c66 0 113 46 113 113v226c0 31 22 54 53 54z" />
    <glyph glyph-name="ycircumflex.ss01" horiz-adv-x="585" 
d="M181 566c-22 0 -42 18 -42 42c0 13 4 21 12 30l102 130c12 14 26 19 40 19s28 -5 39 -19l103 -130c7 -9 12 -17 12 -30c0 -24 -20 -42 -42 -42c-13 0 -24 6 -31 14l-81 93l-82 -93c-6 -8 -18 -14 -30 -14zM457 502c29 0 52 -23 52 -54v-412c0 -145 -93 -227 -224 -227
c-75 0 -140 26 -188 68c-13 10 -21 22 -21 38c0 27 21 49 48 49c11 0 21 -4 34 -15c31 -26 70 -44 118 -44c71 0 128 37 128 124v41c-35 -36 -85 -57 -143 -57c-110 0 -181 77 -181 197v238c0 31 23 54 52 54c30 0 53 -23 53 -54v-224c0 -69 42 -115 106 -115
c66 0 113 46 113 113v226c0 31 22 54 53 54z" />
    <glyph glyph-name="ydieresis.ss01" horiz-adv-x="585" 
d="M181 609c-36 0 -68 31 -68 65c0 36 31 66 68 66c38 0 67 -28 67 -66c0 -35 -30 -65 -67 -65zM405 609c-36 0 -68 31 -68 65c0 36 31 66 68 66c38 0 68 -28 68 -66c0 -35 -31 -65 -68 -65zM457 502c29 0 52 -23 52 -54v-412c0 -145 -93 -227 -224 -227
c-75 0 -140 26 -188 68c-13 10 -21 22 -21 38c0 27 21 49 48 49c11 0 21 -4 34 -15c31 -26 70 -44 118 -44c71 0 128 37 128 124v41c-35 -36 -85 -57 -143 -57c-110 0 -181 77 -181 197v238c0 31 23 54 52 54c30 0 53 -23 53 -54v-224c0 -69 42 -115 106 -115
c66 0 113 46 113 113v226c0 31 22 54 53 54z" />
    <glyph glyph-name="ygrave.ss01" horiz-adv-x="585" 
d="M233 591l-67 118c-6 11 -8 20 -8 28c0 30 23 54 52 54c21 0 42 -13 50 -31l54 -125c4 -8 7 -16 7 -24c1 -24 -18 -46 -46 -47c-19 -1 -33 12 -42 27zM457 502c29 0 52 -23 52 -54v-412c0 -145 -93 -227 -224 -227c-75 0 -140 26 -188 68c-13 10 -21 22 -21 38
c0 27 21 49 48 49c11 0 21 -4 34 -15c31 -26 70 -44 118 -44c71 0 128 37 128 124v41c-35 -36 -85 -57 -143 -57c-110 0 -181 77 -181 197v238c0 31 23 54 52 54c30 0 53 -23 53 -54v-224c0 -69 42 -115 106 -115c66 0 113 46 113 113v226c0 31 22 54 53 54z" />
    <glyph glyph-name="ordfeminine" unicode="&#xaa;" horiz-adv-x="367" 
d="M181 563c85 0 134 -50 134 -133v-150c0 -25 -19 -43 -42 -43c-20 0 -36 12 -41 30c-22 -19 -53 -30 -88 -30c-65 0 -107 37 -107 94s44 91 117 91h76v14c0 35 -20 54 -59 54c-20 0 -38 -6 -60 -21c-8 -6 -15 -8 -23 -8c-20 0 -36 16 -36 36c0 13 7 24 21 33
c33 23 67 33 108 33zM168 300c36 0 62 24 62 58v10h-62c-28 0 -45 -13 -45 -34s17 -34 45 -34z" />
    <glyph glyph-name="ordmasculine" unicode="&#xba;" horiz-adv-x="404" 
d="M202 562c93 0 167 -72 167 -163s-74 -162 -167 -162c-94 0 -167 71 -167 162c0 92 73 163 167 163zM202 486c-49 0 -83 -35 -83 -87c0 -51 34 -86 83 -86c48 0 82 36 82 86c0 51 -33 87 -82 87z" />
    <glyph glyph-name="ordfeminine.ss01" horiz-adv-x="420" 
d="M326 563c21 0 37 -18 37 -39v-249c0 -22 -16 -38 -37 -38s-38 17 -38 38v6c-22 -28 -57 -44 -100 -44c-89 0 -153 68 -153 163c0 94 64 163 152 163c43 0 79 -16 101 -43v4c0 21 17 39 38 39zM202 314c49 0 81 34 81 86s-31 86 -82 86c-48 0 -81 -34 -81 -85
c0 -52 33 -87 82 -87z" />
    <glyph glyph-name="uni0410" unicode="&#x410;" horiz-adv-x="663" 
d="M621 70c5 -12 8 -22 8 -30c0 -28 -23 -51 -52 -51c-24 0 -40 13 -50 37l-41 93h-311l-39 -93c-9 -24 -26 -37 -50 -37c-29 0 -52 23 -52 51c0 8 2 18 8 30l239 565c10 24 27 36 50 36c24 0 41 -12 51 -36zM331 516l-119 -307h236z" />
    <glyph glyph-name="uni0411" unicode="&#x411;" horiz-adv-x="618" 
d="M464 660c28 0 49 -21 49 -48s-22 -47 -49 -47h-275v-176h177c128 0 214 -78 214 -194s-86 -195 -214 -195h-228c-31 0 -55 23 -55 55v550c0 32 24 55 55 55h326zM357 298h-168v-205h168c72 0 116 38 116 102s-44 103 -116 103z" />
    <glyph glyph-name="uni0412" unicode="&#x412;" horiz-adv-x="618" 
d="M457 360c77 -25 123 -86 123 -168c0 -114 -87 -192 -214 -192h-228c-32 0 -55 23 -55 55v550c0 32 23 55 55 55h176c118 0 198 -71 198 -176c0 -51 -20 -94 -55 -124zM304 567h-117v-178h117c63 0 101 33 101 90c0 56 -37 88 -101 88zM357 93c72 0 115 38 115 102
s-43 103 -115 103h-170v-205h170z" />
    <glyph glyph-name="uni0413" unicode="&#x413;" horiz-adv-x="516" 
d="M449 660c28 0 49 -21 49 -48s-21 -47 -49 -47h-260v-522c0 -31 -22 -54 -53 -54c-30 0 -53 23 -53 54v562c0 32 24 55 55 55h311z" />
    <glyph glyph-name="uni0403" unicode="&#x403;" horiz-adv-x="516" 
d="M287 723c-38 2 -53 42 -39 69l58 112c12 22 33 29 51 28c39 -2 64 -48 39 -84l-67 -102c-12 -17 -29 -23 -42 -23zM449 660c28 0 49 -21 49 -48s-21 -47 -49 -47h-260v-522c0 -31 -22 -54 -53 -54c-30 0 -53 23 -53 54v562c0 32 24 55 55 55h311z" />
    <glyph glyph-name="uni0490" unicode="&#x490;" horiz-adv-x="494" 
d="M417 792c30 0 53 -23 53 -54v-119c0 -31 -24 -54 -55 -54h-226v-522c0 -31 -22 -54 -53 -54c-30 0 -53 23 -53 54v562c0 32 24 55 55 55h226v78c0 31 22 54 53 54z" />
    <glyph glyph-name="uni0414" unicode="&#x414;" horiz-adv-x="709" 
d="M625 95c31 0 54 -23 54 -54v-139c0 -31 -22 -54 -53 -54c-30 0 -53 23 -53 54v98h-445v-98c0 -31 -22 -54 -53 -54c-30 0 -53 23 -53 54v139c0 31 24 54 55 54h2c91 90 132 239 132 471v39c0 32 23 55 55 55h275c31 0 55 -23 55 -55v-510h29zM312 565
c-2 -225 -39 -374 -120 -470h298v470h-178z" />
    <glyph glyph-name="uni0415" unicode="&#x415;" horiz-adv-x="569" 
d="M134 0c-29 0 -51 22 -51 51v558c0 29 22 51 51 51h339c28 0 49 -21 49 -48s-21 -47 -49 -47h-284v-169h205c27 0 47 -20 47 -46s-20 -46 -47 -46h-205v-209h296c28 0 49 -20 49 -47s-21 -48 -49 -48h-351z" />
    <glyph glyph-name="uni0400" unicode="&#x400;" horiz-adv-x="569" 
d="M284 723c-13 0 -30 6 -42 23l-67 102c-25 36 0 82 39 84c18 1 39 -6 51 -28l58 -112c14 -27 -1 -67 -39 -69zM134 0c-29 0 -51 22 -51 51v558c0 29 22 51 51 51h339c28 0 49 -21 49 -48s-21 -47 -49 -47h-284v-169h205c27 0 47 -20 47 -46s-20 -46 -47 -46h-205v-209h296
c28 0 49 -20 49 -47s-21 -48 -49 -48h-351z" />
    <glyph glyph-name="uni0401" unicode="&#x401;" horiz-adv-x="569" 
d="M176 747c-35 0 -68 30 -68 65c0 37 33 65 68 65c37 0 67 -28 67 -65c0 -35 -30 -65 -67 -65zM420 746c-34 0 -67 30 -67 65c0 37 33 66 67 66c38 0 68 -29 68 -66c0 -35 -30 -65 -68 -65zM134 0c-29 0 -51 22 -51 51v558c0 29 22 51 51 51h339c28 0 49 -21 49 -48
s-21 -47 -49 -47h-284v-169h205c27 0 47 -20 47 -46s-20 -46 -47 -46h-205v-209h296c28 0 49 -20 49 -47s-21 -48 -49 -48h-351z" />
    <glyph glyph-name="uni0416" unicode="&#x416;" horiz-adv-x="989" 
d="M153 652l246 -261c13 -14 18 -26 18 -39c0 -15 -5 -26 -17 -39l-263 -298c-17 -18 -31 -26 -48 -26c-27 0 -49 23 -49 50c0 12 3 22 11 31l251 282l-223 235c-10 11 -14 23 -14 35c0 28 21 49 47 49c17 0 28 -5 41 -19zM495 671c31 0 53 -23 53 -54v-574
c0 -31 -23 -54 -53 -54s-53 23 -53 54v574c0 31 23 54 53 54zM939 70c8 -9 11 -19 11 -31c0 -27 -22 -50 -49 -50c-17 0 -31 8 -47 26l-265 298c-11 13 -17 26 -17 39s6 26 18 39l247 261c13 14 24 19 41 19c26 0 48 -21 48 -49c0 -12 -5 -24 -15 -35l-223 -236z" />
    <glyph glyph-name="uni0417" unicode="&#x417;" horiz-adv-x="585" 
d="M436 354c66 -29 106 -87 106 -161c0 -118 -103 -204 -244 -204c-93 0 -177 40 -229 109c-9 12 -13 23 -13 33c0 27 23 48 50 48c14 0 25 -5 37 -18c45 -51 95 -75 154 -75c81 0 138 47 138 112c0 60 -47 100 -115 100h-92c-27 0 -47 20 -47 46c0 25 20 45 47 45h66
c61 0 100 35 100 90c0 57 -43 95 -107 95c-49 0 -94 -21 -128 -59c-11 -12 -24 -18 -37 -18c-27 0 -49 22 -49 48c0 13 4 22 14 34c46 58 121 92 200 92c123 0 214 -79 214 -185c0 -55 -24 -101 -65 -132z" />
    <glyph glyph-name="uni0418" unicode="&#x418;" horiz-adv-x="720" 
d="M585 671c29 0 52 -23 52 -52v-576c0 -31 -22 -54 -53 -54c-30 0 -53 23 -53 54v427l-352 -459c-12 -16 -25 -22 -43 -22c-29 0 -53 23 -53 52v576c0 31 23 54 53 54c31 0 53 -23 53 -54v-430l349 457c12 17 24 27 47 27z" />
    <glyph glyph-name="uni0419" unicode="&#x419;" horiz-adv-x="720" 
d="M351 729c-83 0 -159 62 -159 133c0 24 18 43 42 43c19 0 32 -11 41 -35c12 -39 40 -61 76 -61c38 0 66 23 77 61c8 23 21 35 40 35c25 0 42 -19 42 -43c0 -70 -75 -133 -159 -133zM585 671c29 0 52 -23 52 -52v-576c0 -31 -22 -54 -53 -54c-30 0 -53 23 -53 54v427
l-352 -459c-12 -16 -25 -22 -43 -22c-29 0 -53 23 -53 52v576c0 31 23 54 53 54c31 0 53 -23 53 -54v-430l349 457c12 17 24 27 47 27z" />
    <glyph glyph-name="uni040D" unicode="&#x40d;" horiz-adv-x="720" 
d="M294 746l-67 102c-25 36 0 82 39 84c18 1 39 -6 51 -28l58 -112c14 -27 -1 -67 -39 -69c-13 0 -30 6 -42 23zM585 671c29 0 52 -23 52 -52v-576c0 -31 -22 -54 -53 -54c-30 0 -53 23 -53 54v427l-352 -459c-12 -16 -25 -22 -43 -22c-29 0 -53 23 -53 52v576
c0 31 23 54 53 54c31 0 53 -23 53 -54v-430l349 457c12 17 24 27 47 27z" />
    <glyph glyph-name="uni041A" unicode="&#x41a;" horiz-adv-x="645" 
d="M136 671c30 0 53 -23 53 -54v-574c0 -31 -23 -54 -53 -54s-53 23 -53 54v574c0 31 22 54 53 54zM587 73c12 -12 17 -22 17 -35c0 -27 -23 -49 -49 -49c-16 0 -30 7 -43 21l-283 306c-10 11 -16 23 -16 36c0 12 6 24 16 35l263 265c13 13 24 19 39 19c27 0 48 -21 48 -48
c0 -14 -5 -25 -18 -39l-231 -232z" />
    <glyph glyph-name="uni040C" unicode="&#x40c;" horiz-adv-x="645" 
d="M341 723c-38 2 -53 42 -39 69l58 112c12 22 33 29 51 28c39 -2 64 -48 39 -84l-67 -102c-12 -17 -29 -23 -42 -23zM136 671c30 0 53 -23 53 -54v-574c0 -31 -23 -54 -53 -54s-53 23 -53 54v574c0 31 22 54 53 54zM587 73c12 -12 17 -22 17 -35c0 -27 -23 -49 -49 -49
c-16 0 -30 7 -43 21l-283 306c-10 11 -16 23 -16 36c0 12 6 24 16 35l263 265c13 13 24 19 39 19c27 0 48 -21 48 -48c0 -14 -5 -25 -18 -39l-231 -232z" />
    <glyph glyph-name="uni041B" unicode="&#x41b;" horiz-adv-x="654" 
d="M517 660c31 0 54 -23 54 -55v-562c0 -31 -22 -54 -53 -54c-30 0 -53 23 -53 54v522h-194c-2 -325 -66 -510 -192 -560c-17 -9 -30 -13 -45 -13c-27 0 -48 20 -48 47c0 23 14 40 36 48c99 34 145 181 145 465v53c0 32 24 55 55 55h295z" />
    <glyph glyph-name="uni041C" unicode="&#x41c;" horiz-adv-x="792" 
d="M658 671c29 0 51 -23 51 -54v-574c0 -31 -23 -54 -53 -54s-53 23 -53 54v402l-154 -242c-16 -25 -31 -35 -53 -35s-38 10 -53 35l-154 242v-402c0 -31 -23 -54 -53 -54s-53 23 -53 54v574c0 31 22 54 51 54c23 0 38 -10 58 -43l204 -320l204 320c20 33 35 43 58 43z" />
    <glyph glyph-name="uni041D" unicode="&#x41d;" horiz-adv-x="710" 
d="M136 -11c-30 0 -53 23 -53 54v574c0 31 22 54 53 54s53 -23 53 -54v-220h332v220c0 31 22 54 53 54s53 -23 53 -54v-574c0 -31 -23 -54 -53 -54s-53 23 -53 54v259h-332v-259c0 -31 -23 -54 -53 -54z" />
    <glyph glyph-name="uni041E" unicode="&#x41e;" horiz-adv-x="780" 
d="M389 671c194 0 347 -151 347 -341c0 -191 -153 -341 -347 -341s-346 150 -346 341s152 341 346 341zM390 574c-137 0 -237 -103 -237 -243c0 -142 100 -245 237 -245c136 0 237 104 237 245c0 139 -101 243 -237 243z" />
    <glyph glyph-name="uni041F" unicode="&#x41f;" horiz-adv-x="686" 
d="M136 -11c-30 0 -53 23 -53 54v562c0 32 23 55 55 55h410c31 0 55 -23 55 -55v-562c0 -31 -23 -54 -53 -54c-31 0 -53 23 -53 54v522h-308v-522c0 -31 -23 -54 -53 -54z" />
    <glyph glyph-name="uni0420" unicode="&#x420;" horiz-adv-x="583" 
d="M136 -11c-30 0 -53 23 -53 54v562c0 32 23 55 55 55h185c134 0 224 -81 224 -202c0 -120 -91 -203 -224 -203h-134v-212c0 -31 -23 -54 -53 -54zM189 349h133c72 0 116 41 116 108s-44 109 -116 109h-133v-217z" />
    <glyph glyph-name="uni0421" unicode="&#x421;" horiz-adv-x="717" 
d="M390 -11c-195 0 -347 149 -347 341s152 341 347 341c102 0 197 -43 257 -115c12 -16 17 -28 17 -42c0 -26 -22 -48 -49 -48c-16 0 -30 7 -42 21c-48 58 -109 87 -182 87c-137 0 -238 -104 -238 -244s101 -244 238 -244c72 0 133 30 181 87c12 14 26 21 43 21
c27 0 49 -22 49 -48c0 -13 -5 -25 -18 -42c-58 -72 -153 -115 -256 -115z" />
    <glyph glyph-name="uni0422" unicode="&#x422;" horiz-adv-x="583" 
d="M291 -11c-30 0 -53 23 -53 54v522h-178c-28 0 -49 20 -49 47s21 48 49 48h463c28 0 49 -21 49 -48s-21 -47 -49 -47h-179v-522c0 -31 -23 -54 -53 -54z" />
    <glyph glyph-name="uni0423" unicode="&#x423;" horiz-adv-x="620" 
d="M531 663c30 0 54 -25 54 -55c0 -8 -2 -17 -8 -28l-208 -450c-45 -95 -112 -141 -209 -141c-25 0 -46 3 -63 9c-20 7 -32 23 -32 44c0 26 21 47 50 47c7 0 17 -1 29 -1c64 0 96 21 121 72l1 3l-210 417c-6 10 -8 20 -8 29c0 29 25 54 54 54c22 0 39 -11 51 -33l171 -353
l156 353c9 21 29 33 51 33z" />
    <glyph glyph-name="uni040E" unicode="&#x40e;" horiz-adv-x="620" 
d="M303 729c-83 0 -159 62 -159 133c0 24 18 43 42 43c19 0 32 -11 41 -35c12 -39 40 -61 76 -61c38 0 66 23 77 61c8 23 21 35 40 35c25 0 42 -19 42 -43c0 -70 -75 -133 -159 -133zM531 663c30 0 54 -25 54 -55c0 -8 -2 -17 -8 -28l-208 -450c-45 -95 -112 -141 -209 -141
c-25 0 -46 3 -63 9c-20 7 -32 23 -32 44c0 26 21 47 50 47c7 0 17 -1 29 -1c64 0 96 21 121 72l1 3l-210 417c-6 10 -8 20 -8 29c0 29 25 54 54 54c22 0 39 -11 51 -33l171 -353l156 353c9 21 29 33 51 33z" />
    <glyph glyph-name="uni0424" unicode="&#x424;" horiz-adv-x="817" 
d="M774 335c0 -166 -124 -276 -313 -277v-52c0 -31 -22 -54 -53 -54c-30 0 -53 23 -53 54v52c-188 2 -312 112 -312 277s123 272 312 274v45c0 31 23 55 53 55c31 0 53 -24 53 -55v-45c189 -1 313 -109 313 -274zM150 332c0 -112 77 -180 205 -181v365
c-128 -1 -205 -70 -205 -184zM461 151c128 0 206 68 206 181c0 115 -79 184 -206 184v-365z" />
    <glyph glyph-name="uni0425" unicode="&#x425;" horiz-adv-x="606" 
d="M551 77c10 -15 14 -26 14 -37c0 -28 -23 -51 -52 -51c-17 0 -32 8 -42 22l-168 238l-168 -238c-9 -14 -24 -22 -42 -22c-29 0 -52 23 -52 51c0 12 4 24 15 38l185 260l-170 244c-10 14 -15 27 -15 39c0 28 23 50 52 50c18 0 32 -7 43 -22l152 -223l155 223
c10 14 25 22 43 22c29 0 51 -22 51 -50c0 -13 -4 -25 -15 -40l-171 -243z" />
    <glyph glyph-name="uni0427" unicode="&#x427;" horiz-adv-x="633" 
d="M497 671c31 0 53 -23 53 -54v-574c0 -31 -22 -54 -53 -54c-30 0 -53 23 -53 54v198c-40 -13 -85 -20 -128 -20c-168 0 -273 102 -273 266v130c0 31 23 54 53 54c31 0 53 -23 53 -54v-121c0 -111 64 -177 171 -177c39 0 85 9 124 24v274c0 31 23 54 53 54z" />
    <glyph glyph-name="uni0426" unicode="&#x426;" horiz-adv-x="711" 
d="M545 671c30 0 53 -23 53 -54v-522h29c31 0 55 -23 55 -54v-139c0 -31 -23 -54 -53 -54c-31 0 -53 23 -53 54v98h-438c-31 0 -55 23 -55 55v562c0 31 23 54 53 54c31 0 53 -23 53 -54v-522h303v522c0 31 22 54 53 54z" />
    <glyph glyph-name="uni0428" unicode="&#x428;" horiz-adv-x="1030" 
d="M894 671c30 0 53 -23 53 -54v-562c0 -32 -24 -55 -55 -55h-754c-31 0 -55 23 -55 55v562c0 31 23 54 53 54c31 0 53 -23 53 -54v-522h273v522c0 31 23 54 53 54c31 0 53 -23 53 -54v-522h273v522c0 31 22 54 53 54z" />
    <glyph glyph-name="uni0429" unicode="&#x429;" horiz-adv-x="1060" 
d="M894 671c30 0 53 -23 53 -54v-522h29c31 0 55 -23 55 -54v-139c0 -31 -23 -54 -53 -54c-31 0 -53 23 -53 54v98h-787c-31 0 -55 23 -55 55v562c0 31 23 54 53 54c31 0 53 -23 53 -54v-522h273v522c0 31 23 54 53 54c31 0 53 -23 53 -54v-522h273v522c0 31 22 54 53 54z
" />
    <glyph glyph-name="uni040F" unicode="&#x40f;" horiz-adv-x="686" 
d="M550 671c30 0 53 -23 53 -54v-562c0 -32 -23 -55 -55 -55h-152v-98c0 -31 -22 -54 -53 -54c-30 0 -53 23 -53 54v98h-152c-31 0 -55 23 -55 55v562c0 31 23 54 53 54c31 0 53 -23 53 -54v-522h308v522c0 31 22 54 53 54z" />
    <glyph glyph-name="uni042C" unicode="&#x42c;" horiz-adv-x="624" 
d="M136 671c31 0 53 -23 53 -54v-201h160c141 0 231 -87 231 -208c0 -122 -90 -208 -231 -208h-211c-31 0 -55 23 -55 55v562c0 31 23 54 53 54zM349 322h-160v-228h160c79 0 122 48 122 114s-43 114 -122 114z" />
    <glyph glyph-name="uni042A" unicode="&#x42a;" horiz-adv-x="643" 
d="M157 0c-31 0 -55 23 -55 55v510h-69c-28 0 -49 20 -49 47s21 48 49 48h120c32 0 55 -23 55 -55v-189h159c138 0 231 -84 231 -208c0 -125 -92 -208 -231 -208h-210zM208 94h159c75 0 122 45 122 114c0 70 -47 114 -122 114h-159v-228z" />
    <glyph glyph-name="uni042B" unicode="&#x42b;" horiz-adv-x="896" 
d="M136 671c31 0 53 -23 53 -54v-201h160c141 0 231 -87 231 -208c0 -122 -90 -208 -231 -208h-211c-31 0 -55 23 -55 55v562c0 31 23 54 53 54zM760 -11c-31 0 -53 23 -53 54v574c0 31 22 54 53 54s53 -23 53 -54v-574c0 -31 -22 -54 -53 -54zM349 322h-160v-228h160
c79 0 122 48 122 114s-43 114 -122 114z" />
    <glyph glyph-name="uni0409" unicode="&#x409;" horiz-adv-x="1006" 
d="M731 416c137 0 230 -84 230 -208c0 -125 -92 -208 -230 -208h-211c-31 0 -55 23 -55 55v510h-194c-2 -324 -66 -510 -192 -560c-17 -9 -30 -13 -45 -13c-27 0 -48 20 -48 47c0 23 14 40 36 48c99 33 145 182 145 465v53c0 32 24 55 55 55h295c31 0 54 -23 54 -55v-189
h160zM730 94c75 0 122 45 122 114c0 70 -47 114 -122 114h-159v-228h159z" />
    <glyph glyph-name="uni040A" unicode="&#x40a;" horiz-adv-x="1048" 
d="M136 -11c-30 0 -53 23 -53 54v574c0 31 23 54 53 54c31 0 53 -23 53 -54v-217h318v217c0 31 22 54 53 54c30 0 53 -23 53 -54v-207h159c138 0 231 -83 231 -205c0 -123 -93 -205 -231 -205h-210c-32 0 -55 23 -55 55v249h-318v-261c0 -31 -22 -54 -53 -54zM613 94h159
c75 0 122 43 122 110c0 68 -48 112 -122 112h-159v-222z" />
    <glyph glyph-name="uni0405" unicode="&#x405;" horiz-adv-x="559" 
d="M285 -11c-82 0 -168 39 -219 101c-10 11 -16 24 -16 37c0 28 23 48 49 48c12 0 23 -4 32 -14c36 -43 88 -77 153 -77c70 0 114 37 114 92c0 43 -24 65 -97 99l-73 34c-105 49 -154 104 -154 183c0 104 89 179 208 179c86 1 146 -36 184 -78c12 -13 16 -26 16 -38
c0 -25 -24 -47 -49 -47c-11 0 -22 5 -32 14c-32 32 -71 54 -119 54c-60 0 -100 -31 -100 -80c0 -41 20 -60 92 -94l74 -34c110 -51 158 -104 158 -188c0 -115 -93 -191 -221 -191z" />
    <glyph glyph-name="uni0404" unicode="&#x404;" horiz-adv-x="717" 
d="M615 194c27 0 49 -22 49 -48c0 -13 -5 -25 -18 -42c-58 -72 -153 -115 -256 -115c-195 0 -347 149 -347 341s152 341 347 341c102 0 197 -43 257 -115c12 -16 17 -28 17 -42c0 -26 -22 -48 -49 -48c-16 0 -30 7 -42 21c-48 58 -109 87 -182 87c-114 0 -204 -73 -230 -178
h280c28 0 47 -20 47 -46s-19 -46 -47 -46h-287c12 -127 109 -218 237 -218c72 0 133 30 181 87c12 14 26 21 43 21z" />
    <glyph glyph-name="uni042D" unicode="&#x42d;" horiz-adv-x="717" 
d="M327 671c195 0 347 -149 347 -341s-152 -341 -347 -341c-103 0 -198 43 -256 115c-13 17 -18 29 -18 42c0 26 22 48 49 48c17 0 31 -7 43 -21c48 -57 109 -87 181 -87c128 0 225 91 237 218h-287c-27 0 -47 20 -47 46s20 46 47 46h280c-26 105 -116 178 -230 178
c-73 0 -134 -29 -182 -87c-12 -14 -26 -21 -42 -21c-27 0 -49 22 -49 48c0 14 5 26 17 42c60 72 155 115 257 115z" />
    <glyph glyph-name="uni0406" unicode="&#x406;" horiz-adv-x="272" 
d="M136 671c31 0 53 -23 53 -54v-574c0 -31 -22 -54 -53 -54c-30 0 -53 23 -53 54v574c0 31 23 54 53 54z" />
    <glyph glyph-name="uni0407" unicode="&#x407;" horiz-adv-x="272" 
d="M13 747c-35 0 -68 30 -68 65c0 37 33 65 68 65c37 0 67 -28 67 -65c0 -35 -30 -65 -67 -65zM257 746c-34 0 -67 30 -67 65c0 37 33 66 67 66c38 0 68 -29 68 -66c0 -35 -30 -65 -68 -65zM136 671c31 0 53 -23 53 -54v-574c0 -31 -22 -54 -53 -54c-30 0 -53 23 -53 54v574
c0 31 23 54 53 54z" />
    <glyph glyph-name="uni0408" unicode="&#x408;" horiz-adv-x="381" 
d="M109 -11c-27 0 -47 2 -64 8c-20 7 -34 26 -34 47c0 27 22 48 51 48c20 0 35 -5 58 -5c45 0 72 31 72 81v449c0 31 22 54 53 54s53 -23 53 -54v-453c0 -114 -66 -175 -189 -175z" />
    <glyph glyph-name="uni040B" unicode="&#x40b;" horiz-adv-x="794" 
d="M470 408c153 0 245 -100 245 -263v-102c0 -31 -22 -54 -53 -54c-30 0 -53 23 -53 54v97c0 114 -48 170 -149 170c-37 0 -79 -7 -116 -19v-248c0 -31 -23 -54 -53 -54s-53 23 -53 54v522h-178c-28 0 -49 20 -49 47s21 48 49 48h463c28 0 49 -21 49 -48s-21 -47 -49 -47
h-179v-177c40 13 84 20 126 20z" />
    <glyph glyph-name="uni042E" unicode="&#x42e;" horiz-adv-x="1067" 
d="M677 671c193 0 346 -151 346 -341s-153 -341 -346 -341c-183 0 -326 135 -340 313h-148v-259c0 -31 -22 -54 -53 -54c-30 0 -53 23 -53 54v574c0 31 23 54 53 54c31 0 53 -23 53 -54v-220h153c30 159 166 274 335 274zM678 86c135 0 236 105 236 245
c0 139 -101 243 -236 243c-136 0 -237 -104 -237 -243c0 -140 101 -245 237 -245z" />
    <glyph glyph-name="uni042F" unicode="&#x42f;" horiz-adv-x="627" 
d="M490 660c31 0 55 -23 55 -55v-562c0 -31 -23 -54 -53 -54c-31 0 -53 23 -53 54v184h-121c-11 0 -23 1 -33 2l-144 -217c-11 -17 -26 -23 -43 -23c-29 0 -52 23 -52 53c0 12 4 22 12 34l125 183c-66 37 -105 102 -105 185c0 129 97 216 240 216h172zM439 321v245h-122
c-78 0 -130 -49 -130 -122c0 -74 52 -123 130 -123h122z" />
    <glyph glyph-name="uni0402" unicode="&#x402;" horiz-adv-x="762" 
d="M291 -11c-31 0 -53 23 -53 55v521h-178c-28 0 -49 20 -49 47s21 48 49 48h463c28 0 49 -21 49 -48s-21 -47 -49 -47h-179v-156h138c142 0 235 -84 235 -210c0 -91 -54 -162 -150 -197c-24 -8 -39 -13 -56 -13c-28 0 -51 23 -51 50c0 26 18 41 40 50c71 20 108 58 108 115
c0 67 -49 111 -126 111h-138v-271c0 -32 -23 -55 -53 -55z" />
    <glyph glyph-name="uni0462" unicode="&#x462;" horiz-adv-x="624" 
d="M350 397c138 0 230 -80 230 -199c0 -120 -92 -198 -231 -198h-211c-31 0 -55 23 -55 55v436h-40c-26 0 -46 19 -46 45c0 25 20 44 46 44h40v51c0 32 22 56 53 56s53 -24 53 -55v-52h231c25 0 45 -19 45 -44c0 -26 -20 -45 -45 -45h-231v-94h161zM350 94
c73 0 121 41 121 104s-48 105 -121 105h-161v-209h161z" />
    <glyph glyph-name="uni0472" unicode="&#x472;" horiz-adv-x="780" 
d="M389 671c194 0 347 -151 347 -341c0 -191 -153 -341 -347 -341s-346 150 -346 341s152 341 346 341zM389 574c-116 0 -205 -74 -229 -182c42 19 79 27 118 27c85 0 141 -40 226 -40c38 0 73 7 113 24c-28 102 -116 171 -228 171zM389 86c131 0 228 94 237 224
c-42 -19 -81 -28 -122 -28c-87 0 -143 41 -226 41c-39 0 -77 -8 -123 -29c16 -122 110 -208 234 -208z" />
    <glyph glyph-name="uni0474" unicode="&#x474;" horiz-adv-x="684" 
d="M636 671c38 0 62 -20 62 -50c0 -25 -17 -44 -45 -47c-2 -1 -4 -1 -6 -1c-31 -3 -51 -20 -70 -65l-200 -482c-10 -24 -27 -37 -49 -37s-40 13 -50 37l-234 557c-6 13 -10 25 -10 36c0 29 24 52 54 52c23 0 41 -13 51 -37l189 -468l158 393c30 78 74 112 150 112z" />
    <glyph glyph-name="uni0492" unicode="&#x492;" horiz-adv-x="505" 
d="M439 660c28 0 49 -21 49 -48s-21 -47 -49 -47h-243v-197h194c28 0 49 -21 49 -48s-21 -48 -49 -48h-194v-229c0 -31 -22 -54 -53 -54c-30 0 -53 23 -53 54v229h-53c-27 0 -48 21 -48 48s21 48 48 48h53v237c0 32 24 55 55 55h294z" />
    <glyph glyph-name="uni0496" unicode="&#x496;" horiz-adv-x="984" 
d="M153 652l246 -261c13 -14 18 -26 18 -39c0 -14 -5 -26 -17 -39l-263 -298c-17 -18 -31 -26 -48 -26c-27 0 -49 23 -49 50c0 12 3 22 11 31l251 282l-223 235c-10 11 -14 23 -14 35c0 28 21 49 47 49c17 0 28 -5 41 -19zM495 671c31 0 53 -23 53 -54v-574
c0 -31 -23 -54 -53 -54s-53 23 -53 54v574c0 31 23 54 53 54zM918 94c31 0 54 -23 54 -55v-137c0 -31 -21 -54 -52 -54c-30 0 -53 22 -53 54v88c-14 3 -25 11 -36 25l-244 300c-10 13 -15 25 -15 38s5 25 16 36l256 265c13 14 24 17 39 17c27 0 48 -22 48 -49
c0 -12 -5 -24 -15 -35l-230 -238l210 -255h22z" />
    <glyph glyph-name="uni0498" unicode="&#x498;" horiz-adv-x="585" 
d="M542 193c0 -97 -69 -172 -172 -196c12 -22 20 -46 20 -67c0 -73 -58 -121 -145 -121c-25 0 -43 1 -59 8c-18 7 -28 18 -28 36c0 21 17 38 38 38c13 0 20 -3 39 -3c34 0 64 16 64 48c0 23 -9 39 -19 54c-86 4 -162 44 -211 108c-9 12 -13 23 -13 33c0 27 23 48 50 48
c14 0 25 -5 37 -18c45 -51 95 -75 154 -75c81 0 138 47 138 112c0 60 -47 100 -115 100h-92c-27 0 -47 20 -47 46c0 25 20 45 47 45h66c61 0 100 35 100 90c0 57 -43 95 -107 95c-49 0 -94 -21 -128 -59c-11 -12 -24 -18 -37 -18c-27 0 -49 22 -49 48c0 13 4 22 14 34
c46 58 121 92 200 92c123 0 214 -79 214 -185c0 -55 -24 -101 -65 -132c66 -29 106 -87 106 -161z" />
    <glyph glyph-name="uni049A" unicode="&#x49a;" horiz-adv-x="651" 
d="M136 671c31 0 53 -23 53 -54v-574c0 -31 -22 -54 -53 -54c-30 0 -53 23 -53 54v574c0 31 23 54 53 54zM585 94c32 0 55 -23 55 -55v-137c0 -31 -22 -54 -52 -54c-31 0 -53 22 -53 54v87c-15 0 -31 7 -42 21l-261 301c-12 15 -17 28 -17 42c0 13 5 25 19 39l260 260
c14 17 27 19 39 19c27 0 48 -22 48 -49c0 -11 -4 -23 -15 -34l-236 -238l221 -256h34z" />
    <glyph glyph-name="uni04A0" unicode="&#x4a0;" horiz-adv-x="676" 
d="M619 71c12 -12 16 -22 16 -35c0 -27 -22 -49 -49 -49c-15 0 -29 7 -42 21l-283 306c-10 11 -16 23 -16 36c0 12 6 24 16 35l263 265c13 13 24 19 39 19c27 0 48 -21 48 -48c0 -14 -5 -25 -18 -39l-231 -232zM166 660c31 0 55 -23 55 -55v-562c0 -31 -23 -54 -53 -54
c-31 0 -53 23 -53 54v523h-72c-28 0 -49 20 -49 47s21 47 49 47h123z" />
    <glyph glyph-name="uni04A2" unicode="&#x4a2;" horiz-adv-x="740" 
d="M574 671c31 0 53 -23 53 -54v-522h29c32 0 55 -23 55 -54v-139c0 -31 -23 -54 -53 -54s-53 23 -53 54v98h-29c-31 0 -55 23 -55 55v247h-332v-259c0 -31 -22 -54 -53 -54c-30 0 -53 23 -53 54v574c0 31 23 54 53 54c31 0 53 -23 53 -54v-220h332v220c0 31 23 54 53 54z
" />
    <glyph glyph-name="uni04AA" unicode="&#x4aa;" horiz-adv-x="717" 
d="M615 194c27 0 49 -22 49 -48c0 -13 -5 -25 -18 -42c-43 -54 -108 -92 -180 -107c12 -22 20 -46 20 -67c0 -73 -58 -121 -145 -121c-25 0 -43 1 -59 8c-18 7 -28 18 -28 36c0 21 17 38 38 38c13 0 20 -3 39 -3c34 0 64 16 64 48c0 23 -9 39 -19 53
c-188 7 -333 154 -333 341c0 192 152 341 347 341c102 0 197 -43 257 -115c12 -16 17 -28 17 -42c0 -26 -22 -48 -49 -48c-16 0 -30 7 -42 21c-48 58 -109 87 -182 87c-137 0 -238 -104 -238 -244s101 -244 238 -244c72 0 133 30 181 87c12 14 26 21 43 21z" />
    <glyph glyph-name="uni04AE" unicode="&#x4ae;" horiz-adv-x="621" 
d="M578 620c0 -12 -3 -23 -12 -37l-203 -330v-210c0 -31 -23 -54 -53 -54s-53 23 -53 54v212l-202 328c-9 15 -12 27 -12 38c0 29 23 50 52 50c24 0 38 -9 51 -31l164 -278l165 278c13 21 28 31 51 31c30 0 52 -22 52 -51z" />
    <glyph glyph-name="uni04B0" unicode="&#x4b0;" horiz-adv-x="633" 
d="M580 620c0 -11 -3 -21 -10 -32l-190 -305h137c27 0 48 -21 48 -48s-21 -47 -48 -47h-147v-145c0 -31 -23 -54 -53 -54c-31 0 -53 23 -53 54v145h-147c-27 0 -48 20 -48 47s21 48 48 48h136l-190 305c-7 11 -9 21 -9 32c0 29 23 51 51 51c23 0 39 -10 52 -32l160 -270
l159 270c13 22 29 32 52 32c29 0 52 -23 52 -51z" />
    <glyph glyph-name="uni04B2" unicode="&#x4b2;" horiz-adv-x="609" 
d="M558 94c31 0 54 -23 54 -55v-137c0 -31 -21 -54 -52 -54c-30 0 -53 22 -53 54l1 87c-15 2 -28 9 -37 22l-168 238l-168 -238c-9 -14 -24 -22 -42 -22c-29 0 -52 23 -52 51c0 12 4 24 15 38l185 260l-170 244c-10 14 -15 27 -15 39c0 28 23 50 52 50c18 0 32 -7 43 -22
l152 -223l155 223c10 14 25 22 43 22c29 0 51 -22 51 -50c0 -13 -4 -25 -15 -40l-171 -243l173 -244h19z" />
    <glyph glyph-name="uni04B6" unicode="&#x4b6;" horiz-adv-x="663" 
d="M579 95c32 0 55 -23 55 -54v-139c0 -31 -23 -54 -53 -54s-53 23 -53 54v98h-29c-31 0 -55 23 -55 55v186c-38 -12 -82 -20 -128 -20c-159 0 -273 93 -273 266v130c0 31 23 54 53 54c31 0 53 -23 53 -54v-121c0 -118 71 -177 171 -177c38 0 84 9 124 24v274
c0 31 23 54 53 54c31 0 53 -23 53 -54v-522h29z" />
    <glyph glyph-name="uni04BA" unicode="&#x4ba;" horiz-adv-x="634" 
d="M310 429c153 0 246 -99 246 -264v-122c0 -31 -23 -54 -53 -54c-31 0 -53 23 -53 54v119c0 114 -49 169 -150 169c-35 0 -75 -7 -111 -19v-269c0 -31 -22 -54 -53 -54c-30 0 -53 23 -53 54v574c0 31 23 54 53 54c31 0 53 -23 53 -54v-208c39 13 81 20 121 20z" />
    <glyph glyph-name="uni04C0" unicode="&#x4c0;" horiz-adv-x="272" 
d="M136 671c31 0 53 -23 53 -54v-574c0 -31 -22 -54 -53 -54c-30 0 -53 23 -53 54v574c0 31 23 54 53 54z" />
    <glyph glyph-name="uni04C1" unicode="&#x4c1;" horiz-adv-x="989" 
d="M495 729c-83 0 -159 62 -159 133c0 24 18 43 42 43c19 0 32 -11 41 -35c12 -39 40 -61 76 -61c38 0 66 23 77 61c8 23 21 35 40 35c25 0 42 -19 42 -43c0 -70 -75 -133 -159 -133zM153 652l246 -261c13 -14 18 -26 18 -39c0 -15 -5 -26 -17 -39l-263 -298
c-17 -18 -31 -26 -48 -26c-27 0 -49 23 -49 50c0 12 3 22 11 31l251 282l-223 235c-10 11 -14 23 -14 35c0 28 21 49 47 49c17 0 28 -5 41 -19zM495 671c31 0 53 -23 53 -54v-574c0 -31 -23 -54 -53 -54s-53 23 -53 54v574c0 31 23 54 53 54zM939 70c8 -9 11 -19 11 -31
c0 -27 -22 -50 -49 -50c-17 0 -31 8 -47 26l-265 298c-11 13 -17 26 -17 39s6 26 18 39l247 261c13 14 24 19 41 19c26 0 48 -21 48 -49c0 -12 -5 -24 -15 -35l-223 -236z" />
    <glyph glyph-name="uni04D0" unicode="&#x4d0;" horiz-adv-x="663" 
d="M331 729c-83 0 -159 62 -159 133c0 24 18 43 42 43c19 0 32 -11 41 -35c12 -39 40 -61 76 -61c38 0 66 23 77 61c8 23 21 35 40 35c25 0 42 -19 42 -43c0 -70 -75 -133 -159 -133zM621 70c5 -12 8 -22 8 -30c0 -28 -23 -51 -52 -51c-24 0 -40 13 -50 37l-41 93h-311
l-39 -93c-9 -24 -26 -37 -50 -37c-29 0 -52 23 -52 51c0 8 2 18 8 30l239 565c10 24 27 36 50 36c24 0 41 -12 51 -36zM331 516l-119 -307h236z" />
    <glyph glyph-name="uni04D6" unicode="&#x4d6;" horiz-adv-x="569" 
d="M285 729c-83 0 -159 62 -159 133c0 24 18 43 42 43c19 0 32 -11 41 -35c12 -39 40 -61 76 -61c38 0 66 23 77 61c8 23 21 35 40 35c25 0 42 -19 42 -43c0 -70 -75 -133 -159 -133zM134 0c-29 0 -51 22 -51 51v558c0 29 22 51 51 51h339c28 0 49 -21 49 -48
s-21 -47 -49 -47h-284v-169h205c27 0 47 -20 47 -46s-20 -46 -47 -46h-205v-209h296c28 0 49 -20 49 -47s-21 -48 -49 -48h-351z" />
    <glyph glyph-name="uni04D8" unicode="&#x4d8;" horiz-adv-x="732" 
d="M351 671c189 0 337 -149 337 -339c0 -192 -151 -343 -341 -343c-175 0 -304 126 -304 297c0 6 0 16 2 28c2 29 22 51 49 51h484c-14 122 -106 209 -227 209c-72 0 -139 -31 -184 -85c-16 -19 -28 -26 -45 -26c-27 0 -47 20 -47 47c0 12 5 23 18 38c65 80 156 123 258 123
zM350 86c113 0 201 76 224 186h-427c1 -108 84 -186 203 -186z" />
    <glyph glyph-name="uni04E2" unicode="&#x4e2;" horiz-adv-x="720" 
d="M235 763c-25 0 -44 19 -44 43s19 42 44 42h233c24 0 43 -18 43 -42s-19 -43 -43 -43h-233zM585 671c29 0 52 -23 52 -52v-576c0 -31 -22 -54 -53 -54c-30 0 -53 23 -53 54v427l-352 -459c-12 -16 -25 -22 -43 -22c-29 0 -53 23 -53 52v576c0 31 23 54 53 54
c31 0 53 -23 53 -54v-430l349 457c12 17 24 27 47 27z" />
    <glyph glyph-name="uni04E6" unicode="&#x4e6;" horiz-adv-x="780" 
d="M267 747c-35 0 -68 30 -68 65c0 37 33 65 68 65c37 0 67 -28 67 -65c0 -35 -30 -65 -67 -65zM511 746c-34 0 -67 30 -67 65c0 37 33 66 67 66c38 0 68 -29 68 -66c0 -35 -30 -65 -68 -65zM389 671c194 0 347 -151 347 -341c0 -191 -153 -341 -347 -341s-346 150 -346 341
s152 341 346 341zM390 574c-137 0 -237 -103 -237 -243c0 -142 100 -245 237 -245c136 0 237 104 237 245c0 139 -101 243 -237 243z" />
    <glyph glyph-name="uni04E8" unicode="&#x4e8;" horiz-adv-x="780" 
d="M389 671c194 0 347 -151 347 -341c0 -191 -153 -341 -347 -341s-346 150 -346 341s152 341 346 341zM390 574c-115 0 -204 -72 -229 -178h458c-26 105 -115 178 -229 178zM390 86c127 0 224 91 236 218h-472c12 -128 108 -218 236 -218z" />
    <glyph glyph-name="uni04EE" unicode="&#x4ee;" horiz-adv-x="620" 
d="M187 763c-25 0 -44 19 -44 43s19 42 44 42h233c24 0 43 -18 43 -42s-19 -43 -43 -43h-233zM531 663c30 0 54 -25 54 -55c0 -8 -2 -17 -8 -28l-208 -450c-45 -95 -112 -141 -209 -141c-25 0 -46 3 -63 9c-20 7 -32 23 -32 44c0 26 21 47 50 47c7 0 17 -1 29 -1
c64 0 96 21 121 72l1 3l-210 417c-6 10 -8 20 -8 29c0 29 25 54 54 54c22 0 39 -11 51 -33l171 -353l156 353c9 21 29 33 51 33z" />
    <glyph glyph-name="uni04F2" unicode="&#x4f2;" horiz-adv-x="620" 
d="M213 723c-38 2 -53 42 -39 69l58 112c12 22 33 29 51 28c39 -2 64 -48 39 -84l-67 -102c-12 -17 -29 -23 -42 -23zM411 723c-38 2 -53 42 -39 69l58 112c12 22 33 29 51 28c39 -2 64 -48 39 -84l-67 -102c-12 -17 -29 -23 -42 -23zM531 663c30 0 54 -25 54 -55
c0 -8 -2 -17 -8 -28l-208 -450c-45 -95 -112 -141 -209 -141c-25 0 -46 3 -63 9c-20 7 -32 23 -32 44c0 26 21 47 50 47c7 0 17 -1 29 -1c64 0 96 21 121 72l1 3l-210 417c-6 10 -8 20 -8 29c0 29 25 54 54 54c22 0 39 -11 51 -33l171 -353l156 353c9 21 29 33 51 33z" />
    <glyph glyph-name="uni0414.loclBGR" horiz-adv-x="761" 
d="M681 95c32 0 55 -23 55 -54v-127c0 -32 -23 -55 -53 -55s-53 23 -53 55v86h-499v-86c0 -32 -23 -55 -53 -55s-53 23 -53 55v127c0 31 23 54 55 54h29l221 540c10 24 27 36 51 36c23 0 40 -12 50 -36l221 -540h29zM381 510l-160 -415h320z" />
    <glyph glyph-name="uni041B.loclBGR" horiz-adv-x="669" 
d="M627 70c5 -11 7 -21 7 -30c0 -28 -23 -51 -52 -51c-23 0 -40 13 -50 37l-198 469l-198 -469c-10 -24 -26 -37 -50 -37c-29 0 -52 23 -52 51c0 9 2 19 8 30l242 565c10 24 27 36 50 36s40 -12 51 -36z" />
    <glyph glyph-name="uni0410.ordn" horiz-adv-x="432" 
d="M404 300c4 -8 5 -14 5 -20c0 -24 -20 -43 -44 -43c-18 0 -34 10 -41 29l-18 45h-180l-18 -45c-8 -19 -23 -29 -42 -29c-24 0 -43 19 -43 43c0 6 1 12 5 20l146 338c8 19 23 30 42 30c18 0 34 -11 42 -31zM216 544l-64 -168h128z" />
    <glyph glyph-name="uni0413.ordn" horiz-adv-x="344" 
d="M296 660c23 0 40 -16 40 -38c0 -23 -17 -40 -40 -40h-149v-301c0 -25 -17 -44 -42 -44s-43 19 -43 44v334c0 26 19 45 45 45h189z" />
    <glyph glyph-name="uni0415.ordn" horiz-adv-x="378" 
d="M305 660c23 0 40 -16 40 -38c0 -23 -17 -39 -40 -39h-157v-86h118c20 0 35 -15 35 -34c0 -20 -15 -34 -35 -34h-118v-108h165c23 0 40 -16 40 -39c0 -22 -17 -38 -40 -38h-206c-26 0 -45 19 -45 45v326c0 26 19 45 45 45h198z" />
    <glyph glyph-name="uni0419.ordn" horiz-adv-x="487" 
d="M237 703c-55 0 -107 39 -107 81c0 18 14 33 32 33c13 0 23 -7 29 -19c11 -21 27 -32 46 -32c18 0 35 11 46 32c6 12 15 19 29 19c17 0 32 -15 32 -33c0 -43 -50 -81 -107 -81zM382 667c24 0 43 -19 43 -43v-343c0 -25 -18 -44 -43 -44s-43 19 -43 44v228l-195 -250
c-12 -15 -25 -22 -39 -22c-24 0 -43 19 -43 43v343c0 25 19 44 43 44c25 0 43 -19 43 -44v-231l196 253c12 15 24 22 38 22z" />
    <glyph glyph-name="uni041C.ordn" horiz-adv-x="529" 
d="M425 667c24 0 42 -19 42 -43v-345c0 -24 -17 -42 -42 -42s-43 18 -43 42v209l-83 -130c-9 -13 -21 -20 -34 -20c-14 0 -27 8 -35 20l-83 130v-209c0 -24 -17 -42 -42 -42s-43 18 -43 42v346c0 24 19 42 43 42c14 0 26 -7 35 -21l124 -190l122 186c12 17 24 25 39 25z" />
    <glyph glyph-name="uni041E.ordn" horiz-adv-x="506" 
d="M252 667c124 0 221 -95 221 -215s-97 -215 -221 -215c-123 0 -219 94 -219 215s96 215 219 215zM253 588c-78 0 -133 -56 -133 -136s55 -136 133 -136c77 0 133 57 133 136s-56 136 -133 136z" />
    <glyph glyph-name="uni0423.ordn" horiz-adv-x="410" 
d="M333 667c24 0 43 -19 43 -43c0 -8 -2 -15 -7 -27l-114 -264c-27 -63 -76 -96 -144 -96c-17 0 -31 2 -42 6c-15 5 -26 18 -26 35c0 23 18 39 41 39l17 -1c32 0 53 11 67 33l-121 249c-6 13 -8 20 -8 26c0 24 20 43 44 43c17 0 32 -10 42 -32l88 -192l78 191
c9 23 24 33 42 33z" />
    <glyph glyph-name="uni0425.ordn" horiz-adv-x="372" 
d="M343 309c7 -10 11 -19 11 -29c0 -24 -19 -43 -43 -43c-14 0 -26 6 -36 21l-90 132l-89 -132c-10 -15 -22 -21 -36 -21c-24 0 -44 19 -44 43c0 10 4 19 11 29l108 151l-96 135c-6 9 -11 19 -11 29c0 24 19 43 43 43c15 0 27 -6 36 -20l82 -122l81 121c9 15 22 21 37 21
c24 0 43 -19 43 -43c0 -10 -4 -20 -11 -29l-100 -141z" />
    <glyph glyph-name="uni042B.ordn" horiz-adv-x="595" 
d="M105 667c24 0 42 -18 42 -44v-342c0 -26 -18 -44 -42 -44c-25 0 -43 19 -43 44v342c0 25 18 44 43 44zM285 667c25 0 43 -19 43 -44v-106h84c89 0 151 -55 151 -137s-61 -136 -151 -136h-125c-26 0 -45 19 -45 45v334c0 25 18 44 43 44zM412 442h-84v-123h84
c39 0 64 24 64 62c0 37 -25 61 -64 61z" />
    <glyph glyph-name="uni042E.ordn" horiz-adv-x="692" 
d="M438 667c123 0 221 -95 221 -215s-98 -215 -221 -215c-113 0 -202 80 -215 187h-76v-143c0 -26 -18 -44 -42 -44c-25 0 -43 19 -43 44v342c0 25 18 44 43 44c24 0 42 -18 42 -44v-122h79c22 96 106 166 212 166zM438 316c77 0 134 57 134 136s-57 136 -134 136
s-133 -57 -133 -136s56 -136 133 -136z" />
    <glyph glyph-name="uni042F.ordn" horiz-adv-x="419" 
d="M313 660c25 0 44 -19 44 -44v-336c0 -25 -18 -43 -42 -43c-25 0 -43 19 -43 43v92h-61c-6 0 -12 0 -18 1l-86 -118c-8 -11 -21 -18 -34 -18c-25 0 -44 18 -44 42c0 10 3 19 10 27l72 94c-37 26 -59 67 -59 117c0 85 65 143 159 143h102zM272 446v139h-62
c-43 0 -72 -27 -72 -69s29 -70 72 -70h62z" />
    <glyph glyph-name="uni0409.ss01" horiz-adv-x="971" 
d="M696 416c137 0 230 -84 230 -208c0 -125 -92 -208 -230 -208h-133c-31 0 -51 16 -64 50l-175 440l-188 -464c-9 -24 -26 -37 -50 -37c-29 0 -52 23 -52 51c0 9 2 19 8 30l231 563c11 26 28 38 51 38s41 -12 51 -36l89 -219h232zM695 94c75 0 122 45 122 114
c0 70 -47 114 -122 114h-193l93 -228h100z" />
    <glyph glyph-name="uni0430" unicode="&#x430;" horiz-adv-x="536" 
d="M264 502c127 0 202 -76 202 -205v-255c0 -31 -22 -53 -52 -53s-52 23 -52 53v6c-36 -38 -88 -59 -151 -59c-102 0 -171 57 -171 142c0 86 70 140 181 140h139v32c0 67 -38 105 -105 105c-41 0 -78 -15 -109 -46c-13 -11 -24 -16 -36 -16c-25 0 -46 21 -46 44
c0 15 7 29 21 43c42 44 107 69 179 69zM233 70c71 0 127 51 127 116v9h-126c-57 0 -87 -21 -87 -60c0 -40 34 -65 86 -65z" />
    <glyph glyph-name="uni0431" unicode="&#x431;" horiz-adv-x="620" 
d="M337 481c132 0 239 -110 239 -245c0 -139 -112 -246 -257 -246c-153 0 -256 113 -256 283v59c0 220 83 329 300 392l90 25c17 5 25 7 32 7c26 0 46 -21 46 -47c0 -24 -15 -41 -43 -49l-95 -27c-150 -43 -215 -109 -221 -230c40 49 99 78 165 78zM319 86
c83 0 149 66 149 149c0 84 -66 149 -149 149s-149 -65 -149 -149c0 -82 66 -149 149 -149z" />
    <glyph glyph-name="uni0432" unicode="&#x432;" horiz-adv-x="552" 
d="M429 262c51 -22 78 -63 78 -116c0 -86 -71 -146 -172 -146h-199c-31 0 -54 23 -54 54v383c0 30 23 54 54 54h172c100 0 165 -52 165 -132c0 -39 -15 -73 -44 -97zM184 403v-107h123c43 0 67 19 67 54s-22 53 -67 53h-123zM327 89c51 0 82 25 82 64c0 38 -31 61 -82 61
h-143v-125h143z" />
    <glyph glyph-name="uni0433" unicode="&#x433;" horiz-adv-x="448" 
d="M135 -11c-31 0 -53 23 -53 54v394c0 30 23 54 54 54h258c27 0 47 -20 47 -46s-20 -45 -47 -45h-207v-357c0 -31 -22 -54 -52 -54z" />
    <glyph glyph-name="uni0453" unicode="&#x453;" horiz-adv-x="448" 
d="M263 564c-28 1 -47 23 -46 47c0 8 3 16 7 24l54 125c8 18 29 31 50 31c29 0 52 -24 52 -54c0 -8 -2 -17 -8 -28l-67 -118c-9 -15 -23 -28 -42 -27zM135 -11c-31 0 -53 23 -53 54v394c0 30 23 54 54 54h258c27 0 47 -20 47 -46s-20 -45 -47 -45h-207v-357
c0 -31 -22 -54 -52 -54z" />
    <glyph glyph-name="uni0491" unicode="&#x491;" horiz-adv-x="459" 
d="M393 629c31 0 52 -23 52 -54v-121c0 -31 -23 -54 -54 -54h-204v-357c0 -31 -22 -54 -52 -54c-31 0 -53 23 -53 54v394c0 30 23 54 54 54h204v84c0 31 23 54 53 54z" />
    <glyph glyph-name="uni0434" unicode="&#x434;" horiz-adv-x="643" 
d="M555 91c30 0 54 -23 54 -54v-135c0 -32 -23 -54 -53 -54s-53 23 -53 54v98h-363v-98c0 -32 -23 -54 -53 -54s-53 23 -53 54v135c0 31 24 54 54 54h9c63 68 88 170 88 347v1c0 30 24 52 54 52h231c31 0 54 -24 54 -54v-346h31zM290 400c-1 -153 -25 -249 -80 -309h209v309
h-129z" />
    <glyph glyph-name="uni0435" unicode="&#x435;" horiz-adv-x="570" 
d="M298 502c131 0 228 -96 228 -228v-5c0 -36 -23 -58 -60 -58h-314c14 -79 73 -129 160 -129c42 0 82 13 115 38c9 6 18 10 27 10c25 0 44 -19 44 -44c0 -18 -7 -30 -26 -44c-47 -35 -102 -53 -163 -53c-152 0 -264 109 -264 256c0 145 110 257 253 257zM295 413
c-71 0 -125 -48 -141 -120h267c-2 71 -52 120 -126 120z" />
    <glyph glyph-name="uni0450" unicode="&#x450;" horiz-adv-x="570" 
d="M237 591l-67 118c-6 11 -8 20 -8 28c0 30 23 54 52 54c21 0 42 -13 50 -31l54 -125c4 -8 7 -16 7 -24c1 -24 -18 -46 -46 -47c-19 -1 -33 12 -42 27zM298 502c131 0 228 -96 228 -228v-5c0 -36 -23 -58 -60 -58h-314c14 -79 73 -129 160 -129c42 0 82 13 115 38
c9 6 18 10 27 10c25 0 44 -19 44 -44c0 -18 -7 -30 -26 -44c-47 -35 -102 -53 -163 -53c-152 0 -264 109 -264 256c0 145 110 257 253 257zM295 413c-71 0 -125 -48 -141 -120h267c-2 71 -52 120 -126 120z" />
    <glyph glyph-name="uni0451" unicode="&#x451;" horiz-adv-x="570" 
d="M185 609c-36 0 -68 31 -68 65c0 36 31 66 68 66c38 0 67 -28 67 -66c0 -35 -30 -65 -67 -65zM409 609c-36 0 -68 31 -68 65c0 36 31 66 68 66c38 0 68 -28 68 -66c0 -35 -31 -65 -68 -65zM298 502c131 0 228 -96 228 -228v-5c0 -36 -23 -58 -60 -58h-314
c14 -79 73 -129 160 -129c42 0 82 13 115 38c9 6 18 10 27 10c25 0 44 -19 44 -44c0 -18 -7 -30 -26 -44c-47 -35 -102 -53 -163 -53c-152 0 -264 109 -264 256c0 145 110 257 253 257zM295 413c-71 0 -125 -48 -141 -120h267c-2 71 -52 120 -126 120z" />
    <glyph glyph-name="uni0436" unicode="&#x436;" horiz-adv-x="810" 
d="M148 482l164 -179c12 -13 17 -25 17 -38c0 -12 -4 -23 -15 -36l-186 -221c-10 -14 -24 -19 -38 -19c-29 0 -51 21 -51 48c0 11 4 23 13 34l165 196l-143 149c-12 13 -17 25 -17 38c0 27 21 47 48 48c17 0 30 -6 43 -20zM406 502c29 0 52 -23 52 -54v-405
c0 -32 -23 -54 -52 -54c-31 0 -53 23 -53 54v405c0 31 22 54 53 54zM756 71c9 -12 14 -23 14 -34c0 -27 -22 -48 -51 -48c-15 0 -28 6 -39 19l-185 221c-11 13 -16 24 -16 36c0 13 6 25 18 38l164 179c13 14 26 20 42 20c27 -1 49 -21 49 -48c0 -13 -6 -25 -17 -38
l-144 -149z" />
    <glyph glyph-name="uni0437" unicode="&#x437;" horiz-adv-x="503" 
d="M374 256c47 -25 75 -68 75 -119c0 -89 -83 -148 -207 -148c-70 0 -133 21 -172 59c-16 14 -23 26 -23 40c0 26 21 46 48 46c12 0 20 -3 33 -13c28 -26 67 -39 113 -39c66 0 103 25 103 68c0 41 -34 64 -92 64h-53c-24 0 -43 18 -43 42s19 42 43 42h51c47 0 73 20 73 55
c0 37 -28 56 -87 56c-43 0 -77 -11 -103 -32c-12 -9 -21 -13 -33 -13c-26 0 -46 20 -46 46c0 15 6 26 23 40c37 32 97 52 162 52c116 0 189 -54 189 -139c0 -44 -19 -82 -54 -107z" />
    <glyph glyph-name="uni0438" unicode="&#x438;" horiz-adv-x="603" 
d="M470 502c29 0 52 -23 52 -54v-405c0 -31 -23 -54 -53 -54s-52 23 -52 54v272l-235 -299c-16 -19 -31 -27 -48 -27c-30 0 -52 23 -52 54v405c0 31 22 54 53 54c29 0 52 -23 52 -54v-279l235 305c15 20 29 28 48 28z" />
    <glyph glyph-name="uni0439" unicode="&#x439;" horiz-adv-x="603" 
d="M304 577c-86 0 -161 69 -161 145c0 25 18 45 42 45c23 0 37 -13 42 -37c6 -41 38 -70 77 -70c40 0 71 29 78 70c5 23 20 37 41 37c24 0 43 -20 43 -45c0 -78 -73 -145 -162 -145zM470 502c29 0 52 -23 52 -54v-405c0 -31 -23 -54 -53 -54s-52 23 -52 54v272l-235 -299
c-16 -19 -31 -27 -48 -27c-30 0 -52 23 -52 54v405c0 31 22 54 53 54c29 0 52 -23 52 -54v-279l235 305c15 20 29 28 48 28z" />
    <glyph glyph-name="uni045D" unicode="&#x45d;" horiz-adv-x="603" 
d="M244 591l-67 118c-6 11 -8 20 -8 28c0 30 23 54 52 54c21 0 42 -13 50 -31l54 -125c4 -8 7 -16 7 -24c1 -24 -18 -46 -46 -47c-19 -1 -33 12 -42 27zM470 502c29 0 52 -23 52 -54v-405c0 -31 -23 -54 -53 -54s-52 23 -52 54v272l-235 -299c-16 -19 -31 -27 -48 -27
c-30 0 -52 23 -52 54v405c0 31 22 54 53 54c29 0 52 -23 52 -54v-279l235 305c15 20 29 28 48 28z" />
    <glyph glyph-name="uni043A" unicode="&#x43a;" horiz-adv-x="542" 
d="M135 502c30 0 52 -23 52 -54v-405c0 -31 -22 -54 -52 -54c-31 0 -53 23 -53 54v405c0 31 22 54 53 54zM493 73c8 -11 13 -22 13 -35c0 -27 -22 -49 -50 -49c-15 0 -28 5 -37 16l-192 223c-10 13 -15 25 -15 37c0 13 5 26 17 39l174 182c9 11 22 16 37 16
c28 -1 49 -22 49 -49c0 -14 -5 -27 -15 -37l-147 -152z" />
    <glyph glyph-name="uni045C" unicode="&#x45c;" horiz-adv-x="542" 
d="M297 564c-28 1 -47 23 -46 47c0 8 3 16 7 24l54 125c8 18 29 31 50 31c29 0 52 -24 52 -54c0 -8 -2 -17 -8 -28l-67 -118c-9 -15 -23 -28 -42 -27zM135 502c30 0 52 -23 52 -54v-405c0 -31 -22 -54 -52 -54c-31 0 -53 23 -53 54v405c0 31 22 54 53 54zM493 73
c8 -11 13 -22 13 -35c0 -27 -22 -49 -50 -49c-15 0 -28 5 -37 16l-192 223c-10 13 -15 25 -15 37c0 13 5 26 17 39l174 182c9 11 22 16 37 16c28 -1 49 -22 49 -49c0 -14 -5 -27 -15 -37l-147 -152z" />
    <glyph glyph-name="uni043B" unicode="&#x43b;" horiz-adv-x="574" 
d="M438 491c31 0 54 -24 54 -54v-394c0 -31 -22 -54 -52 -54c-29 0 -52 23 -52 54v357h-148v-48c0 -190 -52 -306 -158 -351c-14 -5 -24 -8 -36 -8c-27 0 -48 22 -48 48c0 23 14 35 34 45c68 30 103 111 103 307v44c0 30 23 54 54 54h249z" />
    <glyph glyph-name="uni043C" unicode="&#x43c;" horiz-adv-x="698" 
d="M135 -11c-31 0 -53 23 -53 54v405c0 30 22 54 53 54c18 0 32 -9 42 -22l172 -229l172 229c10 13 24 22 42 22c31 0 53 -24 53 -54v-405c0 -31 -22 -54 -53 -54c-30 0 -52 23 -52 54v255l-126 -162c-9 -11 -22 -17 -36 -17s-27 6 -36 17l-126 162v-255
c0 -31 -22 -54 -52 -54z" />
    <glyph glyph-name="uni043D" unicode="&#x43d;" horiz-adv-x="592" 
d="M458 502c30 0 53 -23 53 -54v-406c0 -30 -23 -53 -53 -53c-29 0 -52 23 -52 53v170h-219v-170c0 -30 -22 -53 -52 -53c-31 0 -53 23 -53 53v406c0 31 22 54 53 54c29 0 52 -23 52 -54v-145h219v145c0 31 22 54 52 54z" />
    <glyph glyph-name="uni043E" unicode="&#x43e;" horiz-adv-x="609" 
d="M304 502c146 0 261 -113 261 -256s-115 -257 -261 -257c-145 1 -259 114 -259 257c0 144 114 256 259 256zM305 406c-88 -1 -153 -69 -153 -161c0 -91 65 -159 152 -159s153 69 153 159c0 92 -66 160 -152 161z" />
    <glyph glyph-name="uni043F" unicode="&#x43f;" horiz-adv-x="586" 
d="M134 -11c-30 0 -52 22 -52 52v397c0 30 22 53 52 53h317c30 0 53 -23 53 -53v-397c0 -30 -23 -52 -54 -52c-29 0 -52 22 -52 52v359h-211v-359c0 -30 -23 -52 -53 -52z" />
    <glyph glyph-name="uni0440" unicode="&#x440;" horiz-adv-x="636" 
d="M350 502c139 0 241 -109 241 -256c0 -148 -102 -257 -241 -257c-69 0 -127 27 -164 71v-198c0 -31 -22 -54 -52 -54s-53 23 -53 54v588c0 30 22 53 53 53c29 0 51 -23 51 -53v-20c36 45 95 72 165 72zM333 85c87 0 150 68 150 160c0 93 -63 161 -150 161
c-88 0 -148 -65 -148 -160c0 -96 59 -161 148 -161z" />
    <glyph glyph-name="uni0441" unicode="&#x441;" horiz-adv-x="552" 
d="M305 -11c-146 0 -260 113 -260 257c0 143 114 256 260 256c86 0 160 -41 198 -100c8 -12 10 -20 10 -28c0 -27 -21 -48 -47 -48c-14 0 -26 4 -37 17c-29 36 -69 62 -123 62c-88 0 -154 -68 -154 -159c0 -93 65 -160 154 -160c54 0 93 26 123 61c12 14 23 17 37 17
c26 0 47 -21 47 -47c0 -9 -2 -17 -9 -27c-41 -61 -111 -101 -199 -101z" />
    <glyph glyph-name="uni0442" unicode="&#x442;" horiz-adv-x="467" 
d="M233 -11c-29 0 -52 23 -52 54v357h-125c-26 0 -46 20 -46 46s20 45 46 45h354c27 0 46 -19 46 -45s-19 -46 -46 -46h-125v-357c0 -31 -22 -54 -52 -54z" />
    <glyph glyph-name="uni0443" unicode="&#x443;" horiz-adv-x="549" 
d="M474 502c28 0 51 -24 51 -51c0 -8 -1 -16 -5 -24l-226 -473c-49 -102 -105 -145 -191 -145c-17 0 -34 2 -47 6c-20 6 -32 24 -32 44c0 25 22 46 48 46c8 0 14 -1 20 -1c46 0 78 21 102 72l22 47l-182 403c-3 8 -6 15 -6 25c0 27 24 51 52 51c21 0 40 -12 48 -31l147 -330
l151 330c8 18 27 31 48 31z" />
    <glyph glyph-name="uni045E" unicode="&#x45e;" horiz-adv-x="549" 
d="M272 577c-86 0 -161 69 -161 145c0 25 18 45 42 45c23 0 37 -13 42 -37c6 -41 38 -70 77 -70c40 0 71 29 78 70c5 23 20 37 41 37c24 0 43 -20 43 -45c0 -78 -73 -145 -162 -145zM474 502c28 0 51 -24 51 -51c0 -8 -1 -16 -5 -24l-226 -473c-49 -102 -105 -145 -191 -145
c-17 0 -34 2 -47 6c-20 6 -32 24 -32 44c0 25 22 46 48 46c8 0 14 -1 20 -1c46 0 78 21 102 72l22 47l-182 403c-3 8 -6 15 -6 25c0 27 24 51 52 51c21 0 40 -12 48 -31l147 -330l151 330c8 18 27 31 48 31z" />
    <glyph glyph-name="uni0444" unicode="&#x444;" horiz-adv-x="757" 
d="M713 246c0 -152 -114 -256 -282 -257v-126c0 -32 -23 -54 -52 -54c-31 0 -53 23 -53 54v126c-167 1 -281 105 -281 257c0 151 114 254 281 255v206c0 31 22 54 53 54c29 0 52 -22 52 -54v-206c168 -1 282 -104 282 -255zM150 244c0 -101 68 -164 177 -164h2v329h-2
c-109 0 -177 -63 -177 -165zM430 80c109 0 178 63 178 164s-69 165 -178 165h-2v-329h2z" />
    <glyph glyph-name="uni0445" unicode="&#x445;" horiz-adv-x="514" 
d="M458 77c10 -13 14 -25 14 -38c0 -28 -22 -50 -51 -50c-18 0 -33 9 -44 24l-120 158l-121 -158c-11 -14 -26 -24 -43 -24c-29 0 -52 22 -52 50c0 13 5 25 15 38l135 175l-121 159c-14 17 -18 28 -18 40c0 28 23 51 52 51c17 0 32 -9 43 -24l110 -147l112 147
c12 15 26 24 44 24c28 0 51 -23 51 -51c0 -12 -5 -24 -17 -40l-125 -160z" />
    <glyph glyph-name="uni0447" unicode="&#x447;" horiz-adv-x="555" 
d="M421 502c30 0 52 -23 52 -54v-405c0 -32 -22 -54 -52 -54s-53 23 -53 54v135c-30 -10 -64 -17 -100 -17c-137 0 -223 88 -223 225v62c0 31 22 54 52 54s52 -23 52 -54v-55c0 -87 45 -134 127 -134c30 0 63 6 92 15v174c0 31 22 54 53 54z" />
    <glyph glyph-name="uni0446" unicode="&#x446;" horiz-adv-x="609" 
d="M440 502c30 0 52 -23 52 -54v-357h29c30 0 54 -23 54 -54v-135c0 -31 -22 -54 -53 -54c-30 0 -53 23 -53 54v98h-333c-31 0 -54 23 -54 54v394c0 31 22 54 53 54c29 0 52 -23 52 -54v-357h200v357c0 31 22 54 53 54z" />
    <glyph glyph-name="uni0448" unicode="&#x448;" horiz-adv-x="871" 
d="M136 0c-31 0 -54 23 -54 54v394c0 31 22 54 53 54c29 0 52 -23 52 -54v-357h196v357c0 31 22 54 53 54c29 0 52 -23 52 -54v-357h196v357c0 31 23 54 53 54c31 0 52 -23 52 -54v-394c0 -31 -23 -54 -54 -54h-599z" />
    <glyph glyph-name="uni0449" unicode="&#x449;" horiz-adv-x="907" 
d="M820 -152c-30 0 -53 23 -53 54v98h-631c-31 0 -54 23 -54 54v394c0 31 22 54 53 54c29 0 52 -23 52 -54v-357h196v357c0 31 23 54 53 54s52 -23 52 -54v-357h196v357c0 31 23 54 53 54c31 0 52 -23 52 -54v-357h29c31 0 54 -23 54 -54v-135c0 -31 -21 -54 -52 -54z" />
    <glyph glyph-name="uni045F" unicode="&#x45f;" horiz-adv-x="574" 
d="M441 502c30 0 52 -23 52 -54v-394c0 -31 -24 -54 -54 -54h-99v-98c0 -31 -22 -54 -53 -54c-30 0 -53 23 -53 54v98h-98c-31 0 -54 23 -54 54v394c0 31 22 54 53 54c29 0 52 -23 52 -54v-357h201v357c0 31 22 54 53 54z" />
    <glyph glyph-name="uni044C" unicode="&#x44c;" horiz-adv-x="550" 
d="M135 502c30 0 52 -23 52 -54v-99h118c116 0 197 -67 197 -174c0 -108 -81 -175 -197 -175h-169c-31 0 -54 23 -54 54v394c0 31 22 54 53 54zM297 258h-110v-167h110c60 0 97 31 97 82s-38 85 -97 85z" />
    <glyph glyph-name="uni044A" unicode="&#x44a;" horiz-adv-x="574" 
d="M159 0c-30 0 -54 23 -54 54v346h-65c-25 0 -46 19 -46 45s21 46 46 46h117c30 0 54 -24 54 -54v-88h118c118 0 196 -69 196 -174c0 -106 -78 -175 -196 -175h-170zM211 91h110c60 0 97 31 97 82s-39 85 -97 85h-110v-167z" />
    <glyph glyph-name="uni044B" unicode="&#x44b;" horiz-adv-x="797" 
d="M135 502c30 0 52 -23 52 -54v-99h118c116 0 197 -67 197 -174c0 -108 -81 -175 -197 -175h-169c-31 0 -54 23 -54 54v394c0 31 22 54 53 54zM658 -11c-30 0 -52 23 -52 54v405c0 31 22 54 53 54c30 0 52 -23 52 -54v-405c0 -31 -23 -54 -53 -54zM297 258h-110v-167h110
c60 0 97 31 97 82s-38 85 -97 85z" />
    <glyph glyph-name="uni0459" unicode="&#x459;" horiz-adv-x="856" 
d="M610 349c119 0 198 -69 198 -174s-78 -175 -198 -175h-168c-30 0 -54 23 -54 54v346h-148v-48c0 -190 -54 -302 -158 -351c-14 -6 -24 -8 -36 -8c-27 0 -48 22 -48 48c0 20 11 36 34 46c75 31 103 117 103 315v35c0 30 23 54 54 54h249c31 0 54 -24 54 -54v-88h118z
M603 91c59 0 97 32 97 82c0 51 -39 85 -97 85h-111v-167h111z" />
    <glyph glyph-name="uni045A" unicode="&#x45a;" horiz-adv-x="867" 
d="M621 336c120 0 198 -65 198 -167c0 -104 -76 -169 -198 -169h-169c-31 0 -54 23 -54 54v166h-211v-177c0 -32 -23 -54 -52 -54c-31 0 -53 23 -53 54v405c0 31 22 54 53 54c29 0 52 -23 52 -54v-137h211v137c0 31 22 54 53 54c30 0 52 -23 52 -54v-112h118zM614 91
c61 0 97 28 97 76s-38 78 -97 78h-111v-154h111z" />
    <glyph glyph-name="uni0455" unicode="&#x455;" horiz-adv-x="455" 
d="M228 -11c-76 0 -138 31 -180 76c-10 9 -15 20 -15 34c0 25 21 46 47 46c11 0 22 -4 33 -14c31 -29 68 -51 115 -51c43 0 79 18 79 55c0 32 -29 45 -69 61l-50 21c-79 33 -128 69 -128 143c0 91 76 142 173 142c63 0 118 -23 156 -60c11 -10 16 -22 16 -35
c0 -25 -20 -45 -44 -45c-11 0 -20 5 -33 15c-26 20 -60 34 -97 34c-39 0 -67 -15 -67 -47c0 -27 20 -40 65 -58l47 -19c89 -37 134 -76 134 -148c0 -99 -84 -150 -182 -150z" />
    <glyph glyph-name="uni0454" unicode="&#x454;" horiz-adv-x="557" 
d="M467 163c25 0 46 -20 46 -46c0 -8 -2 -16 -9 -27c-39 -59 -108 -101 -200 -101c-144 0 -260 112 -260 257c0 144 116 256 260 256c92 0 161 -42 200 -101c7 -11 9 -19 9 -27c0 -27 -21 -46 -46 -46c-12 0 -22 3 -33 14c-30 34 -68 65 -128 65c-74 0 -132 -49 -150 -116
h175c24 0 42 -17 42 -41c0 -23 -18 -41 -42 -41h-177c15 -73 75 -126 152 -126c60 0 98 31 128 65c11 12 21 15 33 15z" />
    <glyph glyph-name="uni044D" unicode="&#x44d;" horiz-adv-x="557" 
d="M253 502c144 0 260 -112 260 -256c0 -145 -116 -257 -260 -257c-92 0 -161 42 -200 101c-7 11 -9 19 -9 27c0 26 21 46 46 46c12 0 22 -3 33 -15c30 -34 68 -65 128 -65c77 0 137 53 152 126h-177c-24 0 -42 18 -42 41c0 24 18 41 42 41h175c-18 67 -76 116 -150 116
c-60 0 -98 -31 -128 -65c-11 -11 -21 -14 -33 -14c-25 0 -46 19 -46 46c0 8 2 16 9 27c39 59 108 101 200 101z" />
    <glyph glyph-name="uni0456" unicode="&#x456;" horiz-adv-x="273" 
d="M137 742c38 0 70 -30 70 -68s-32 -68 -70 -68c-39 0 -70 30 -70 68s31 68 70 68zM136 -11c-30 0 -52 23 -52 54v405c0 31 22 54 53 54c30 0 52 -23 52 -54v-405c0 -31 -23 -54 -53 -54z" />
    <glyph glyph-name="uni0457" unicode="&#x457;" horiz-adv-x="273" 
d="M31 735c38 0 68 -28 68 -66c0 -35 -30 -65 -68 -65c-34 0 -67 30 -67 65c0 38 33 66 67 66zM242 735c37 0 68 -28 68 -66c0 -35 -31 -65 -68 -65c-35 0 -67 30 -67 65c0 38 32 66 67 66zM137 -11c-30 0 -52 23 -52 54v405c0 31 22 54 53 54c30 0 52 -23 52 -54v-405
c0 -31 -23 -54 -53 -54z" />
    <glyph glyph-name="uni0458" unicode="&#x458;" horiz-adv-x="273" 
d="M137 742c38 0 70 -30 70 -68s-32 -68 -70 -68c-39 0 -70 30 -70 68s31 68 70 68zM17 -191c-19 0 -33 2 -46 6c-22 6 -38 22 -38 44c0 26 20 46 46 46c7 0 11 -1 19 -1c50 0 86 19 86 90v454c0 31 22 54 53 54c30 0 52 -23 52 -54v-468c0 -116 -69 -171 -172 -171z" />
    <glyph glyph-name="uni045B" unicode="&#x45b;" horiz-adv-x="589" 
d="M328 481c110 0 183 -77 183 -196v-242c0 -32 -23 -54 -53 -54s-53 23 -53 54v229c0 67 -43 112 -106 112c-66 0 -113 -46 -113 -112v-229c0 -31 -22 -54 -52 -54s-52 23 -52 54v523h-41c-26 0 -46 19 -46 45s20 45 46 45h41v51c0 32 22 54 52 54s52 -23 52 -54v-51h157
c25 0 45 -19 45 -45s-20 -45 -45 -45h-157v-146c33 39 83 61 142 61z" />
    <glyph glyph-name="uni044E" unicode="&#x44e;" horiz-adv-x="857" 
d="M550 502c145 0 262 -114 262 -256c0 -143 -117 -257 -262 -257c-133 0 -237 95 -253 223h-110v-169c0 -32 -23 -54 -52 -54c-31 0 -53 23 -53 54v405c0 31 22 54 53 54c29 0 52 -23 52 -54v-145h114c25 116 126 199 249 199zM551 86c87 0 153 69 153 160
c0 90 -66 159 -153 159c-86 0 -152 -68 -152 -160c0 -91 66 -159 152 -159z" />
    <glyph glyph-name="uni044F" unicode="&#x44f;" horiz-adv-x="569" 
d="M434 491c30 0 54 -24 54 -54v-394c0 -31 -22 -54 -53 -54c-30 0 -53 23 -53 54v99h-118h-17l-114 -134c-11 -14 -25 -19 -40 -19c-29 0 -52 23 -52 52c0 15 7 27 17 37l85 95c-48 30 -76 80 -76 143c0 105 79 175 197 175h170zM382 233v167h-110c-60 0 -97 -32 -97 -83
s38 -84 97 -84h110z" />
    <glyph glyph-name="uni0452" unicode="&#x452;" horiz-adv-x="589" 
d="M328 481c113 0 183 -80 183 -196v-305c0 -116 -72 -171 -176 -171c-14 0 -24 0 -34 2c-28 4 -48 22 -48 48c0 25 20 46 46 46c7 0 11 -1 20 -1c47 0 86 21 86 85v283c0 66 -41 112 -106 112c-66 0 -113 -47 -113 -112v-229c0 -31 -22 -54 -52 -54s-52 23 -52 54v523h-41
c-26 0 -46 19 -46 45s20 45 46 45h41v51c0 31 21 54 52 54c30 0 52 -23 52 -54v-51h156c26 0 46 -19 46 -45s-20 -45 -46 -45h-156v-146c33 38 83 61 142 61z" />
    <glyph glyph-name="uni0463" unicode="&#x463;" horiz-adv-x="550" 
d="M136 0c-31 0 -54 23 -54 54v359h-41c-26 0 -46 19 -46 44c0 26 20 45 46 45h41v197c0 32 22 54 52 54s52 -23 52 -54v-197h162c26 0 46 -19 46 -45c0 -25 -20 -44 -46 -44h-162v-77h119c117 0 197 -68 197 -166c0 -102 -79 -170 -197 -170h-169zM186 91h111
c61 0 97 29 97 78s-36 79 -97 79h-111v-157z" />
    <glyph glyph-name="uni0473" unicode="&#x473;" horiz-adv-x="609" 
d="M304 502c144 0 261 -112 261 -257s-117 -256 -261 -256s-259 111 -259 256s115 257 259 257zM304 409c-75 0 -133 -48 -150 -118c24 9 46 14 69 14c62 0 102 -30 163 -30c23 0 45 5 70 14c-17 71 -77 120 -152 120zM304 82c78 0 139 52 154 128c-26 -10 -48 -14 -72 -14
c-63 0 -103 29 -163 29c-24 0 -47 -5 -72 -14c14 -77 74 -129 153 -129z" />
    <glyph glyph-name="uni0475" unicode="&#x475;" horiz-adv-x="552" 
d="M512 498c33 0 55 -20 55 -47c0 -24 -11 -37 -35 -46c-24 -7 -37 -20 -52 -49l-159 -336c-9 -19 -27 -31 -48 -31c-20 0 -38 12 -47 31l-194 398c-6 13 -8 22 -8 33c0 27 23 51 51 51c21 0 38 -11 48 -31l150 -321l120 257c29 63 65 91 119 91z" />
    <glyph glyph-name="uni0493" unicode="&#x493;" horiz-adv-x="472" 
d="M414 400h-228v-129h187c26 0 46 -19 46 -45s-20 -45 -46 -45h-187v-130c0 -31 -22 -54 -52 -54s-52 23 -52 54v130h-41c-26 0 -46 19 -46 45s20 45 46 45h41v166c0 30 23 54 54 54h278c26 0 46 -20 46 -46s-20 -45 -46 -45z" />
    <glyph glyph-name="uni0497" unicode="&#x497;" horiz-adv-x="840" 
d="M146 482l165 -179c12 -13 17 -25 17 -38c0 -12 -5 -23 -15 -36l-186 -221c-10 -14 -24 -19 -39 -19c-28 0 -50 21 -50 48c0 11 4 23 13 34l165 196l-143 149c-13 13 -17 25 -17 38c0 27 21 47 48 48c16 0 29 -6 42 -20zM404 502c30 0 52 -23 52 -54v-405
c0 -32 -22 -54 -52 -54s-53 23 -53 54v405c0 31 23 54 53 54zM753 80c31 0 54 -23 54 -54v-124c0 -30 -22 -54 -52 -54s-53 24 -53 54v87h-1c-16 0 -28 6 -40 21l-169 219c-9 13 -14 24 -14 36c0 13 5 25 17 38l162 182c10 10 23 17 38 17c28 -1 48 -23 48 -50
c0 -13 -5 -25 -15 -36l-141 -150l146 -186h20z" />
    <glyph glyph-name="uni0499" unicode="&#x499;" horiz-adv-x="503" 
d="M449 137c0 -69 -49 -119 -129 -139c13 -22 21 -46 21 -68c0 -73 -58 -121 -145 -121c-25 0 -43 1 -59 8c-18 7 -28 18 -28 36c0 21 17 38 38 38c13 0 20 -3 39 -3c34 0 64 16 64 48c0 23 -9 39 -19 53c-66 2 -124 23 -161 59c-16 14 -23 26 -23 40c0 26 21 46 48 46
c12 0 20 -3 33 -13c28 -26 67 -39 113 -39c66 0 103 25 103 68c0 41 -34 64 -92 64h-53c-24 0 -43 18 -43 42s19 42 43 42h51c47 0 73 20 73 55c0 37 -28 56 -87 56c-43 0 -77 -11 -103 -32c-12 -9 -21 -13 -33 -13c-26 0 -46 20 -46 46c0 15 6 26 23 40c37 32 97 52 162 52
c116 0 189 -54 189 -139c0 -44 -19 -82 -54 -107c47 -25 75 -68 75 -119z" />
    <glyph glyph-name="uni049B" unicode="&#x49b;" horiz-adv-x="574" 
d="M135 502c30 0 52 -23 52 -54v-405c0 -31 -22 -54 -52 -54c-31 0 -53 23 -53 54v405c0 31 22 54 53 54zM503 91c31 0 54 -23 54 -54v-135c0 -30 -22 -54 -52 -54c-31 0 -53 24 -53 54v87c-13 1 -25 6 -33 16l-194 227c-9 11 -14 23 -14 35s5 24 14 35l177 184
c10 10 22 16 37 16c28 0 49 -22 49 -48c0 -14 -6 -25 -16 -37l-147 -151l153 -175h25z" />
    <glyph glyph-name="uni04A1" unicode="&#x4a1;" horiz-adv-x="567" 
d="M514 73c8 -11 13 -22 13 -35c0 -27 -22 -49 -50 -49c-15 0 -28 5 -37 16l-192 223c-10 13 -15 25 -15 37c0 13 5 26 17 39l174 182c9 11 22 16 37 16c28 -1 49 -22 49 -49c0 -14 -5 -27 -15 -37l-147 -152zM154 491c30 0 54 -24 54 -54v-394c0 -31 -22 -54 -53 -54
c-30 0 -53 23 -53 54v357h-58c-27 0 -47 19 -47 45s20 46 47 46h110z" />
    <glyph glyph-name="uni04A3" unicode="&#x4a3;" horiz-adv-x="631" 
d="M543 -152c-32 0 -55 24 -55 55v96l-29 1c-30 0 -53 23 -53 54v158h-219v-169c0 -31 -22 -54 -52 -54c-31 0 -53 23 -53 54v405c0 31 22 54 53 54c29 0 52 -23 52 -54v-145h219v145c0 31 22 54 52 54s53 -23 53 -54v-357h31c31 0 54 -23 54 -54v-134
c0 -31 -22 -55 -53 -55z" />
    <glyph glyph-name="uni04AB" unicode="&#x4ab;" horiz-adv-x="552" 
d="M466 164c26 0 47 -21 47 -47c0 -9 -2 -17 -9 -27c-30 -44 -75 -77 -131 -92c13 -22 21 -46 21 -68c0 -73 -58 -121 -145 -121c-25 0 -43 1 -59 8c-18 7 -28 18 -28 36c0 21 17 38 38 38c13 0 20 -3 39 -3c34 0 64 16 64 48c0 23 -10 40 -20 54c-135 10 -238 119 -238 256
c0 143 114 256 260 256c86 0 160 -41 198 -100c8 -12 10 -20 10 -28c0 -27 -21 -48 -47 -48c-14 0 -26 4 -37 17c-29 36 -69 62 -123 62c-88 0 -154 -68 -154 -159c0 -93 65 -160 154 -160c54 0 93 26 123 61c12 14 23 17 37 17z" />
    <glyph glyph-name="uni04AF" unicode="&#x4af;" horiz-adv-x="545" 
d="M522 451c0 -9 -2 -17 -6 -24l-192 -399v-165c0 -31 -22 -54 -52 -54s-53 23 -53 54v169l-190 394c-4 8 -6 16 -6 25c0 27 24 51 51 51c21 0 39 -10 48 -31l151 -320l150 320c9 21 27 31 47 31c28 0 52 -24 52 -51z" />
    <glyph glyph-name="uni04B1" unicode="&#x4b1;" 
d="M530 451c0 -9 -2 -17 -6 -24l-182 -377h6c3 0 6 -2 6 -5s-3 -6 -6 -6h-11l-5 -11v-165c0 -31 -22 -54 -52 -54s-53 23 -53 54v169l-3 7h-12c-3 0 -6 3 -6 6s3 5 6 5h7l-182 376c-4 8 -6 16 -6 25c0 27 24 51 51 51c21 0 39 -10 48 -31l151 -320l150 320c9 21 27 31 47 31
c28 0 52 -24 52 -51z" />
    <glyph glyph-name="uni04B3" unicode="&#x4b3;" horiz-adv-x="549" 
d="M481 80c31 0 54 -23 54 -54v-124c0 -30 -22 -54 -52 -54s-53 24 -53 54v87l-1 1c-3 -1 -5 -1 -8 -1c-18 0 -33 9 -44 24l-120 158l-121 -158c-11 -14 -26 -24 -43 -24c-29 0 -52 22 -52 50c0 13 5 25 15 38l135 175l-121 159c-14 17 -18 28 -18 40c0 28 23 51 52 51
c17 0 32 -9 43 -24l110 -147l112 147c12 15 26 24 44 24c28 0 51 -23 51 -51c0 -12 -5 -24 -17 -40l-125 -160l134 -171h25z" />
    <glyph glyph-name="uni04B7" unicode="&#x4b7;" horiz-adv-x="591" 
d="M502 88c31 0 54 -24 54 -54v-136c0 -31 -22 -54 -52 -54s-53 24 -53 54v99h-29c-31 0 -54 23 -54 54v127c-30 -10 -64 -17 -100 -17c-137 0 -223 88 -223 225v62c0 31 22 54 52 54s52 -23 52 -54v-55c0 -87 45 -134 127 -134c30 0 63 6 92 15v174c0 31 22 54 53 54
c30 0 52 -23 52 -54v-360h29z" />
    <glyph glyph-name="uni04BB" unicode="&#x4bb;" horiz-adv-x="589" 
d="M328 502c110 0 182 -77 182 -195v-264c0 -32 -23 -54 -52 -54c-31 0 -53 23 -53 54v249c0 69 -43 114 -107 114c-65 0 -112 -47 -112 -114v-249c0 -32 -22 -54 -52 -54s-53 23 -53 54v664c0 31 23 54 53 54s52 -22 52 -54v-265c34 38 83 60 142 60z" />
    <glyph glyph-name="uni04CF" unicode="&#x4cf;" horiz-adv-x="268" 
d="M135 -11c-31 0 -53 23 -53 54v664c0 31 22 54 53 54c30 0 52 -23 52 -54v-664c0 -31 -22 -54 -52 -54z" />
    <glyph glyph-name="uni04C2" unicode="&#x4c2;" horiz-adv-x="810" 
d="M405 577c-86 0 -161 69 -161 145c0 25 18 45 42 45c23 0 37 -13 42 -37c6 -41 38 -70 77 -70c40 0 71 29 78 70c5 23 20 37 41 37c24 0 43 -20 43 -45c0 -78 -73 -145 -162 -145zM148 482l164 -179c12 -13 17 -25 17 -38c0 -12 -4 -23 -15 -36l-186 -221
c-10 -14 -24 -19 -38 -19c-29 0 -51 21 -51 48c0 11 4 23 13 34l165 196l-143 149c-12 13 -17 25 -17 38c0 27 21 47 48 48c17 0 30 -6 43 -20zM406 502c29 0 52 -23 52 -54v-405c0 -32 -23 -54 -52 -54c-31 0 -53 23 -53 54v405c0 31 22 54 53 54zM756 71
c9 -12 14 -23 14 -34c0 -27 -22 -48 -51 -48c-15 0 -28 6 -39 19l-185 221c-11 13 -16 24 -16 36c0 13 6 25 18 38l164 179c13 14 26 20 42 20c27 -1 49 -21 49 -48c0 -13 -6 -25 -17 -38l-144 -149z" />
    <glyph glyph-name="uni04D1" unicode="&#x4d1;" horiz-adv-x="536" 
d="M265 577c-86 0 -161 69 -161 145c0 25 18 45 42 45c23 0 37 -13 42 -37c6 -41 38 -70 77 -70c40 0 71 29 78 70c5 23 20 37 41 37c24 0 43 -20 43 -45c0 -78 -73 -145 -162 -145zM264 502c127 0 202 -76 202 -205v-255c0 -31 -22 -53 -52 -53s-52 23 -52 53v6
c-36 -38 -88 -59 -151 -59c-102 0 -171 57 -171 142c0 86 70 140 181 140h139v32c0 67 -38 105 -105 105c-41 0 -78 -15 -109 -46c-13 -11 -24 -16 -36 -16c-25 0 -46 21 -46 44c0 15 7 29 21 43c42 44 107 69 179 69zM233 70c71 0 127 51 127 116v9h-126
c-57 0 -87 -21 -87 -60c0 -40 34 -65 86 -65z" />
    <glyph glyph-name="uni04D7" unicode="&#x4d7;" horiz-adv-x="570" 
d="M285 577c-86 0 -161 69 -161 145c0 25 18 45 42 45c23 0 37 -13 42 -37c6 -41 38 -70 77 -70c40 0 71 29 78 70c5 23 20 37 41 37c24 0 43 -20 43 -45c0 -78 -73 -145 -162 -145zM298 502c131 0 228 -96 228 -228v-5c0 -36 -23 -58 -60 -58h-314c14 -79 73 -129 160 -129
c42 0 82 13 115 38c9 6 18 10 27 10c25 0 44 -19 44 -44c0 -18 -7 -30 -26 -44c-47 -35 -102 -53 -163 -53c-152 0 -264 109 -264 256c0 145 110 257 253 257zM295 413c-71 0 -125 -48 -141 -120h267c-2 71 -52 120 -126 120z" />
    <glyph glyph-name="uni04D9" unicode="&#x4d9;" horiz-adv-x="570" 
d="M261 502c152 0 264 -109 264 -256c0 -145 -110 -257 -253 -257c-131 0 -228 96 -228 228v5c0 36 23 58 60 58h314c-14 79 -73 129 -160 129c-42 0 -82 -13 -115 -38c-9 -6 -18 -10 -27 -10c-25 0 -44 19 -44 44c0 18 7 30 26 44c47 35 102 53 163 53zM275 78
c71 0 125 48 141 120h-267c2 -71 52 -120 126 -120z" />
    <glyph glyph-name="uni04E3" unicode="&#x4e3;" horiz-adv-x="603" 
d="M198 632c-25 0 -44 18 -44 42s19 42 44 42h212c26 0 44 -18 44 -42s-18 -42 -44 -42h-212zM470 502c29 0 52 -23 52 -54v-405c0 -31 -23 -54 -53 -54s-52 23 -52 54v272l-235 -299c-16 -19 -31 -27 -48 -27c-30 0 -52 23 -52 54v405c0 31 22 54 53 54c29 0 52 -23 52 -54
v-279l235 305c15 20 29 28 48 28z" />
    <glyph glyph-name="uni04E7" unicode="&#x4e7;" horiz-adv-x="609" 
d="M193 740c38 0 67 -28 67 -66c0 -35 -30 -65 -67 -65c-36 0 -68 31 -68 65c0 36 31 66 68 66zM417 740c38 0 68 -28 68 -66c0 -35 -31 -65 -68 -65c-36 0 -68 31 -68 65c0 36 31 66 68 66zM304 502c146 0 261 -113 261 -256s-115 -257 -261 -257c-145 1 -259 114 -259 257
c0 144 114 256 259 256zM305 406c-88 -1 -153 -69 -153 -161c0 -91 65 -159 152 -159s153 69 153 159c0 92 -66 160 -152 161z" />
    <glyph glyph-name="uni04E9" unicode="&#x4e9;" horiz-adv-x="609" 
d="M304 502c146 0 261 -113 261 -256s-115 -257 -261 -257c-145 1 -259 114 -259 257c0 144 114 256 259 256zM304 409c-75 0 -133 -48 -150 -118h301c-18 70 -76 118 -151 118zM304 83c78 0 139 52 153 126h-306c15 -75 74 -126 153 -126z" />
    <glyph glyph-name="uni04EF" unicode="&#x4ef;" horiz-adv-x="549" 
d="M169 632c-25 0 -44 18 -44 42s19 42 44 42h212c26 0 44 -18 44 -42s-18 -42 -44 -42h-212zM474 502c28 0 51 -24 51 -51c0 -8 -1 -16 -5 -24l-226 -473c-49 -102 -105 -145 -191 -145c-17 0 -34 2 -47 6c-20 6 -32 24 -32 44c0 25 22 46 48 46c8 0 14 -1 20 -1
c46 0 78 21 102 72l22 47l-182 403c-3 8 -6 15 -6 25c0 27 24 51 52 51c21 0 40 -12 48 -31l147 -330l151 330c8 18 27 31 48 31z" />
    <glyph glyph-name="uni04F3" unicode="&#x4f3;" horiz-adv-x="549" 
d="M200 564c-28 1 -47 23 -46 47c0 8 3 16 7 24l54 125c8 18 29 31 50 31c29 0 52 -24 52 -54c0 -8 -2 -17 -8 -28l-67 -118c-9 -15 -23 -28 -42 -27zM376 564c-28 1 -47 23 -46 47c0 8 3 16 7 24l54 125c8 18 29 31 50 31c29 0 52 -24 52 -54c0 -8 -2 -17 -8 -28l-67 -118
c-9 -15 -23 -28 -42 -27zM474 502c28 0 51 -24 51 -51c0 -8 -1 -16 -5 -24l-226 -473c-49 -102 -105 -145 -191 -145c-17 0 -34 2 -47 6c-20 6 -32 24 -32 44c0 25 22 46 48 46c8 0 14 -1 20 -1c46 0 78 21 102 72l22 47l-182 403c-3 8 -6 15 -6 25c0 27 24 51 52 51
c21 0 40 -12 48 -31l147 -330l151 330c8 18 27 31 48 31z" />
    <glyph glyph-name="uni0432.loclBGR" horiz-adv-x="589" 
d="M409 413c84 -32 136 -104 136 -199c0 -133 -98 -225 -237 -225s-229 91 -229 232v318c0 135 86 222 219 222c118 0 198 -76 198 -190c0 -71 -32 -126 -87 -158zM289 665c-66 0 -105 -46 -105 -127v-92h78c79 0 127 44 127 116c0 64 -39 103 -100 103zM306 85
c80 0 132 53 132 132c0 85 -61 140 -156 140h-98v-133c0 -87 45 -139 122 -139z" />
    </font>
</defs>
</svg>
